<?xml version="1.0" standalone="no"?>
<!DOCTYPE svg PUBLIC "-//W3C//DTD SVG 1.1//EN" "http://www.w3.org/Graphics/SVG/1.1/DTD/svg11.dtd" >
<svg xmlns="http://www.w3.org/2000/svg" xmlns:xlink="http://www.w3.org/1999/xlink" version="1.1">
<metadata>
Created by FontForge 20170924 at Thu Dec 10 02:03:45 2015
 By www-data
Copyright (c) 2011 by Moretype. All rights reserved.
</metadata>
<defs>
<font id="Mic32NewRoundedW00-Light" horiz-adv-x="571" >
  <font-face 
    font-family="Mic32NewRoundedW00-Light"
    font-weight="300"
    font-stretch="normal"
    units-per-em="1000"
    panose-1="2 11 3 3 4 0 0 2 0 4"
    ascent="800"
    descent="-200"
    x-height="511"
    cap-height="676"
    bbox="-33.25 -224 1163 910"
    underline-thickness="50"
    underline-position="-125"
    unicode-range="U+0020-FB04"
  />
<missing-glyph horiz-adv-x="500" 
d="M38 0v764h418v-764h-418zM104 63h286v638h-286v-638z" />
    <glyph glyph-name="uniFB00" unicode="ff" horiz-adv-x="618" 
d="M98 15v443h-54q-6 0 -10.5 4.5t-4.5 10.5v23q0 6 4.5 10.5t10.5 4.5h54v85q0 26 9.5 55.5t34 52t52.5 32t55 9.5q30 0 50 -5q15 -4 12 -19l-6 -29q-3 -15 -17 -12q-20 4 -38 4q-25 0 -46.5 -13t-30.5 -34t-9 -41v-85h243v85q0 26 9.5 55.5t34 52t52.5 32t55 9.5
q30 0 50 -5q15 -4 12 -19l-6 -29q-3 -15 -17 -12q-20 4 -38 4q-25 0 -46.5 -13t-30.5 -34t-9 -41v-85h120q7 0 10 -5.5t0 -12.5l-8 -21q-5 -14 -20 -14h-102v-443q0 -6 -4.5 -10.5t-10.5 -4.5h-36q-6 0 -10.5 4.5t-4.5 10.5v443h-243v-443q0 -6 -4.5 -10.5t-10.5 -4.5h-36
q-6 0 -10.5 4.5t-4.5 10.5z" />
    <glyph glyph-name="uniFB01" unicode="fi" horiz-adv-x="545" 
d="M98 15v443h-54q-6 0 -10.5 4.5t-4.5 10.5v23q0 6 4.5 10.5t10.5 4.5h54v85q0 26 9.5 55.5t34 52t52.5 32t55 9.5q30 0 50 -5q15 -4 12 -19l-6 -29q-3 -15 -17 -12q-20 4 -38 4q-25 0 -46.5 -13t-30.5 -34t-9 -41v-85h120q7 0 10 -5.5t0 -12.5l-8 -21q-5 -14 -20 -14h-102
v-443q0 -6 -4.5 -10.5t-10.5 -4.5h-36q-6 0 -10.5 4.5t-4.5 10.5zM427 608q-19 0 -33 13.5t-14 32.5q0 18 14 31.5t33 13.5t33 -13.5t14 -31.5t-14 -32t-33 -14zM394 15v481q0 6 4.5 10.5t10.5 4.5h36q6 0 10.5 -4.5t4.5 -10.5v-481q0 -6 -4.5 -10.5t-10.5 -4.5h-36
q-6 0 -10.5 4.5t-4.5 10.5z" />
    <glyph glyph-name="uniFB02" unicode="fl" horiz-adv-x="545" 
d="M98 15v443h-54q-6 0 -10.5 4.5t-4.5 10.5v23q0 6 4.5 10.5t10.5 4.5h54v85q0 26 9.5 55.5t34 52t52.5 32t55 9.5q30 0 50 -5q15 -4 12 -19l-6 -29q-3 -15 -17 -12q-20 4 -38 4q-25 0 -46.5 -13t-30.5 -34t-9 -41v-85h120q7 0 10 -5.5t0 -12.5l-8 -21q-5 -14 -20 -14h-102
v-443q0 -6 -4.5 -10.5t-10.5 -4.5h-36q-6 0 -10.5 4.5t-4.5 10.5zM394 15v694q0 16 13 20l36 11q7 2 12 -1.5t5 -9.5v-714q0 -6 -4.5 -10.5t-10.5 -4.5h-36q-6 0 -10.5 4.5t-4.5 10.5z" />
    <glyph glyph-name="uniFB03" unicode="ffi" horiz-adv-x="854" 
d="M98 15v443h-54q-6 0 -10.5 4.5t-4.5 10.5v23q0 6 4.5 10.5t10.5 4.5h54v85q0 26 9.5 55.5t34 52t52.5 32t55 9.5q30 0 50 -5q15 -4 12 -19l-6 -29q-3 -15 -17 -12q-20 4 -38 4q-25 0 -46.5 -13t-30.5 -34t-9 -41v-85h243v85q0 26 9.5 55.5t34 52t52.5 32t55 9.5
q30 0 50 -5q15 -4 12 -19l-6 -29q-3 -15 -17 -12q-20 4 -38 4q-25 0 -46.5 -13t-30.5 -34t-9 -41v-85h120q7 0 10 -5.5t0 -12.5l-8 -21q-5 -14 -20 -14h-102v-443q0 -6 -4.5 -10.5t-10.5 -4.5h-36q-6 0 -10.5 4.5t-4.5 10.5v443h-243v-443q0 -6 -4.5 -10.5t-10.5 -4.5h-36
q-6 0 -10.5 4.5t-4.5 10.5zM689 654q0 18 14 31.5t33 13.5t33 -13.5t14 -31.5t-14 -32t-33 -14t-33 13.5t-14 32.5zM703 15v481q0 6 4.5 10.5t10.5 4.5h36q6 0 10.5 -4.5t4.5 -10.5v-481q0 -6 -4.5 -10.5t-10.5 -4.5h-36q-6 0 -10.5 4.5t-4.5 10.5z" />
    <glyph glyph-name="uniFB04" unicode="ffl" horiz-adv-x="854" 
d="M98 15v443h-54q-6 0 -10.5 4.5t-4.5 10.5v23q0 6 4.5 10.5t10.5 4.5h54v85q0 26 9.5 55.5t34 52t52.5 32t55 9.5q30 0 50 -5q15 -4 12 -19l-6 -29q-3 -15 -17 -12q-20 4 -38 4q-25 0 -46.5 -13t-30.5 -34t-9 -41v-85h243v85q0 26 9.5 55.5t34 52t52.5 32t55 9.5
q30 0 50 -5q15 -4 12 -19l-6 -29q-3 -15 -17 -12q-20 4 -38 4q-25 0 -46.5 -13t-30.5 -34t-9 -41v-85h120q7 0 10 -5.5t0 -12.5l-8 -21q-5 -14 -20 -14h-102v-443q0 -6 -4.5 -10.5t-10.5 -4.5h-36q-6 0 -10.5 4.5t-4.5 10.5v443h-243v-443q0 -6 -4.5 -10.5t-10.5 -4.5h-36
q-6 0 -10.5 4.5t-4.5 10.5zM703 14v694q0 16 13 20l36 11q7 2 12 -1.5t5 -9.5v-714q0 -6 -4.5 -10.5t-10.5 -4.5h-36q-6 0 -10.5 4.5t-4.5 10.5z" />
    <glyph glyph-name="f_t.liga" unicode="ft" horiz-adv-x="602" 
d="M98 15v443h-54q-6 0 -10.5 4.5t-4.5 10.5v23q0 6 4.5 10.5t10.5 4.5h54v85q0 26 9.5 55.5t34 52t52.5 32t55 9.5q30 0 50 -5q15 -4 12 -19l-6 -29q-3 -15 -17 -12q-20 4 -38 4q-25 0 -46.5 -13t-30.5 -34t-9 -41v-85h245v135q0 15 14 19l31 9q7 2 14 -0.5t7 -11.5v-151
h94q6 0 10.5 -4.5t4.5 -10.5v-23q0 -6 -4.5 -10.5t-10.5 -4.5h-94v-443q0 -6 -4.5 -10.5t-10.5 -4.5h-36q-6 0 -10.5 4.5t-4.5 10.5v443h-245v-443q0 -6 -4.5 -10.5t-10.5 -4.5h-36q-6 0 -10.5 4.5t-4.5 10.5z" />
    <glyph glyph-name="t_t.liga" unicode="tt" horiz-adv-x="586" 
d="M100 15v443h-51q-15 0 -20 13l-10 24q-3 6 0 11t9 5h72v135q0 15 14 19l31 9q7 2 14 -0.5t7 -11.5v-151h227v135q0 15 14 19l31 9q7 2 14 -0.5t7 -11.5v-151h94q6 0 10.5 -4.5t4.5 -10.5v-23q0 -6 -4.5 -10.5t-10.5 -4.5h-94v-443q0 -6 -4.5 -10.5t-10.5 -4.5h-36
q-6 0 -10.5 4.5t-4.5 10.5v443h-227v-443q0 -6 -4.5 -10.5t-10.5 -4.5h-36q-6 0 -10.5 4.5t-4.5 10.5z" />
    <glyph glyph-name="f_y.liga" unicode="fy" horiz-adv-x="788" 
d="M98 15v443h-54q-6 0 -10.5 4.5t-4.5 10.5v23q0 6 4.5 10.5t10.5 4.5h54v85q0 26 9.5 55.5t34 52t52.5 32t55 9.5q30 0 50 -5q15 -4 12 -19l-6 -29q-3 -15 -17 -12q-20 4 -38 4q-25 0 -46.5 -13t-30.5 -34t-9 -41v-85h232q6 0 11 -4.5t6 -10.5l43 -311q6 -43 21 -71.5
t39 -40t51 -11.5h64l54 433q1 6 6 11t11 5h36q6 0 10 -5t3 -11l-87 -691q-1 -6 -6 -10.5t-11 -4.5h-36q-6 0 -10 4.5t-3 10.5l25 196h-57q-152 0 -176 176l-39 282h-187v-443q0 -6 -4.5 -10.5t-10.5 -4.5h-36q-6 0 -10.5 4.5t-4.5 10.5z" />
    <glyph glyph-name="t_y.liga" unicode="ty" horiz-adv-x="772" 
d="M100 15v443h-51q-15 0 -20 13l-10 24q-3 6 0 11t9 5h72v135q0 15 14 19l31 9q7 2 14 -0.5t7 -11.5v-151h214q6 0 11 -4.5t6 -10.5l43 -311q6 -43 21 -71.5t39 -40t51 -11.5h64l54 433q1 6 6 11t11 5h36q6 0 10 -5t3 -11l-87 -691q-1 -6 -6 -10.5t-11 -4.5h-36
q-6 0 -10 4.5t-3 10.5l25 196h-57q-152 0 -176 176l-39 282h-169v-443q0 -6 -4.5 -10.5t-10.5 -4.5h-36q-6 0 -10.5 4.5t-4.5 10.5z" />
    <glyph glyph-name=".notdef" horiz-adv-x="500" 
d="M38 0v764h418v-764h-418zM104 63h286v638h-286v-638z" />
    <glyph glyph-name="glyph1" horiz-adv-x="240" 
 />
    <glyph glyph-name="nonmarkingreturn" horiz-adv-x="333" 
 />
    <glyph glyph-name="space" unicode=" " horiz-adv-x="250" 
 />
    <glyph glyph-name="exclam" unicode="!" horiz-adv-x="242" 
d="M107 215q-6 0 -10.5 4.5t-4.5 10.5l-8 420q0 15 15 19l47 12q15 4 15 -11l-9 -440q0 -6 -4.5 -10.5t-10.5 -4.5h-30zM75 33q0 19 14 32t33 13q18 0 31.5 -13t13.5 -32q0 -18 -13.5 -32t-31.5 -14q-19 0 -33 13.5t-14 32.5z" />
    <glyph glyph-name="quotedbl" unicode="&#x22;" horiz-adv-x="341" 
d="M226 517q-6 0 -11 4.5t-5 10.5l-8 185q-1 6 4 10.5t11 4.5h36q6 0 10 -4.5t3 -10.5l-8 -185q0 -6 -5 -10.5t-11 -4.5h-16zM100 517q-6 0 -11 4.5t-5 10.5l-8 185q-1 6 4 10.5t11 4.5h36q6 0 10 -4.5t3 -10.5l-8 -185q0 -6 -5 -10.5t-11 -4.5h-16z" />
    <glyph glyph-name="numbersign" unicode="#" horiz-adv-x="544" 
d="M95 15l19 189h-56q-6 0 -10.5 4.5t-4.5 10.5v31q0 6 4.5 10.5t10.5 4.5h62l17 179h-55q-6 0 -10.5 4.5t-4.5 10.5v31q0 6 4.5 10.5t10.5 4.5h61l19 190q2 14 16 14h31q6 0 10.5 -4.5t3.5 -10.5l-19 -189h166l19 189q2 15 16 15h31q6 0 10.5 -4.5t3.5 -10.5l-19 -189h55
q6 0 10.5 -4.5t4.5 -10.5v-31q0 -6 -4.5 -10.5t-10.5 -4.5h-61l-17 -179h55q6 0 10.5 -4.5t4.5 -10.5v-31q0 -6 -4.5 -10.5t-10.5 -4.5h-61l-19 -189q-2 -15 -16 -15h-31q-6 0 -10.5 4.5t-3.5 10.5l19 189h-166l-19 -189q-2 -15 -16 -15h-31q-6 0 -10.5 4.5t-3.5 10.5z
M181 265h166l17 179h-166z" />
    <glyph glyph-name="dollar" unicode="$" horiz-adv-x="498" 
d="M49 36l6 31q1 7 7.5 9.5t14.5 0.5q86 -27 158 -27q25 0 54.5 9t49 28t27 40.5t7.5 43.5q0 16 -4.5 34t-16 34.5t-34.5 32.5t-99.5 46t-105.5 55t-42 55t-13 70q0 69 46 114.5t121 54.5v98q0 6 4.5 10.5t10.5 4.5h33q6 0 10.5 -4.5t4.5 -10.5v-97q57 -4 124 -26
q14 -5 10 -19l-9 -32q-4 -14 -20 -9q-79 24 -134 24q-60 0 -95.5 -28t-35.5 -78q0 -37 23 -66.5t104.5 -61t107.5 -49t41.5 -35.5t27 -45.5t11.5 -69.5q0 -29 -8.5 -58.5t-29 -55t-52.5 -44t-77 -25.5v-99q0 -6 -4.5 -10.5t-10.5 -4.5h-33q-6 0 -10.5 4.5t-4.5 10.5v97
q-76 3 -149 27q-18 6 -15 21z" />
    <glyph glyph-name="percent" unicode="%" horiz-adv-x="867" 
d="M219 316q-39 0 -75 18t-54.5 54.5t-18.5 79.5v69q0 69 41.5 110.5t106.5 41.5q64 0 106.5 -41.5t42.5 -110.5v-69q0 -69 -42.5 -110.5t-106.5 -41.5zM244 19l307 642q7 15 22 15h32q7 0 10 -5t0 -12l-308 -644q-7 -15 -22 -15h-32q-7 0 -10 5.5t1 13.5zM219 369
q41 0 65.5 25.5t24.5 75.5v65q0 50 -24.5 75t-65.5 25t-65.5 -25t-24.5 -75v-65q0 -50 24.5 -75.5t65.5 -25.5zM499 140v68q0 43 17 76.5t50 55t81 21.5q64 0 106.5 -42t42.5 -111v-68q0 -69 -42.5 -111t-106.5 -42q-48 0 -81 21.5t-50 55t-17 76.5zM557 142q0 -51 24.5 -76
t65.5 -25t65.5 25t24.5 76v64q0 51 -24.5 76t-65.5 25t-65.5 -25t-24.5 -76v-64z" />
    <glyph glyph-name="ampersand" unicode="&#x26;" horiz-adv-x="579" 
d="M65 180q0 53 26.5 100.5t72.5 73.5q-31 17 -53 45.5t-30 57.5t-8 52q0 78 55.5 129t147.5 51q64 0 122 -20q6 -2 9 -8t1 -12l-10 -29q-2 -6 -7.5 -9t-11.5 -1q-51 17 -101 17q-49 0 -80.5 -19.5t-43 -46.5t-11.5 -52q0 -54 33 -88.5t98 -34.5h32q6 0 10.5 -4.5t4.5 -10.5
v-33q0 -6 -4.5 -10.5t-10.5 -4.5h-36q-47 0 -79 -23.5t-44 -57.5t-12 -62q0 -59 37 -94.5t101 -35.5q63 0 101 35.5t38 94.5v191q0 6 4.5 10.5t10.5 4.5h97q6 0 10.5 -4.5t4.5 -10.5v-33q0 -6 -4.5 -10.5t-10.5 -4.5h-47v-143q0 -19 -4.5 -43t-17 -49t-35.5 -48t-62 -38
t-86 -15q-35 0 -71.5 10t-66.5 33.5t-49.5 61.5t-19.5 88z" />
    <glyph glyph-name="quotesingle" unicode="'" horiz-adv-x="216" 
d="M100 517q-6 0 -11 4.5t-5 10.5l-8 185q-1 6 4 10.5t11 4.5h36q6 0 10 -4.5t3 -10.5l-8 -185q0 -6 -5 -10.5t-11 -4.5h-16z" />
    <glyph glyph-name="parenleft" unicode="(" horiz-adv-x="315" 
d="M91 -22v615q0 59 23 100t66 65t104 25q11 0 11 -15v-32q0 -15 -11 -15q-67 -3 -97.5 -35.5t-30.5 -95.5v-609q0 -127 128 -131q11 0 11 -15v-31q0 -15 -11 -15q-63 2 -105.5 25.5t-65 64t-22.5 99.5z" />
    <glyph glyph-name="parenright" unicode=")" horiz-adv-x="314" 
d="M31 -150q127 4 127 131v609q0 63 -30 95.5t-97 35.5q-11 0 -11 15v32q0 15 11 15q61 -1 104 -25t65.5 -65t22.5 -100v-615q0 -47 -14.5 -83t-40.5 -59t-61 -34.5t-76 -12.5q-11 0 -11 15v31q0 15 11 15z" />
    <glyph glyph-name="asterisk" unicode="*" horiz-adv-x="484" 
d="M229 377q-6 0 -10.5 4.5t-3.5 10.5l4 123l-102 -65q-6 -4 -11.5 -2.5t-9.5 7.5l-13 23q-4 6 -2.5 11.5t7.5 8.5l109 56l-109 58q-6 3 -7.5 8.5t2.5 11.5l13 22q4 6 9.5 7.5t11.5 -2.5l102 -65l-4 123q-1 6 3.5 10.5t10.5 4.5h27q6 0 10.5 -4.5t3.5 -10.5l-5 -123l103 65
q6 4 11.5 2.5t8.5 -7.5l13 -22q4 -6 2.5 -11.5t-7.5 -8.5l-109 -58l109 -56q6 -3 7.5 -8.5t-2.5 -11.5l-13 -23q-3 -6 -8.5 -7.5t-11.5 2.5l-103 65l5 -123q1 -6 -3.5 -10.5t-10.5 -4.5h-27z" />
    <glyph glyph-name="plus" unicode="+" horiz-adv-x="562" 
d="M90 248q-6 0 -10.5 4.5t-4.5 10.5v31q0 6 4.5 10.5t10.5 4.5h161v160q0 6 4.5 10.5t10.5 4.5h30q6 0 10.5 -4.5t4.5 -10.5v-160h161q6 0 10.5 -4.5t4.5 -10.5v-31q0 -6 -4.5 -10.5t-10.5 -4.5h-161v-160q0 -6 -4.5 -10.5t-10.5 -4.5h-30q-6 0 -10.5 4.5t-4.5 10.5v160
h-161z" />
    <glyph glyph-name="comma" unicode="," horiz-adv-x="248" 
d="M95 59q1 7 6.5 11.5t11.5 4.5h38q9 0 13 -5.5t1 -15.5l-54 -189q-2 -8 -8 -11.5t-13 -2.5l-18 3q-6 1 -9.5 6.5t-2.5 12.5z" />
    <glyph glyph-name="hyphen" unicode="-" horiz-adv-x="485" 
d="M105 248q-6 0 -10.5 4.5t-4.5 10.5v31q0 6 4.5 10.5t10.5 4.5h275q6 0 10.5 -4.5t4.5 -10.5v-31q0 -6 -4.5 -10.5t-10.5 -4.5h-275z" />
    <glyph glyph-name="period" unicode="." horiz-adv-x="242" 
d="M75 33q0 19 13.5 32t32.5 13t32.5 -13t13.5 -32q0 -18 -14 -32t-32 -14t-32 14t-14 32z" />
    <glyph glyph-name="slash" unicode="/" horiz-adv-x="365" 
d="M62 -47l180 762q4 17 19 17h31q2 0 7.5 -3t3.5 -14l-180 -762q-4 -16 -19 -16h-31q-6 0 -9 5t-2 11z" />
    <glyph glyph-name="zero" unicode="0" horiz-adv-x="579" 
d="M65 257v163q0 68 17.5 120t48 84.5t71.5 48.5t88 16t87.5 -16t71 -48.5t48 -84.5t17.5 -120v-163q0 -85 -26.5 -144t-76.5 -92.5t-121 -33.5q-72 0 -122 33.5t-76.5 92.5t-26.5 144zM131 257q0 -68 17.5 -113.5t52.5 -70.5t89 -25t88.5 25t52 70.5t17.5 113.5v163
q0 68 -17.5 113t-52 70t-88.5 25t-88.5 -25t-52.5 -70t-18 -113v-163z" />
    <glyph glyph-name="one" unicode="1" horiz-adv-x="374" 
d="M213 15v598l-142 -28q-9 -2 -14.5 1.5t-5.5 10.5v32q0 6 4.5 11.5t11.5 6.5l196 36q7 1 11.5 -2.5t4.5 -9.5v-656q0 -6 -4.5 -10.5t-10.5 -4.5h-36q-6 0 -10.5 4.5t-4.5 10.5z" />
    <glyph glyph-name="two" unicode="2" horiz-adv-x="527" 
d="M61 15v41q0 47 16 94.5t55 90t107.5 89t92.5 69.5t35 43.5t13 35t2 20.5q0 38 -17.5 68t-46.5 46t-69 16q-33 0 -65.5 -7t-73.5 -25q-6 -3 -12 -1t-9 8l-11 26q-7 16 8 23q75 37 163 37q55 0 103 -22.5t73 -67.5t25 -98q0 -35 -13.5 -65.5t-41 -59.5t-105 -84t-107 -89
t-43 -68t-13.5 -74h307q6 0 10.5 -4.5t4.5 -10.5v-31q0 -6 -4.5 -10.5t-10.5 -4.5h-358q-6 0 -10.5 4.5t-4.5 10.5z" />
    <glyph glyph-name="three" unicode="3" horiz-adv-x="495" 
d="M47 28l10 31q1 6 7 8.5t12 0.5q64 -20 124 -20q54 0 92.5 21t58.5 54.5t20 78.5q0 46 -20 76.5t-55 46.5t-87 16h-53q-14 0 -17 15l-6 30q-3 15 6 25l185 205h-254q-14 0 -16 15l-4 30q-1 6 3 10.5t10 4.5h318q7 0 12.5 -4.5t6.5 -12.5l5 -27q3 -16 -7 -27l-188 -204
q48 0 90 -13t73 -38t48.5 -63t17.5 -85q0 -36 -12.5 -73.5t-46 -72.5t-83 -52t-97.5 -17q-71 0 -143 22q-7 2 -9.5 7.5t-0.5 11.5z" />
    <glyph glyph-name="four" unicode="4" horiz-adv-x="544" 
d="M76 160q-6 0 -11.5 5t-6.5 13l-4 24q-3 18 1 31l132 427q5 16 20 16h32q7 0 11 -5.5t1 -14.5l-129 -434h207v210q0 6 4 11t10 6l38 6q6 1 10 -3t4 -12v-218h83q6 0 10.5 -4.5t4.5 -10.5v-32q0 -6 -4.5 -10.5t-10.5 -4.5h-83v-144q0 -6 -4.5 -11t-10.5 -6l-36 -6
q-6 -1 -10.5 3t-4.5 10v154h-253z" />
    <glyph glyph-name="five" unicode="5" horiz-adv-x="502" 
d="M41 30l6 29q1 7 7 9.5t13 0.5q70 -21 143 -21q26 0 56 9t55 29t40 51.5t15 73.5q0 77 -43 109t-126 32h-118q-6 0 -10 4.5t-4 10.5l10 294q0 6 5 10.5t11 4.5h307q6 0 9 -4.5t1 -10.5l-11 -33q-3 -13 -16 -13h-242l-7 -203h76q109 0 167.5 -50.5t58.5 -148.5
q0 -40 -13.5 -81t-44.5 -73t-76 -52t-100 -20q-39 0 -82 7t-75 17q-7 2 -10.5 6.5t-1.5 12.5z" />
    <glyph glyph-name="six" unicode="6" horiz-adv-x="545" 
d="M65 206v237q0 50 14.5 95t42.5 79t70.5 53t96.5 19q58 0 125 -18q18 -5 14 -23l-6 -26q-1 -6 -7.5 -10t-13.5 -2q-63 18 -112 18t-83.5 -22t-54.5 -63t-20 -100v-41q73 40 148 40q55 0 106 -26t79 -80t28 -121q0 -26 -5.5 -57.5t-20.5 -61t-41 -54.5t-65 -40t-82 -15
t-82 14.5t-68.5 42.5t-46 69.5t-16.5 92.5zM131 205q0 -39 16.5 -77t51.5 -59t78 -21q44 0 76 20t51.5 57.5t19.5 89.5q0 74 -39.5 120.5t-107.5 46.5q-35 0 -73.5 -10.5t-72.5 -29.5v-137z" />
    <glyph glyph-name="seven" unicode="7" horiz-adv-x="475" 
d="M176 16q0 172 47 320t153 280h-332q-15 0 -16 15l-2 30q-1 15 14 15h395q6 0 10.5 -4.5t4.5 -10.5v-28q0 -15 -11 -29q-84 -107 -122 -192.5t-54.5 -184.5t-17.5 -212q0 -6 -4.5 -10.5t-10.5 -4.5h-39q-15 0 -15 16z" />
    <glyph glyph-name="eight" unicode="8" horiz-adv-x="559" 
d="M59 167q0 60 35 103.5t114 81.5q-59 30 -93.5 70t-34.5 100q0 43 23.5 83t71 62t104.5 22q87 0 144.5 -47.5t57.5 -119.5q0 -31 -12 -61t-42.5 -56t-74.5 -48q79 -36 113.5 -81t34.5 -108q0 -30 -11.5 -61.5t-39 -58t-70.5 -44t-100 -17.5q-42 0 -82 12.5t-71 36
t-49 57.5t-18 74zM285 386q44 20 73.5 40.5t42 45t12.5 50.5q0 48 -37.5 77t-96.5 29q-58 0 -94.5 -29t-36.5 -77q0 -26 13 -50.5t44 -44.5t80 -41zM127 168q0 -27 14.5 -54.5t52.5 -46.5t85 -19q45 0 84 18.5t54 46t15 55.5q0 35 -19 61.5t-50.5 46.5t-88.5 45
q-88 -39 -117.5 -74.5t-29.5 -78.5z" />
    <glyph glyph-name="nine" unicode="9" horiz-adv-x="537" 
d="M108 24l7 33q1 6 7 8.5t13 0.5q65 -18 113 -18q49 0 83.5 22t54.5 63t20 100v41q-73 -40 -148 -40q-44 0 -82.5 15t-68 44t-46 72t-16.5 96q0 54 16.5 97t46 72t68.5 44t83 15q43 0 82 -14.5t68.5 -42.5t46 -69.5t16.5 -92.5v-237q0 -50 -14.5 -95t-43 -79t-71 -53
t-95.5 -19q-61 0 -129 19q-14 4 -11 18zM260 294q35 0 73.5 10.5t72.5 29.5v137q0 39 -16.5 77t-51.5 59t-78 21q-44 0 -76 -20t-51.5 -57.5t-19.5 -89.5q0 -74 39.5 -120.5t107.5 -46.5z" />
    <glyph glyph-name="colon" unicode=":" horiz-adv-x="242" 
d="M121 332q-18 0 -32 14t-14 32t13.5 31.5t32.5 13.5t32.5 -13.5t13.5 -31.5t-14 -32t-32 -14zM75 33q0 19 13.5 32t32.5 13t32.5 -13t13.5 -32q0 -18 -14 -32t-32 -14t-32 14t-14 32z" />
    <glyph glyph-name="semicolon" unicode=";" horiz-adv-x="257" 
d="M134 332q-18 0 -32 14t-14 32t13.5 31.5t32.5 13.5t32.5 -13.5t13.5 -31.5t-14 -32t-32 -14zM95 59q1 7 6.5 11.5t11.5 4.5h38q9 0 13 -5.5t1 -15.5l-54 -189q-2 -8 -8 -11.5t-13 -2.5l-18 3q-6 1 -9.5 6.5t-2.5 12.5z" />
    <glyph glyph-name="less" unicode="&#x3c;" horiz-adv-x="501" 
d="M91 266q-6 5 -6 13t6 13l285 235q5 4 11.5 3.5t10.5 -5.5l19 -24q9 -11 -3 -21l-242 -201l242 -200q5 -4 6 -10t-2 -10l-21 -27q-4 -4 -10 -4.5t-11 3.5z" />
    <glyph glyph-name="equal" unicode="=" horiz-adv-x="560" 
d="M90 354q-6 0 -10.5 4.5t-4.5 10.5v30q0 6 4.5 10.5t10.5 4.5h380q6 0 10.5 -4.5t4.5 -10.5v-30q0 -6 -4.5 -10.5t-10.5 -4.5h-380zM90 145q-6 0 -10.5 4.5t-4.5 10.5v30q0 6 4.5 10.5t10.5 4.5h380q6 0 10.5 -4.5t4.5 -10.5v-30q0 -6 -4.5 -10.5t-10.5 -4.5h-380z" />
    <glyph glyph-name="greater" unicode="&#x3e;" horiz-adv-x="501" 
d="M83 59q-1 2 -2.5 7.5t6.5 12.5l242 200l-242 201q-12 10 -3 21l19 24q4 5 10.5 5.5t11.5 -3.5l285 -235q6 -5 6 -13t-6 -13l-285 -235q-5 -4 -11 -3.5t-10 4.5z" />
    <glyph glyph-name="question" unicode="?" horiz-adv-x="444" 
d="M195 181q-13 4 -13 23v49q0 31 12.5 62.5t49.5 78t47.5 64.5t16 35t5.5 34q0 45 -28 72t-78 27q-24 0 -53.5 -10t-49.5 -22q-6 -4 -13 -3.5t-10 6.5l-16 29q-3 6 -0.5 12.5t8.5 9.5q68 41 134 41q52 0 90.5 -20.5t60 -56t21.5 -85.5q0 -30 -12.5 -61t-49.5 -76.5t-48 -64
t-16.5 -35.5t-5.5 -35v-73q0 -6 -5 -10t-12 -2zM168 33q0 19 14 32t33 13q18 0 31.5 -13t13.5 -32q0 -18 -13.5 -32t-31.5 -14q-19 0 -33 13.5t-14 32.5z" />
    <glyph glyph-name="at" unicode="@" horiz-adv-x="878" 
d="M73 183q0 125 53.5 229t147 160t206.5 56q73 0 135 -27.5t105.5 -77t67 -115t23.5 -139.5q0 -25 -5 -52h-216l-10 -81q-7 -56 -55.5 -96t-114.5 -40q-29 0 -62 12t-56 42.5t-23 67.5q0 25 8.5 51t29 47t53.5 34.5t79 13.5h100l4 30q4 32 -7 58.5t-32.5 38t-46.5 11.5
q-40 0 -98 -14q-16 -3 -17 12l-2 16q-3 17 12 21q63 17 112 17q73 0 109 -44t27 -116l-4 -30h157q0 44 -13 95t-45 98t-73.5 73t-78.5 34.5t-67 8.5q-91 0 -169.5 -46t-129 -140t-50.5 -205q0 -61 19 -116.5t55.5 -96.5t90 -64.5t117.5 -23.5q51 0 105.5 18t97.5 47
q5 4 11 2.5t9 -7.5l11 -19q7 -12 -6 -21q-63 -42 -119 -56.5t-114 -14.5q-76 0 -138.5 26.5t-105 74t-65 112t-22.5 136.5zM327 129q0 -15 8 -33t30 -31t51 -13q41 0 71.5 24.5t35.5 59.5l10 81h-100q-47 0 -76.5 -22t-29.5 -66z" />
    <glyph glyph-name="A" unicode="A" horiz-adv-x="590" 
d="M41 18l210 643q2 6 8 10.5t12 4.5h48q6 0 12 -4.5t8 -10.5l210 -642q2 -6 -2 -12.5t-10 -6.5h-37q-15 0 -20 15l-57 177h-257l-56 -176q-1 -3 -5.5 -9.5t-14.5 -6.5h-38q-6 0 -9.5 6t-1.5 12zM185 252h219l-79 249q-7 20 -30 104q-12 -48 -30 -104z" />
    <glyph glyph-name="B" unicode="B" horiz-adv-x="562" 
d="M90 15v646q0 6 4.5 10.5t10.5 4.5h184q94 0 148.5 -48.5t54.5 -123.5q0 -46 -24 -85t-66 -63q59 -23 87 -69t28 -97q0 -33 -13 -66t-41 -61.5t-73.5 -45.5t-106.5 -17h-178q-6 0 -10.5 4.5t-4.5 10.5zM158 378h122q63 0 102.5 31t39.5 87q0 53 -34 85t-101 32h-129v-235z
M158 63h124q81 0 123 34t42 93t-38.5 93t-118.5 34h-132v-254z" />
    <glyph glyph-name="C" unicode="C" horiz-adv-x="560" 
d="M70 255v166q0 65 19 116.5t53 85t80.5 50t101.5 16.5q83 0 174 -27q17 -5 14 -19l-7 -33q-1 -3 -4.5 -7.5t-15.5 -1.5q-56 15 -90.5 20t-69.5 5q-41 0 -75.5 -13t-59.5 -38.5t-38.5 -65.5t-13.5 -91v-161q0 -66 20.5 -111t61.5 -70.5t105 -25.5q24 0 59 3.5t97 19.5
q7 2 14.5 1t9.5 -10l6 -28q2 -10 -1.5 -16t-15.5 -9q-90 -24 -170 -24q-55 0 -101.5 16.5t-80.5 50t-53 85t-19 116.5z" />
    <glyph glyph-name="D" unicode="D" horiz-adv-x="621" 
d="M90 15v607q0 7 5 13.5t12 8.5q125 45 214 45q46 0 88.5 -16t74 -47.5t49.5 -77.5t18 -102v-209q0 -116 -59.5 -176.5t-170.5 -60.5h-216q-6 0 -10.5 4.5t-4.5 10.5zM158 63h163q81 0 121.5 43t40.5 134v202q0 87 -45 135.5t-118 48.5q-20 0 -63 -6t-99 -25v-532z" />
    <glyph glyph-name="E" unicode="E" horiz-adv-x="522" 
d="M90 15v646q0 6 4.5 10.5t10.5 4.5h323q6 0 10.5 -4.5t4.5 -10.5v-33q0 -6 -4.5 -10.5t-10.5 -4.5h-270v-242h229q6 0 10 -4.5t3 -10.5l-3 -31q-2 -15 -16 -15h-223v-247h279q6 0 10.5 -4.5t4.5 -10.5v-33q0 -6 -4.5 -10.5t-10.5 -4.5h-332q-6 0 -10.5 4.5t-4.5 10.5z" />
    <glyph glyph-name="F" unicode="F" horiz-adv-x="502" 
d="M90 15v646q0 6 4.5 10.5t10.5 4.5h322q6 0 10.5 -4.5t4.5 -10.5v-33q0 -6 -4.5 -10.5t-10.5 -4.5h-269v-242h221q6 0 10 -4.5t3 -10.5l-3 -30q-1 -6 -6 -11t-11 -5h-214v-295q0 -6 -4.5 -10.5t-10.5 -4.5h-38q-6 0 -10.5 4.5t-4.5 10.5z" />
    <glyph glyph-name="G" unicode="G" horiz-adv-x="602" 
d="M70 255v166q0 65 19 116.5t53 85t80.5 50t101.5 16.5q37 0 74 -5t96 -21q9 -3 12.5 -9t1.5 -12l-7 -28q-2 -6 -7.5 -10t-12.5 -2q-85 24 -156 24q-85 0 -136 -52.5t-51 -154.5v-162q0 -102 51 -154.5t136 -52.5q54 0 136 20v227h-61q-6 0 -10.5 4.5t-4.5 10.5v29
q0 6 4.5 10.5t10.5 4.5h112q6 0 10.5 -4.5t4.5 -10.5v-303q0 -6 -4.5 -12t-10.5 -8q-97 -31 -188 -31q-55 0 -101.5 16.5t-80.5 50t-53 85t-19 116.5z" />
    <glyph glyph-name="H" unicode="H" horiz-adv-x="631" 
d="M90 15v646q0 6 4.5 10.5t10.5 4.5h38q6 0 10.5 -4.5t4.5 -10.5v-285h315v285q0 6 4.5 10.5t10.5 4.5h38q6 0 10.5 -4.5t4.5 -10.5v-646q0 -6 -4.5 -10.5t-10.5 -4.5h-38q-6 0 -10.5 4.5t-4.5 10.5v298h-315v-298q0 -6 -4.5 -10.5t-10.5 -4.5h-38q-6 0 -10.5 4.5
t-4.5 10.5z" />
    <glyph glyph-name="I" unicode="I" horiz-adv-x="248" 
d="M90 15v646q0 6 4.5 10.5t10.5 4.5h38q6 0 10.5 -4.5t4.5 -10.5v-646q0 -6 -4.5 -10.5t-10.5 -4.5h-38q-6 0 -10.5 4.5t-4.5 10.5z" />
    <glyph glyph-name="J" unicode="J" horiz-adv-x="472" 
d="M49 11q-14 5 -10 21l7 28q1 3 5 8.5t14 2.5q26 -8 59.5 -14.5t62.5 -6.5q35 0 61.5 12.5t43.5 35t24.5 54t7.5 63.5v448q0 6 4 10t10 3l41 -4q13 -1 13 -16v-444q0 -104 -54.5 -164.5t-147.5 -60.5q-14 0 -53.5 4t-87.5 20z" />
    <glyph glyph-name="K" unicode="K" horiz-adv-x="579" 
d="M90 15v646q0 6 4.5 10.5t10.5 4.5h38q6 0 10.5 -4.5t4.5 -10.5v-364l266 365q11 14 27 14h34q9 0 12 -6.5t-3 -14.5l-203 -285l238 -348q5 -7 2 -14.5t-11 -7.5h-38q-17 0 -28 16l-204 297l-92 -130v-168q0 -6 -4.5 -10.5t-10.5 -4.5h-38q-6 0 -10.5 4.5t-4.5 10.5z" />
    <glyph glyph-name="L" unicode="L" horiz-adv-x="503" 
d="M90 15v646q0 6 4.5 10.5t10.5 4.5h38q6 0 10.5 -4.5t4.5 -10.5v-598h285q6 0 10.5 -4t3.5 -10l-4 -34q-1 -6 -6 -10.5t-11 -4.5h-331q-6 0 -10.5 4.5t-4.5 10.5z" />
    <glyph glyph-name="M" unicode="M" horiz-adv-x="809" 
d="M57 16l80 644q1 6 6 11t11 5h53q15 0 21 -15l148 -380q15 -39 28 -87q19 62 29 87l148 380q6 15 21 15h53q6 0 11 -5t6 -11l80 -644q1 -6 -3 -11t-10 -5h-37q-6 0 -11 5t-6 11l-62 495q-6 41 -7 84l-29 -84l-137 -360q-6 -16 -21 -16h-49q-15 0 -21 16l-137 360l-30 81
q-5 -75 -6 -81l-62 -495q-1 -6 -6 -11t-11 -5h-37q-6 0 -10 5t-3 11z" />
    <glyph glyph-name="N" unicode="N" horiz-adv-x="624" 
d="M90 15v646q0 6 4.5 10.5t10.5 4.5h25q13 0 22 -15l316 -531q-2 35 -2 95v436q0 6 4.5 10.5t10.5 4.5h38q6 0 10.5 -4.5t4.5 -10.5v-646q0 -6 -4.5 -10.5t-10.5 -4.5h-30q-13 0 -22 15l-313 522q4 -47 4 -96v-426q0 -6 -4.5 -10.5t-10.5 -4.5h-38q-6 0 -10.5 4.5
t-4.5 10.5z" />
    <glyph glyph-name="O" unicode="O" horiz-adv-x="625" 
d="M70 255v164q0 65 18.5 116.5t52 85.5t78 51t94.5 17t94 -17t77.5 -51t52 -85.5t18.5 -116.5v-164q0 -65 -18.5 -116t-52 -84.5t-77.5 -50.5t-94 -17t-94.5 17t-78 50.5t-52 84.5t-18.5 116zM138 258q0 -38 8.5 -75.5t29.5 -67t55 -47.5t82 -18q58 0 96.5 27t58 72
t19.5 109v158q0 65 -19.5 110.5t-58 72.5t-96.5 27q-38 0 -70 -13t-55.5 -39t-36.5 -66t-13 -92v-158z" />
    <glyph glyph-name="P" unicode="P" horiz-adv-x="547" 
d="M90 15v646q0 6 4.5 10.5t10.5 4.5h202q42 0 74 -13.5t57 -35.5t44.5 -61t19.5 -90q0 -40 -14 -76.5t-40 -64t-62.5 -43.5t-78.5 -16h-149v-261q0 -6 -4.5 -10.5t-10.5 -4.5h-38q-6 0 -10.5 4.5t-4.5 10.5zM158 339h149q29 0 58 12.5t48 46.5t19 78t-19 78t-48 46.5
t-58 12.5h-149v-274z" />
    <glyph glyph-name="Q" unicode="Q" horiz-adv-x="626" 
d="M70 255v164q0 65 18.5 116.5t52 85.5t78 51t94.5 17t94.5 -17t77.5 -51t52 -85.5t19 -116.5v-164q0 -99 -41.5 -163.5t-111.5 -89.5l42 -109q6 -16 -7 -25l-29 -21q-6 -4 -13 -1.5t-10 9.5l-50 133l-23 -1q-50 0 -94.5 17t-78 50.5t-52 84.5t-18.5 116zM138 258
q0 -38 8.5 -75.5t29.5 -67t55 -47.5t82 -18q38 0 70 13t55.5 39t36.5 65.5t13 90.5v158q0 52 -13 92t-36.5 66t-55.5 39t-70 13t-70 -13t-55.5 -39t-36.5 -66t-13 -92v-158z" />
    <glyph glyph-name="R" unicode="R" horiz-adv-x="552" 
d="M90 15v646q0 6 4.5 10.5t10.5 4.5h203q42 0 78.5 -15.5t62 -43t39.5 -64.5t14 -77q0 -49 -22 -92.5t-54 -65.5t-63 -30l127 -269q3 -8 -0.5 -13.5t-11.5 -5.5h-40q-15 0 -22 15l-122 266h-136v-266q0 -6 -4.5 -10.5t-10.5 -4.5h-38q-6 0 -10.5 4.5t-4.5 10.5zM158 339
h150q60 0 92.5 39.5t32.5 97.5q0 59 -32.5 98t-92.5 39h-150v-274z" />
    <glyph glyph-name="S" unicode="S" horiz-adv-x="497" 
d="M53 36l6 31q3 16 22 10q86 -27 158 -27q25 0 54.5 9t49 28t27 40.5t7.5 43.5q0 24 -8.5 47.5t-33 46.5t-107 60t-111.5 64.5t-42 58t-13 70.5q0 76 56 123.5t145 47.5q75 0 153 -27q14 -5 10 -19l-9 -32q-4 -14 -20 -9q-79 24 -134 24q-60 0 -95.5 -28t-35.5 -78
q0 -23 8.5 -44.5t32 -42t96.5 -53.5t103 -55.5t45 -45t22.5 -49t7.5 -57.5q0 -21 -5.5 -47t-20 -50t-39.5 -44.5t-63 -32.5t-80 -12q-79 0 -174 29q-15 5 -12 20z" />
    <glyph glyph-name="T" unicode="T" horiz-adv-x="518" 
d="M225 15v598h-175q-6 0 -10.5 4.5t-4.5 10.5v33q0 6 4.5 10.5t10.5 4.5h418q6 0 10.5 -4.5t4.5 -10.5v-33q0 -6 -4.5 -10.5t-10.5 -4.5h-175v-598q0 -6 -4.5 -10.5t-10.5 -4.5h-38q-6 0 -10.5 4.5t-4.5 10.5z" />
    <glyph glyph-name="U" unicode="U" horiz-adv-x="627" 
d="M85 213v448q0 6 4.5 10.5t10.5 4.5h38q6 0 10.5 -4.5t4.5 -10.5v-445q0 -26 8 -54.5t27.5 -53t51.5 -41.5t75 -17q70 0 115 47t45 119v445q0 6 4.5 10.5t10.5 4.5h37q6 0 10.5 -4.5t4.5 -10.5v-448q0 -48 -17.5 -90.5t-49 -72.5t-73 -46.5t-87.5 -16.5q-47 0 -89 16.5
t-73.5 46.5t-49.5 72.5t-18 90.5z" />
    <glyph glyph-name="V" unicode="V" horiz-adv-x="590" 
d="M251 15l-210 643q-2 7 1 12.5t9 5.5h40q14 0 19 -16l155 -485q14 -46 30 -109q12 48 30 109l155 485q5 16 19 16h38q7 0 10.5 -5.5t1.5 -12.5l-210 -643q-2 -6 -8 -10.5t-12 -4.5h-48q-2 0 -9 2.5t-11 12.5z" />
    <glyph glyph-name="W" unicode="W" horiz-adv-x="813" 
d="M166 16l-118 644q-3 16 12 16h38q15 0 18 -17l87 -494q6 -34 11 -93l26 93l121 394q4 13 19 13h53q15 0 19 -13l121 -394l25 -93q6 61 12 93l87 494q1 3 4.5 10t13.5 7h38q6 0 9.5 -4.5t2.5 -11.5l-118 -644q-1 -7 -6.5 -11.5t-11.5 -4.5h-51q-6 0 -12 4.5t-8 11.5
l-128 407q-16 52 -24 87q-9 -41 -23 -87l-128 -407q-1 -3 -5.5 -9.5t-14.5 -6.5h-51q-6 0 -11.5 4.5t-6.5 11.5z" />
    <glyph glyph-name="X" unicode="X" horiz-adv-x="577" 
d="M45 17l204 340l-178 300q-4 7 -1.5 13t9.5 6h41q15 0 24 -15l145 -245l147 245q9 15 22 15h38q7 0 9.5 -5.5t-1.5 -12.5l-178 -297l205 -343q4 -6 1 -12t-9 -6h-42q-15 0 -25 17l-169 285l-172 -287q-9 -15 -25 -15h-36q-6 0 -9 5.5t0 11.5z" />
    <glyph glyph-name="Y" unicode="Y" horiz-adv-x="552" 
d="M242 15v245l-203 398q-3 7 0 12.5t9 5.5h39q7 0 13 -5t9 -11l167 -332l167 332q8 16 22 16h38q8 0 11 -5t-1 -13l-203 -398v-245q0 -6 -4.5 -10.5t-10.5 -4.5h-38q-6 0 -10.5 4.5t-4.5 10.5z" />
    <glyph glyph-name="Z" unicode="Z" horiz-adv-x="542" 
d="M50 15v27q0 6 2.5 14.5t5.5 13.5l331 543h-319q-6 0 -10.5 4.5t-4.5 10.5v33q0 6 4.5 10.5t10.5 4.5h388q6 0 10.5 -4.5t4.5 -10.5v-24q0 -15 -8 -28l-332 -546h344q6 0 10 -4.5t3 -10.5l-5 -33q-1 -6 -6 -10.5t-11 -4.5h-403q-6 0 -10.5 4.5t-4.5 10.5z" />
    <glyph glyph-name="bracketleft" unicode="[" horiz-adv-x="271" 
d="M91 -196v964q0 6 4.5 10.5t10.5 4.5h130q6 0 10.5 -4.5t4.5 -10.5v-32q0 -6 -4.5 -10.5t-10.5 -4.5h-80v-871h80q6 0 10.5 -4.5t4.5 -10.5v-31q0 -6 -4.5 -10.5t-10.5 -4.5h-130q-6 0 -10.5 4.5t-4.5 10.5z" />
    <glyph glyph-name="backslash" unicode="\" horiz-adv-x="365" 
d="M242 -46l-180 761q-1 7 2 12t9 5h31q6 0 12 -5t7 -12l180 -761q1 -7 -2 -12t-9 -5h-31q-6 0 -12 5t-7 12z" />
    <glyph glyph-name="bracketright" unicode="]" horiz-adv-x="271" 
d="M35 -150h80v871h-80q-6 0 -10.5 4.5t-4.5 10.5v32q0 6 4.5 10.5t10.5 4.5h130q6 0 10.5 -4.5t4.5 -10.5v-964q0 -6 -4.5 -10.5t-10.5 -4.5h-130q-6 0 -10.5 4.5t-4.5 10.5v31q0 6 4.5 10.5t10.5 4.5z" />
    <glyph glyph-name="asciicircum" unicode="^" horiz-adv-x="580" 
d="M131 425l-28 13q-14 7 -6 21l151 259q3 6 10 10t14 4h38q15 0 23 -14l151 -259q8 -14 -6 -21l-25 -12q-7 -3 -13 -1.5t-9 6.5l-140 246l-141 -246q-7 -12 -19 -6z" />
    <glyph glyph-name="underscore" unicode="_" horiz-adv-x="500" 
d="M15 -101h470q6 0 10.5 -4.5t4.5 -10.5v-30q0 -6 -4.5 -10.5t-10.5 -4.5h-470q-6 0 -10.5 4.5t-4.5 10.5v30q0 6 4.5 10.5t10.5 4.5z" />
    <glyph glyph-name="grave" unicode="`" horiz-adv-x="382" 
d="M264 594l-165 59q-6 2 -8.5 7.5t0.5 11.5l14 34q6 14 20 8l158 -69q5 -2 8 -8t1 -11l-9 -24q-2 -6 -7.5 -8t-11.5 0z" />
    <glyph glyph-name="a" unicode="a" horiz-adv-x="478" 
d="M50 147q0 72 49 113t130 41h118v35q0 60 -30 93.5t-86 33.5q-49 0 -117 -18q-14 -4 -18 13l-6 24q-2 9 0.5 14t11.5 8q64 20 129 20q84 0 133 -49.5t49 -138.5v-189q0 -24 -9.5 -51t-34.5 -54t-62.5 -41t-73.5 -14q-77 0 -130 47t-53 113zM118 149q0 -30 18.5 -55.5
t45.5 -35.5t51 -10q49 0 81.5 28.5t32.5 70.5v96h-118q-26 0 -53 -9t-42.5 -32t-15.5 -53z" />
    <glyph glyph-name="b" unicode="b" horiz-adv-x="521" 
d="M65 200v509q0 16 13 20l36 11q7 2 12 -1.5t5 -10.5v-246q27 17 62 29.5t71 12.5q60 0 103 -27t66 -74t23 -113v-110q0 -37 -10.5 -75t-35 -68.5t-62.5 -50t-88 -19.5q-39 0 -74.5 14t-62.5 41t-42.5 67.5t-15.5 90.5zM131 205q0 -77 36 -117t93 -40q34 0 65 17t48 54.5
t17 85.5v100q0 42 -10.5 73t-28.5 50t-42.5 27t-49.5 8q-60 0 -128 -44v-214z" />
    <glyph glyph-name="c" unicode="c" horiz-adv-x="469" 
d="M65 211v90q0 41 10 81.5t34.5 72t64.5 50.5t98 19t128 -19q14 -4 11 -20l-5 -27q-1 -7 -6.5 -10t-12.5 -2q-70 17 -114 17q-71 0 -106.5 -41.5t-35.5 -127.5v-76q0 -86 35.5 -128t106.5 -42q47 0 111 15q19 5 22 -11l5 -26q3 -16 -15 -21q-66 -18 -124 -18
q-46 0 -84 13.5t-65.5 41.5t-42.5 71t-15 98z" />
    <glyph glyph-name="d" unicode="d" horiz-adv-x="520" 
d="M65 200v110q0 66 23 113t66 74t103 27q36 0 71 -12.5t61 -29.5v235q0 6 4.5 10.5t10.5 4.5h36q6 0 10.5 -4.5t4.5 -10.5v-517q0 -37 -10.5 -75t-34.5 -68.5t-62 -50t-87 -19.5q-39 0 -75 14t-63 41t-42.5 67.5t-15.5 90.5zM131 205q0 -77 36.5 -117t93.5 -40t92.5 40
t35.5 117v214q-68 44 -127 44q-25 0 -49.5 -8t-43 -27t-28.5 -50t-10 -73v-100z" />
    <glyph glyph-name="e" unicode="e" horiz-adv-x="506" 
d="M65 195v125q0 60 22.5 104.5t65.5 72t102 27.5q49 0 95 -23t71 -67.5t25 -94.5v-87q0 -6 -4.5 -10.5t-10.5 -4.5h-300v-42q0 -74 35.5 -110.5t98.5 -36.5q49 0 119 18q8 2 14 -0.5t7 -8.5l7 -32q3 -14 -14 -19q-67 -19 -133 -19q-90 0 -145 54.5t-55 153.5zM131 295h249
v44q0 40 -20.5 70.5t-50 42t-54.5 11.5q-34 0 -61 -14t-45 -45t-18 -84v-25z" />
    <glyph glyph-name="f" unicode="f" horiz-adv-x="309" 
d="M98 15v443h-54q-6 0 -10.5 4.5t-4.5 10.5v23q0 6 4.5 10.5t10.5 4.5h54v85q0 26 9.5 55.5t34 52t52.5 32t55 9.5q30 0 50 -5q15 -4 12 -19l-6 -29q-3 -15 -17 -12q-20 4 -38 4q-25 0 -46.5 -13t-30.5 -34t-9 -41v-85h120q7 0 10 -5.5t0 -12.5l-8 -21q-5 -14 -20 -14h-102
v-443q0 -6 -4.5 -10.5t-10.5 -4.5h-36q-6 0 -10.5 4.5t-4.5 10.5z" />
    <glyph glyph-name="g" unicode="g" horiz-adv-x="469" 
d="M104 86q0 14 9 29.5t22 25.5q-38 21 -60.5 60t-22.5 88v63q0 76 49.5 124t126.5 48q37 0 71 -13l129 9q3 0 9.5 -1.5t5.5 -11.5l-2 -25q-1 -14 -16 -15l-61 -4q16 -20 27 -49t11 -62v-63q0 -76 -48.5 -123.5t-125.5 -47.5q-20 0 -40 3q-18 -15 -18 -28q0 -10 13 -18.5
t66.5 -20.5t74.5 -18.5t38 -14.5t33 -20t27 -32.5t11 -46.5q0 -44 -26.5 -77t-71 -51t-105.5 -18q-37 0 -84.5 9.5t-94.5 28.5q-7 3 -10 9.5t0 13.5l10 26q6 16 21 10q91 -36 158 -36q66 0 100.5 23.5t34.5 57.5q0 2 -0.5 7t-4.5 16t-24.5 24t-72 24t-66.5 14.5t-30.5 9.5
t-29 14t-23.5 22.5t-10 36.5zM228 179q54 0 81.5 30t27.5 80v63q0 50 -27.5 80.5t-81.5 30.5t-82.5 -31t-28.5 -80v-63q0 -50 28 -80t83 -30z" />
    <glyph glyph-name="h" unicode="h" horiz-adv-x="546" 
d="M85 15v702q0 6 4.5 10.5t10.5 4.5h36q6 0 10.5 -4.5t4.5 -10.5v-235q26 17 61.5 29.5t71.5 12.5q61 0 100.5 -24t60.5 -68.5t21 -110.5v-306q0 -6 -4.5 -10.5t-10.5 -4.5h-36q-6 0 -10.5 4.5t-4.5 10.5v301q0 71 -28 109t-93 38q-61 0 -128 -44v-404q0 -6 -4.5 -10.5
t-10.5 -4.5h-36q-6 0 -10.5 4.5t-4.5 10.5z" />
    <glyph glyph-name="i" unicode="i" horiz-adv-x="236" 
d="M118 608q-19 0 -33 13.5t-14 32.5q0 18 14 31.5t33 13.5t33 -13.5t14 -31.5t-14 -32t-33 -14zM85 15v481q0 6 4.5 10.5t10.5 4.5h36q6 0 10.5 -4.5t4.5 -10.5v-481q0 -6 -4.5 -10.5t-10.5 -4.5h-36q-6 0 -10.5 4.5t-4.5 10.5z" />
    <glyph glyph-name="j" unicode="j" horiz-adv-x="236" 
d="M118 608q-20 0 -34 13.5t-14 32.5t14 32t34 13q18 0 32.5 -13.5t14.5 -31.5t-14.5 -32t-32.5 -14zM85 -207v703q0 6 4.5 10.5t10.5 4.5h36q6 0 10.5 -4.5t4.5 -10.5v-685q0 -13 -10 -16l-42 -13q-6 -1 -10 2t-4 9z" />
    <glyph glyph-name="k" unicode="k" horiz-adv-x="471" 
d="M85 15v702q0 6 4.5 10.5t10.5 4.5h36q6 0 10.5 -4.5t4.5 -10.5v-440l113 41q24 9 36.5 24t20.5 43l30 111q4 15 18 15h34q8 0 11.5 -5t1.5 -13l-32 -116q-12 -44 -29.5 -70.5t-52.5 -39.5l127 -244q5 -9 2 -16t-12 -7h-34q-13 0 -22 16l-119 230l-93 -35v-196
q0 -6 -4.5 -10.5t-10.5 -4.5h-36q-6 0 -10.5 4.5t-4.5 10.5z" />
    <glyph glyph-name="l" unicode="l" horiz-adv-x="236" 
d="M85 15v694q0 16 13 20l36 11q7 2 12 -1.5t5 -9.5v-714q0 -6 -4.5 -10.5t-10.5 -4.5h-36q-6 0 -10.5 4.5t-4.5 10.5z" />
    <glyph glyph-name="m" unicode="m" horiz-adv-x="816" 
d="M80 15v311q0 59 21.5 102.5t62 69.5t96.5 26q51 0 90 -30.5t58 -82.5q19 52 58.5 82.5t89.5 30.5q48 0 91 -22t66 -69.5t23 -106.5v-311q0 -6 -4.5 -10.5t-10.5 -4.5h-36q-6 0 -10.5 4.5t-4.5 10.5v301q0 45 -14 80t-41 51t-59 16q-52 0 -83.5 -42.5t-31.5 -121.5v-284
q0 -6 -4.5 -10.5t-10.5 -4.5h-36q-6 0 -10.5 4.5t-4.5 10.5v284q0 79 -31.5 121.5t-83.5 42.5q-32 0 -59 -16t-41 -51t-14 -80v-301q0 -6 -4.5 -10.5t-10.5 -4.5h-36q-6 0 -10.5 4.5t-4.5 10.5z" />
    <glyph glyph-name="n" unicode="n" horiz-adv-x="540" 
d="M80 15v306q0 35 10 71.5t34 65.5t61 47.5t86 18.5q82 0 135.5 -54t53.5 -149v-306q0 -6 -4.5 -10.5t-10.5 -4.5h-36q-6 0 -10.5 4.5t-4.5 10.5v301q0 44 -15.5 79.5t-45 51.5t-62.5 16q-10 0 -31 -4t-38 -15.5t-28.5 -27t-19.5 -40.5t-8 -60v-301q0 -6 -4.5 -10.5
t-10.5 -4.5h-36q-6 0 -10.5 4.5t-4.5 10.5z" />
    <glyph glyph-name="o" unicode="o" horiz-adv-x="533" 
d="M65 212v88q0 42 10 83t34 72t63 50t94 19q44 0 81 -13.5t64 -41.5t42 -71t15 -99v-87q0 -70 -23 -119t-67.5 -77.5t-111.5 -28.5q-43 0 -80 13.5t-64 41.5t-42 71t-15 99zM131 217q0 -169 135 -169q45 0 75 19t45.5 56t15.5 94v77q0 169 -136 169q-135 0 -135 -169v-77z
" />
    <glyph glyph-name="p" unicode="p" horiz-adv-x="521" 
d="M131 29v-225q0 -6 -4.5 -10.5t-10.5 -4.5h-36q-6 0 -10.5 4.5t-4.5 10.5v507q0 37 10.5 75t35 68.5t62.5 50t87 19.5q39 0 75 -14t63 -41t42.5 -67.5t15.5 -90.5v-110q0 -66 -23 -113t-66 -74t-103 -27q-36 0 -71 12.5t-62 29.5zM131 92q68 -44 128 -44q25 0 46 7
t39 21.5t32 46t14 83.5v100q0 48 -17 85.5t-48 54.5t-65 17q-57 0 -93 -40t-36 -117v-214z" />
    <glyph glyph-name="q" unicode="q" horiz-adv-x="521" 
d="M65 201v110q0 37 10.5 75t35 68.5t62.5 50t88 19.5q39 0 74.5 -14t62.5 -41t42.5 -67.5t15.5 -90.5v-498q0 -7 -3.5 -13t-10.5 -8l-36 -11q-6 -2 -11 2t-5 11v235q-27 -17 -62 -29.5t-71 -12.5q-60 0 -103 27t-66 74t-23 113zM131 206q0 -42 10.5 -73t28.5 -50t42.5 -27
t49.5 -8q60 0 128 44v214q0 77 -35.5 117t-93.5 40q-34 0 -65 -17t-48 -54.5t-17 -85.5v-100z" />
    <glyph glyph-name="r" unicode="r" horiz-adv-x="347" 
d="M80 15v322q0 41 12.5 72t33 54.5t57 42t85.5 18.5l38 -3q21 -3 17 -23l-5 -25q-3 -15 -24 -12l-25 2q-25 0 -54 -11.5t-49 -42.5t-20 -72v-322q0 -6 -4.5 -10.5t-10.5 -4.5h-36q-6 0 -10.5 4.5t-4.5 10.5z" />
    <glyph glyph-name="s" unicode="s" horiz-adv-x="416" 
d="M52 26l6 30q1 7 7 9.5t15 0.5q69 -18 112 -18q47 0 77 23.5t30 59.5q0 17 -7.5 35.5t-28.5 34t-73 37t-77 39.5t-39.5 44.5t-14.5 64.5q0 60 43.5 99t118.5 39q55 0 113 -17q16 -5 12 -19l-9 -31q-4 -14 -21 -9q-51 15 -95 15q-45 0 -69.5 -21.5t-24.5 -55.5
q0 -21 8.5 -35t23 -25.5t80 -39t87 -49.5t31.5 -47t10 -57q0 -42 -22.5 -75.5t-60.5 -52t-92 -18.5q-69 0 -128 19q-6 2 -9.5 8t-2.5 12z" />
    <glyph glyph-name="t" unicode="t" horiz-adv-x="293" 
d="M100 15v443h-51q-15 0 -20 13l-10 24q-3 6 0 11t9 5h72v135q0 15 14 19l31 9q7 2 14 -0.5t7 -11.5v-151h94q6 0 10.5 -4.5t4.5 -10.5v-23q0 -6 -4.5 -10.5t-10.5 -4.5h-94v-443q0 -6 -4.5 -10.5t-10.5 -4.5h-36q-6 0 -10.5 4.5t-4.5 10.5z" />
    <glyph glyph-name="u" unicode="u" horiz-adv-x="540" 
d="M80 190v306q0 6 4.5 10.5t10.5 4.5h36q6 0 10.5 -4.5t4.5 -10.5v-301q0 -26 7 -56t26 -51.5t43 -30.5t48 -9q33 0 60 14.5t45.5 47t18.5 85.5v301q0 6 4.5 10.5t10.5 4.5h36q6 0 10.5 -4.5t4.5 -10.5v-306q0 -35 -10 -71.5t-33.5 -65.5t-60.5 -47.5t-86 -18.5
q-82 0 -136 54t-54 149z" />
    <glyph glyph-name="v" unicode="v" horiz-adv-x="487" 
d="M199 17l-163 477q-2 6 1.5 11.5t9.5 5.5h36q15 0 20 -15l116 -344q1 -3 4.5 -14t10.5 -39t9 -34q15 59 25 87l116 344q5 15 20 15h36q7 0 10.5 -4.5t0.5 -12.5l-163 -476q-6 -18 -21 -18h-47q-15 0 -21 17z" />
    <glyph glyph-name="w" unicode="w" horiz-adv-x="772" 
d="M79 169l-23 327q-1 6 3.5 10.5t10.5 4.5h36q14 0 16 -15l21 -323q4 -55 32 -89.5t73 -34.5q46 0 75.5 35t29.5 91v283q0 6 4.5 10.5t10.5 4.5h35q6 0 10.5 -4.5t4.5 -10.5v-283q0 -56 29.5 -91t75.5 -35q22 0 46 11.5t40.5 42t19.5 70.5l21 323q2 15 16 15h36
q6 0 10.5 -4.5t3.5 -10.5l-23 -328q-6 -84 -51.5 -132.5t-118.5 -48.5q-41 0 -77.5 20t-59.5 55q-23 -35 -60 -55t-78 -20q-72 0 -117.5 49.5t-51.5 132.5z" />
    <glyph glyph-name="x" unicode="x" horiz-adv-x="483" 
d="M43 20l160 244l-148 228q-5 8 -2 13.5t11 5.5h40q13 0 22 -14l115 -180l117 179q10 15 23 15h36q8 0 11 -6t-2 -14l-147 -225l161 -246q5 -7 1.5 -13.5t-11.5 -6.5h-38q-13 0 -23 15l-128 198l-130 -198q-10 -15 -23 -15h-36q-8 0 -11 6t2 14z" />
    <glyph glyph-name="y" unicode="y" horiz-adv-x="479" 
d="M81 176l-44 320q-1 6 3 10.5t10 4.5h37q6 0 11 -4.5t6 -10.5l43 -311q6 -43 21 -71.5t39 -40t51 -11.5h64l54 433q1 6 6 11t11 5h36q6 0 10 -5t3 -11l-87 -691q-1 -6 -6 -10.5t-11 -4.5h-36q-6 0 -10 4.5t-3 10.5l25 196h-57q-152 0 -176 176z" />
    <glyph glyph-name="z" unicode="z" horiz-adv-x="465" 
d="M60 15v30q0 15 8 27l253 379h-240q-6 0 -10.5 4.5t-4.5 10.5v30q0 6 4.5 10.5t10.5 4.5h299q6 0 10.5 -4.5t4.5 -10.5v-32q0 -12 -8 -25l-253 -379h256q6 0 9.5 -5t2.5 -11l-5 -29q-1 -6 -6 -10.5t-11 -4.5h-305q-6 0 -10.5 4.5t-4.5 10.5z" />
    <glyph glyph-name="braceleft" unicode="{" horiz-adv-x="399" 
d="M175 -22v147q0 27 -6.5 53t-21 42.5t-29 23t-40.5 15t-26 22.5v12q0 6 4 11.5t30 13.5t37 14.5t19 13.5t14 17.5t12.5 30t6.5 54.5v145q0 35 10 69.5t36.5 63.5t65.5 42.5t79 14.5q13 0 13 -15v-32q0 -14 -13 -15q-66 -4 -96 -36t-30 -95v-142q0 -55 -20.5 -96.5
t-57.5 -65.5q36 -23 57 -64.5t21 -96.5v-144q0 -62 30.5 -95t96.5 -36q12 0 12 -15v-31q0 -15 -12 -15q-52 2 -97.5 22t-70 64t-24.5 103z" />
    <glyph glyph-name="bar" unicode="|" horiz-adv-x="245" 
d="M90 -185v902q0 6 4.5 10.5t10.5 4.5h35q6 0 10.5 -4.5t4.5 -10.5v-902q0 -6 -4.5 -10.5t-10.5 -4.5h-35q-6 0 -10.5 4.5t-4.5 10.5z" />
    <glyph glyph-name="braceright" unicode="}" horiz-adv-x="398" 
d="M31 -150q66 3 96.5 36t30.5 95v144q0 55 21 96.5t57 64.5q-37 24 -57.5 65.5t-20.5 96.5v142q0 63 -30 95t-96 36q-13 1 -13 15v32q0 15 13 15q40 -1 74.5 -13t60.5 -35t41 -59t15 -83v-145q0 -27 6.5 -53t21 -42.5t29 -23t37.5 -13.5t26 -13.5t3 -9.5v-12q0 -6 -4 -11.5
t-30 -13.5t-37 -14.5t-19 -14t-14 -18t-12.5 -30t-6.5 -54.5v-147q0 -59 -24.5 -103t-70 -64t-97.5 -22q-12 0 -12 15v31q0 15 12 15z" />
    <glyph glyph-name="asciitilde" unicode="~" horiz-adv-x="547" 
d="M105 258l-17 15q-5 4 -6 11.5t4 13.5q23 27 49.5 41t51.5 14q20 0 41.5 -8t49.5 -28l38.5 -27.5t22.5 -11.5t21 -4q14 0 27 6t31 25q4 5 11 6t11 -3l21 -17q11 -11 0 -24q-49 -55 -101 -55q-26 0 -49 10.5t-61.5 39.5t-62.5 29q-32 0 -58 -31q-4 -5 -11.5 -6t-12.5 4z
" />
    <glyph glyph-name="uni00A0" unicode="&#xa0;" horiz-adv-x="250" 
 />
    <glyph glyph-name="exclamdown" unicode="&#xa1;" horiz-adv-x="242" 
d="M120 499q-18 0 -31.5 13t-13.5 32q0 18 13.5 32t31.5 14q19 0 33 -13.5t14 -32.5t-14 -32t-33 -13zM81 -93l9 440q0 6 4.5 10.5t10.5 4.5h30q6 0 10.5 -4.5t4.5 -10.5l8 -420q0 -15 -15 -19l-47 -12q-15 -4 -15 11z" />
    <glyph glyph-name="cent" unicode="&#xa2;" horiz-adv-x="479" 
d="M65 211v90q0 101 47.5 157t130.5 65v97q0 6 4.5 10.5t10.5 4.5h33q6 0 10.5 -4.5t4.5 -10.5v-98q41 -4 93 -17q15 -4 12 -20l-5 -27q-3 -16 -19 -12q-68 17 -114 17q-71 0 -106.5 -41.5t-35.5 -127.5v-76q0 -86 35.5 -128t106.5 -42q51 0 115 16q15 4 18 -11l5 -27
q3 -16 -12 -20q-52 -13 -93 -17v-98q0 -6 -4.5 -10.5t-10.5 -4.5h-33q-6 0 -10.5 4.5t-4.5 10.5v97q-83 9 -130.5 65t-47.5 158z" />
    <glyph glyph-name="sterling" unicode="&#xa3;" horiz-adv-x="480" 
d="M67 15v44q36 46 53.5 94t17.5 92l-2 30h-60q-6 0 -10.5 4.5t-4.5 10.5v27q0 6 4.5 10.5t10.5 4.5h51q-3 13 -12 46.5t-14.5 62t-5.5 56.5q0 34 9.5 68.5t32 62t59.5 44.5t89 17q66 0 127 -22q7 -2 10 -8.5t0 -14.5l-9 -26q-2 -6 -8.5 -9t-14.5 0q-51 17 -100 17
q-63 0 -94 -36t-31 -99q0 -29 5 -57t13.5 -60t10.5 -42h173q6 0 10.5 -4.5t4.5 -10.5v-27q0 -6 -4.5 -10.5t-10.5 -4.5h-163l2 -30q0 -42 -15 -89t-48 -94h267q6 0 10.5 -4.5t4.5 -10.5v-32q0 -6 -4.5 -10.5t-10.5 -4.5h-328q-6 0 -10.5 4.5t-4.5 10.5z" />
    <glyph glyph-name="currency" unicode="&#xa4;" horiz-adv-x="554" 
d="M114 95l-22 22q-11 11 0 22l45 45q-13 19 -20.5 45t-7.5 50t8 50t21 45l-46 47q-11 11 0 22l22 22q11 11 22 0l46 -47q19 13 45 21t50 8t49 -8t45 -21l47 47q11 11 22 0l22 -22q11 -11 0 -22l-47 -47q14 -20 22 -44.5t8 -50.5q0 -24 -8 -50t-21 -45l46 -45q11 -11 0 -22
l-22 -22q-11 -11 -22 0l-46 45q-19 -13 -45 -21t-50 -8q-25 0 -51 8t-45 21l-45 -45q-11 -11 -22 0zM277 170q21 0 46.5 11t44 38.5t18.5 59.5q0 21 -11 46.5t-38.5 44t-59.5 18.5q-21 0 -46.5 -11t-44 -38.5t-18.5 -59.5q0 -21 11 -46.5t38.5 -44t59.5 -18.5z" />
    <glyph glyph-name="yen" unicode="&#xa5;" horiz-adv-x="502" 
d="M94 120q-6 0 -10.5 4.5t-4.5 10.5v27q0 6 4.5 10.5t10.5 4.5h124v72h-124q-6 0 -10.5 4.5t-4.5 10.5v27q0 6 4.5 10.5t10.5 4.5h101l-177 352q-3 7 0 12.5t10 5.5h45q13 0 19 -12l160 -335l157 332q7 15 20 15h45q8 0 11 -5.5t-1 -12.5l-176 -352h102q6 0 10.5 -4.5
t4.5 -10.5v-27q0 -6 -4.5 -10.5t-10.5 -4.5h-124v-72h124q6 0 10.5 -4.5t4.5 -10.5v-27q0 -6 -4.5 -10.5t-10.5 -4.5h-124v-105q0 -6 -4.5 -10.5t-10.5 -4.5h-38q-6 0 -10.5 4.5t-4.5 10.5v105h-124z" />
    <glyph glyph-name="brokenbar" unicode="&#xa6;" horiz-adv-x="245" 
d="M105 387q-6 0 -10.5 4.5t-4.5 10.5v315q0 6 4.5 10.5t10.5 4.5h35q6 0 10.5 -4.5t4.5 -10.5v-315q0 -6 -4.5 -10.5t-10.5 -4.5h-35zM90 123q0 6 4.5 10.5t10.5 4.5h35q6 0 10.5 -4.5t4.5 -10.5v-308q0 -6 -4.5 -10.5t-10.5 -4.5h-35q-6 0 -10.5 4.5t-4.5 10.5v308z" />
    <glyph glyph-name="section" unicode="&#xa7;" horiz-adv-x="547" 
d="M80 -47q1 7 7.5 10t13.5 1q74 -24 141 -24q51 0 85.5 25.5t34.5 73.5q0 22 -8.5 45t-33.5 43t-92.5 48t-93 51.5t-37 51.5t-11.5 64q0 73 55 117q-15 33 -15 73q0 71 50.5 114t130.5 43q14 0 51.5 -4t82.5 -21q13 -5 9 -20l-8 -30q-2 -7 -8 -9t-13 0q-63 21 -114 21
q-53 0 -82 -24.5t-29 -67.5q0 -3 0.5 -10t4.5 -22.5t19.5 -32t34.5 -27t81.5 -37t88 -52.5t36.5 -55.5t11 -68.5q0 -71 -54 -117q14 -31 14 -73q0 -47 -23 -82.5t-66 -57.5t-101 -22q-77 0 -155 26q-6 2 -9.5 8t-2.5 13zM156 344q0 -19 7.5 -39t29 -37.5t90 -46.5t97.5 -55
q22 25 22 63q0 21 -7.5 42.5t-29.5 41.5t-89.5 47.5t-93.5 48.5q-12 -11 -19 -28.5t-7 -36.5z" />
    <glyph glyph-name="dieresis" unicode="&#xa8;" horiz-adv-x="445" 
d="M313 609q-18 0 -32 13.5t-14 31.5q0 19 14 33t32 14q19 0 33 -14t14 -33q0 -18 -14 -31.5t-33 -13.5zM131 609q-18 0 -32 13.5t-14 31.5q0 19 13.5 33t32.5 14t32.5 -14t13.5 -33q0 -18 -14 -31.5t-32 -13.5z" />
    <glyph glyph-name="copyright" unicode="&#xa9;" horiz-adv-x="764" 
d="M70 323q0 69 21 130.5t61.5 107.5t99 71.5t129.5 25.5q72 0 131 -25.5t99.5 -71.5t61.5 -107.5t21 -130.5t-21 -131t-61.5 -107.5t-99.5 -71.5t-131 -26q-71 0 -129.5 26t-99 72t-61.5 107.5t-21 130.5zM126 323q0 -58 17 -109.5t50 -90t81 -60t107 -21.5
q60 0 108.5 21.5t81.5 60t50 90t17 109.5t-17 109.5t-50 89.5t-81.5 59.5t-108.5 21.5q-59 0 -107 -21.5t-81 -59.5t-50 -89.5t-17 -109.5zM247 273v98q0 30 12.5 60t45.5 50.5t73 20.5q44 0 86 -11q14 -4 11 -18l-3 -15q-1 -6 -6.5 -8.5t-12.5 -1.5q-40 9 -74 9
q-37 0 -60 -26t-23 -66v-89q0 -39 23 -63.5t60 -24.5q36 0 76 10q14 4 17 -11l3 -14q3 -15 -11 -19q-42 -11 -86 -11q-25 0 -56.5 11.5t-53 42.5t-21.5 76z" />
    <glyph glyph-name="ordfeminine" unicode="&#xaa;" horiz-adv-x="361" 
d="M182 299q-26 0 -57 11.5t-53 40t-22 63.5q0 50 35.5 79.5t93.5 29.5h75v21q0 39 -19 60.5t-55 21.5q-38 0 -80 -12q-5 -2 -10.5 0.5t-6.5 8.5l-5 22q-3 13 10 17q51 14 92 14q28 0 53.5 -9.5t42 -26t26 -41.5t9.5 -55v-130q0 -22 -13 -49t-45.5 -46.5t-70.5 -19.5z
M182 349q31 0 51.5 19t20.5 46v61h-75q-36 0 -54 -16.5t-18 -43.5t21 -46.5t54 -19.5z" />
    <glyph glyph-name="guillemotleft" unicode="&#xab;" horiz-adv-x="481" 
d="M241 267q-4 5 -4 12t4 12l118 143q4 5 10.5 5.5t11.5 -3.5l24 -20q5 -4 5.5 -10.5t-3.5 -11.5l-96 -115l96 -115q4 -5 4 -11t-5 -10l-25 -20q-5 -4 -11.5 -3.5t-10.5 5.5zM203 125l-118 142q-4 5 -4 12t4 12l118 143q4 5 10.5 5.5t11.5 -3.5l24 -20q5 -4 5.5 -10.5
t-3.5 -11.5l-96 -115l96 -115q4 -5 4 -11t-5 -10l-25 -20q-5 -4 -11.5 -3.5t-10.5 5.5z" />
    <glyph glyph-name="logicalnot" unicode="&#xac;" horiz-adv-x="560" 
d="M90 249q-6 0 -10.5 4.5t-4.5 10.5v31q0 6 4.5 10.5t10.5 4.5h380q6 0 10.5 -4.5t4.5 -10.5v-216q0 -6 -4.5 -10.5t-10.5 -4.5h-31q-6 0 -10.5 4.5t-4.5 10.5v170h-334z" />
    <glyph glyph-name="registered" unicode="&#xae;" horiz-adv-x="764" 
d="M70 323q0 69 21 130.5t61.5 107.5t99 71.5t129.5 25.5q72 0 131 -25.5t99.5 -71.5t61.5 -107.5t21 -130.5t-21 -131t-61.5 -107.5t-99.5 -71.5t-131 -26q-71 0 -129.5 26t-99 72t-61.5 107.5t-21 130.5zM126 323q0 -58 17 -109.5t50 -90t81 -60t107 -21.5
q60 0 108.5 21.5t81.5 60t50 90t17 109.5t-17 109.5t-50 89.5t-81.5 59.5t-108.5 21.5q-59 0 -107 -21.5t-81 -59.5t-50 -89.5t-17 -109.5zM276 163v320q0 6 4.5 10.5t10.5 4.5h96q37 0 63.5 -18t36 -42.5t9.5 -44.5q0 -21 -9 -43t-25 -36t-33 -20l63 -130q3 -6 0 -11
t-10 -5h-20q-14 0 -19 12l-61 127h-57v-124q0 -6 -4.5 -10.5t-10.5 -4.5h-19q-6 0 -10.5 4.5t-4.5 10.5zM325 331h62q28 0 44 18t16 44t-15.5 43t-44.5 17h-62v-122z" />
    <glyph glyph-name="macron" unicode="&#xaf;" horiz-adv-x="433" 
d="M105 628q-6 0 -10.5 4.5t-4.5 10.5v32q0 6 4.5 10.5t10.5 4.5h223q6 0 10.5 -4.5t4.5 -10.5v-32q0 -6 -4.5 -10.5t-10.5 -4.5h-223z" />
    <glyph glyph-name="degree" unicode="&#xb0;" horiz-adv-x="396" 
d="M198 497q-51 0 -87 36.5t-36 88.5q0 49 36.5 85t86.5 36q23 0 51.5 -12.5t50 -43.5t21.5 -67q0 -24 -12.5 -52.5t-43.5 -49.5t-67 -21zM199 556q26 0 44.5 19t18.5 46q0 26 -18.5 44.5t-45.5 18.5q-26 0 -45 -18.5t-19 -44.5q0 -27 19 -46t46 -19z" />
    <glyph glyph-name="plusminus" unicode="&#xb1;" horiz-adv-x="532" 
d="M236 104v144h-146q-6 0 -10.5 4.5t-4.5 10.5v31q0 6 4.5 10.5t10.5 4.5h146v144q0 6 4.5 10.5t10.5 4.5h30q6 0 10.5 -4.5t4.5 -10.5v-144h146q6 0 10.5 -4.5t4.5 -10.5v-31q0 -6 -4.5 -10.5t-10.5 -4.5h-146v-144q0 -6 -4.5 -10.5t-10.5 -4.5h-30q-6 0 -10.5 4.5
t-4.5 10.5zM75 -10q0 6 4.5 10.5t10.5 4.5h352q6 0 10.5 -4.5t4.5 -10.5v-28q0 -6 -4.5 -10.5t-10.5 -4.5h-352q-6 0 -10.5 4.5t-4.5 10.5v28z" />
    <glyph glyph-name="acute" unicode="&#xb4;" horiz-adv-x="382" 
d="M118 594q-14 -5 -19 8l-9 24q-2 6 0.5 11t8.5 8l154 67q18 8 25 -9l12 -29q2 -5 -0.5 -12t-9.5 -10z" />
    <glyph glyph-name="uni00B5" unicode="&#xb5;" horiz-adv-x="545" 
d="M151 29v-225q0 -6 -4.5 -10.5t-10.5 -4.5h-36q-6 0 -10.5 4.5t-4.5 10.5v692q0 6 4.5 10.5t10.5 4.5h36q6 0 10.5 -4.5t4.5 -10.5v-309q0 -34 12 -67t43 -52.5t69 -19.5q33 0 60 14.5t45.5 47t18.5 85.5v301q0 6 4.5 10.5t10.5 4.5h36q6 0 10.5 -4.5t4.5 -10.5v-306
q0 -35 -10 -71.5t-33.5 -65.5t-60.5 -47.5t-86 -18.5q-74 0 -124 42z" />
    <glyph glyph-name="paragraph" unicode="&#xb6;" horiz-adv-x="591" 
d="M284 -105v408h-45q-27 0 -56.5 9.5t-55.5 33t-44 60t-18 83.5q0 37 11.5 67t30 54.5t53 44.5t79.5 20h262q6 0 10.5 -4.5t4.5 -10.5v-765q0 -6 -4.5 -10.5t-10.5 -4.5h-34q-6 0 -10.5 4.5t-4.5 10.5v719h-104v-719q0 -6 -4.5 -10.5t-10.5 -4.5h-34q-6 0 -10.5 4.5
t-4.5 10.5z" />
    <glyph glyph-name="periodcentered" unicode="&#xb7;" horiz-adv-x="277" 
d="M138 233q-18 0 -32 13.5t-14 31.5q0 20 14 34t32 14q20 0 34 -14t14 -34q0 -18 -14 -31.5t-34 -13.5z" />
    <glyph glyph-name="cedilla" unicode="&#xb8;" horiz-adv-x="291" 
d="M154 0h62v-105q0 -55 -33.5 -80.5t-80.5 -25.5q-27 0 -42 3q-3 1 -8.5 4.5t-4.5 12.5l4 28q2 15 18 12l28 -2q57 0 57 55v98z" />
    <glyph glyph-name="ordmasculine" unicode="&#xba;" horiz-adv-x="389" 
d="M194 299q-64 0 -104 40.5t-40 117.5v62q0 77 40 117t104 40q48 0 80 -20t48.5 -54.5t16.5 -83.5v-61q0 -77 -40 -117.5t-105 -40.5zM194 349q40 0 64 27t24 85v53q0 112 -88 112q-40 0 -63.5 -26.5t-23.5 -85.5v-53q0 -112 87 -112z" />
    <glyph glyph-name="guillemotright" unicode="&#xbb;" horiz-adv-x="481" 
d="M232 143q-5 4 -5.5 10.5t3.5 11.5l96 115l-96 115q-4 5 -4 11t5 10l25 20q5 4 11.5 3.5t10.5 -5.5l118 -142q4 -5 4 -12t-4 -12l-118 -143q-4 -5 -10.5 -5.5t-11.5 3.5zM100 123l-24 20q-5 4 -5.5 10.5t3.5 11.5l96 115l-96 115q-4 5 -4 11t5 10l25 20q5 4 11.5 3.5
t10.5 -5.5l118 -142q4 -5 4 -12t-4 -12l-118 -143q-4 -5 -10.5 -5.5t-11.5 3.5z" />
    <glyph glyph-name="questiondown" unicode="&#xbf;" horiz-adv-x="444" 
d="M222 499q-18 0 -31.5 13t-13.5 32q0 18 13.5 32t31.5 14q19 0 33 -13.5t14 -32.5t-14 -32t-33 -13zM58 50q0 30 12.5 61t49.5 76.5t48 64t16.5 35.5t5.5 35v73q0 6 5 10t12 2l35 -11q13 -4 13 -23v-49q0 -31 -12.5 -62.5t-49.5 -78t-47.5 -64.5t-16 -35t-5.5 -34
q0 -45 28 -72t78 -27q24 0 53.5 10t49.5 22q6 4 13 3.5t10 -6.5l16 -29q3 -6 0.5 -12.5t-8.5 -9.5q-68 -41 -134 -41q-52 0 -90.5 20.5t-60 56t-21.5 85.5z" />
    <glyph glyph-name="Agrave" unicode="&#xc0;" horiz-adv-x="590" 
d="M41 18l210 643q2 6 8 10.5t12 4.5h48q6 0 12 -4.5t8 -10.5l210 -642q2 -6 -2 -12.5t-10 -6.5h-37q-15 0 -20 15l-57 177h-257l-56 -176q-1 -3 -5.5 -9.5t-14.5 -6.5h-38q-6 0 -9.5 6t-1.5 12zM185 252h219l-79 249q-7 20 -30 104q-12 -48 -30 -104zM368 744l-165 59
q-6 2 -8.5 7.5t0.5 11.5l14 34q6 14 20 8l158 -69q5 -2 8 -8t1 -11l-9 -24q-2 -6 -7.5 -8t-11.5 0z" />
    <glyph glyph-name="Aacute" unicode="&#xc1;" horiz-adv-x="590" 
d="M41 18l210 643q2 6 8 10.5t12 4.5h48q6 0 12 -4.5t8 -10.5l210 -642q2 -6 -2 -12.5t-10 -6.5h-37q-15 0 -20 15l-57 177h-257l-56 -176q-1 -3 -5.5 -9.5t-14.5 -6.5h-38q-6 0 -9.5 6t-1.5 12zM185 252h219l-79 249q-7 20 -30 104q-12 -48 -30 -104zM222 744q-14 -5 -19 8
l-9 24q-2 6 0.5 11t8.5 8l154 67q18 8 25 -9l12 -29q2 -5 -0.5 -12t-9.5 -10z" />
    <glyph glyph-name="Acircumflex" unicode="&#xc2;" horiz-adv-x="590" 
d="M41 18l210 643q2 6 8 10.5t12 4.5h48q6 0 12 -4.5t8 -10.5l210 -642q2 -6 -2 -12.5t-10 -6.5h-37q-15 0 -20 15l-57 177h-257l-56 -176q-1 -3 -5.5 -9.5t-14.5 -6.5h-38q-6 0 -9.5 6t-1.5 12zM185 252h219l-79 249q-7 20 -30 104q-12 -48 -30 -104zM189 751l-16 27
q-8 13 4 20l105 64q13 8 26 0l104 -63q6 -4 7.5 -9.5t-2.5 -11.5l-15 -26q-4 -6 -9.5 -7.5t-10.5 2.5l-87 60l-86 -59q-5 -4 -11 -3t-9 6z" />
    <glyph glyph-name="Atilde" unicode="&#xc3;" horiz-adv-x="590" 
d="M41 18l210 643q2 6 8 10.5t12 4.5h48q6 0 12 -4.5t8 -10.5l210 -642q2 -6 -2 -12.5t-10 -6.5h-37q-15 0 -20 15l-57 177h-257l-56 -176q-1 -3 -5.5 -9.5t-14.5 -6.5h-38q-6 0 -9.5 6t-1.5 12zM185 252h219l-79 249q-7 20 -30 104q-12 -48 -30 -104zM179 781l-12 13
q-11 11 -4 21q29 44 73 44q17 0 33 -6.5t44 -24.5t42 -18q18 0 35 17q5 5 11 5.5t10 -4.5l13 -13q9 -9 1 -23q-29 -41 -70 -41q-17 0 -33.5 6.5t-44 24t-41.5 17.5q-17 0 -38 -18q-9 -9 -19 0z" />
    <glyph glyph-name="Adieresis" unicode="&#xc4;" horiz-adv-x="590" 
d="M41 18l210 643q2 6 8 10.5t12 4.5h48q6 0 12 -4.5t8 -10.5l210 -642q2 -6 -2 -12.5t-10 -6.5h-37q-15 0 -20 15l-57 177h-257l-56 -176q-1 -3 -5.5 -9.5t-14.5 -6.5h-38q-6 0 -9.5 6t-1.5 12zM185 252h219l-79 249q-7 20 -30 104q-12 -48 -30 -104zM386 759
q-18 0 -32 13.5t-14 31.5q0 19 14 33t32 14q19 0 33 -14t14 -33q0 -18 -14 -31.5t-33 -13.5zM204 759q-18 0 -32 13.5t-14 31.5q0 19 13.5 33t32.5 14t32.5 -14t13.5 -33q0 -18 -14 -31.5t-32 -13.5z" />
    <glyph glyph-name="Aring" unicode="&#xc5;" horiz-adv-x="590" 
d="M41 18l210 643q2 6 8 10.5t12 4.5h48q6 0 12 -4.5t8 -10.5l210 -642q2 -6 -2 -12.5t-10 -6.5h-37q-15 0 -20 15l-57 177h-257l-56 -176q-1 -3 -5.5 -9.5t-14.5 -6.5h-38q-6 0 -9.5 6t-1.5 12zM185 252h219l-79 249q-7 20 -30 104q-12 -48 -30 -104zM296 739
q-35 0 -61 25.5t-26 60.5q0 34 26 59.5t61 25.5q34 0 59.5 -25.5t25.5 -59.5q0 -16 -8.5 -36t-30 -35t-46.5 -15zM296 789q15 0 25 11.5t10 24.5q0 15 -10.5 25.5t-24.5 10.5q-15 0 -25 -10.5t-10 -25.5q0 -13 10 -24.5t25 -11.5z" />
    <glyph glyph-name="AE" unicode="&#xc6;" horiz-adv-x="898" 
d="M45 20l386 641q9 15 24 15h327q16 0 16 -18l1 -28q1 -8 -3 -12.5t-11 -4.5h-256l17 -242h227q8 0 11.5 -5t1.5 -14l-7 -27q-4 -15 -21 -15h-209l18 -247h266q15 0 16 -15l2 -33q1 -7 -3 -11t-11 -4h-319q-14 0 -16 15l-13 177h-265l-105 -178q-8 -14 -24 -14h-39
q-9 0 -12.5 6t1.5 14zM259 252h226l-23 344z" />
    <glyph glyph-name="Ccedilla" unicode="&#xc7;" horiz-adv-x="560" 
d="M70 255v166q0 65 19 116.5t53 85t80.5 50t101.5 16.5q83 0 174 -27q17 -5 14 -19l-7 -33q-1 -3 -4.5 -7.5t-15.5 -1.5q-56 15 -90.5 20t-69.5 5q-41 0 -75.5 -13t-59.5 -38.5t-38.5 -65.5t-13.5 -91v-161q0 -66 20.5 -111t61.5 -70.5t105 -25.5q24 0 59 3.5t97 19.5
q7 2 14.5 1t9.5 -10l6 -28q2 -10 -1.5 -16t-15.5 -9q-66 -18 -129 -23v-93q0 -55 -33.5 -80.5t-80.5 -25.5q-27 0 -42 3q-3 1 -8.5 4.5t-4.5 12.5l4 28q2 15 18 12l28 -2q57 0 57 55v86q-50 3 -93 21t-74.5 51.5t-48.5 83t-17 111.5z" />
    <glyph glyph-name="Egrave" unicode="&#xc8;" horiz-adv-x="522" 
d="M90 15v646q0 6 4.5 10.5t10.5 4.5h323q6 0 10.5 -4.5t4.5 -10.5v-33q0 -6 -4.5 -10.5t-10.5 -4.5h-270v-242h229q6 0 10 -4.5t3 -10.5l-3 -31q-2 -15 -16 -15h-223v-247h279q6 0 10.5 -4.5t4.5 -10.5v-33q0 -6 -4.5 -10.5t-10.5 -4.5h-332q-6 0 -10.5 4.5t-4.5 10.5z
M340 744l-165 59q-6 2 -8.5 7.5t0.5 11.5l14 34q6 14 20 8l158 -69q5 -2 8 -8t1 -11l-9 -24q-2 -6 -7.5 -8t-11.5 0z" />
    <glyph glyph-name="Eacute" unicode="&#xc9;" horiz-adv-x="522" 
d="M90 15v646q0 6 4.5 10.5t10.5 4.5h323q6 0 10.5 -4.5t4.5 -10.5v-33q0 -6 -4.5 -10.5t-10.5 -4.5h-270v-242h229q6 0 10 -4.5t3 -10.5l-3 -31q-2 -15 -16 -15h-223v-247h279q6 0 10.5 -4.5t4.5 -10.5v-33q0 -6 -4.5 -10.5t-10.5 -4.5h-332q-6 0 -10.5 4.5t-4.5 10.5z
M188 744q-14 -5 -19 8l-9 24q-2 6 0.5 11t8.5 8l154 67q18 8 25 -9l12 -29q2 -5 -0.5 -12t-9.5 -10z" />
    <glyph glyph-name="Ecircumflex" unicode="&#xca;" horiz-adv-x="522" 
d="M90 15v646q0 6 4.5 10.5t10.5 4.5h323q6 0 10.5 -4.5t4.5 -10.5v-33q0 -6 -4.5 -10.5t-10.5 -4.5h-270v-242h229q6 0 10 -4.5t3 -10.5l-3 -31q-2 -15 -16 -15h-223v-247h279q6 0 10.5 -4.5t4.5 -10.5v-33q0 -6 -4.5 -10.5t-10.5 -4.5h-332q-6 0 -10.5 4.5t-4.5 10.5z
M155 751l-16 27q-8 13 4 20l105 64q13 8 26 0l104 -63q6 -4 7.5 -9.5t-2.5 -11.5l-15 -26q-4 -6 -9.5 -7.5t-10.5 2.5l-87 60l-86 -59q-5 -4 -11 -3t-9 6z" />
    <glyph glyph-name="Edieresis" unicode="&#xcb;" horiz-adv-x="522" 
d="M90 15v646q0 6 4.5 10.5t10.5 4.5h323q6 0 10.5 -4.5t4.5 -10.5v-33q0 -6 -4.5 -10.5t-10.5 -4.5h-270v-242h229q6 0 10 -4.5t3 -10.5l-3 -31q-2 -15 -16 -15h-223v-247h279q6 0 10.5 -4.5t4.5 -10.5v-33q0 -6 -4.5 -10.5t-10.5 -4.5h-332q-6 0 -10.5 4.5t-4.5 10.5z
M360 759q-18 0 -32 13.5t-14 31.5q0 19 14 33t32 14q19 0 33 -14t14 -33q0 -18 -14 -31.5t-33 -13.5zM178 759q-18 0 -32 13.5t-14 31.5q0 19 13.5 33t32.5 14t32.5 -14t13.5 -33q0 -18 -14 -31.5t-32 -13.5z" />
    <glyph glyph-name="Igrave" unicode="&#xcc;" horiz-adv-x="248" 
d="M90 15v646q0 6 4.5 10.5t10.5 4.5h38q6 0 10.5 -4.5t4.5 -10.5v-646q0 -6 -4.5 -10.5t-10.5 -4.5h-38q-6 0 -10.5 4.5t-4.5 10.5zM197 744l-165 59q-6 2 -8.5 7.5t0.5 11.5l14 34q6 14 20 8l158 -69q5 -2 8 -8t1 -11l-9 -24q-2 -6 -7.5 -8t-11.5 0z" />
    <glyph glyph-name="Iacute" unicode="&#xcd;" horiz-adv-x="248" 
d="M90 15v646q0 6 4.5 10.5t10.5 4.5h38q6 0 10.5 -4.5t4.5 -10.5v-646q0 -6 -4.5 -10.5t-10.5 -4.5h-38q-6 0 -10.5 4.5t-4.5 10.5zM51 744q-14 -5 -19 8l-9 24q-2 6 0.5 11t8.5 8l154 67q18 8 25 -9l12 -29q2 -5 -0.5 -12t-9.5 -10z" />
    <glyph glyph-name="Icircumflex" unicode="&#xce;" horiz-adv-x="248" 
d="M90 15v646q0 6 4.5 10.5t10.5 4.5h38q6 0 10.5 -4.5t4.5 -10.5v-646q0 -6 -4.5 -10.5t-10.5 -4.5h-38q-6 0 -10.5 4.5t-4.5 10.5zM18 751l-16 27q-8 13 4 20l105 64q13 8 26 0l104 -63q6 -4 7.5 -9.5t-2.5 -11.5l-15 -26q-4 -6 -9.5 -7.5t-10.5 2.5l-87 60l-86 -59
q-5 -4 -11 -3t-9 6z" />
    <glyph glyph-name="Idieresis" unicode="&#xcf;" horiz-adv-x="248" 
d="M90 15v646q0 6 4.5 10.5t10.5 4.5h38q6 0 10.5 -4.5t4.5 -10.5v-646q0 -6 -4.5 -10.5t-10.5 -4.5h-38q-6 0 -10.5 4.5t-4.5 10.5zM215 759q-18 0 -32 13.5t-14 31.5q0 19 14 33t32 14q19 0 33 -14t14 -33q0 -18 -14 -31.5t-33 -13.5zM33 759q-18 0 -32 13.5t-14 31.5
q0 19 13.5 33t32.5 14t32.5 -14t13.5 -33q0 -18 -14 -31.5t-32 -13.5z" />
    <glyph glyph-name="Eth" unicode="&#xd0;" horiz-adv-x="621" 
d="M42 317q-6 0 -10.5 4.5t-4.5 10.5v22q0 6 4.5 10.5t10.5 4.5h48v253q0 7 5 13.5t12 8.5q125 45 214 45q46 0 88.5 -16t74 -47.5t49.5 -77.5t18 -102v-209q0 -116 -59.5 -176.5t-170.5 -60.5h-216q-6 0 -10.5 4.5t-4.5 10.5v302h-48zM158 63h163q81 0 121.5 43t40.5 134
v202q0 87 -45 135.5t-118 48.5q-20 0 -63 -6t-99 -25v-226h145q6 0 10.5 -4.5t4.5 -10.5v-22q0 -6 -4.5 -10.5t-10.5 -4.5h-145v-254z" />
    <glyph glyph-name="Ntilde" unicode="&#xd1;" horiz-adv-x="624" 
d="M90 15v646q0 6 4.5 10.5t10.5 4.5h25q13 0 22 -15l316 -531q-2 35 -2 95v436q0 6 4.5 10.5t10.5 4.5h38q6 0 10.5 -4.5t4.5 -10.5v-646q0 -6 -4.5 -10.5t-10.5 -4.5h-30q-13 0 -22 15l-313 522q4 -47 4 -96v-426q0 -6 -4.5 -10.5t-10.5 -4.5h-38q-6 0 -10.5 4.5
t-4.5 10.5zM196 781l-12 13q-11 11 -4 21q29 44 73 44q17 0 33 -6.5t44 -24.5t42 -18q18 0 35 17q5 5 11 5.5t10 -4.5l13 -13q9 -9 1 -23q-29 -41 -70 -41q-17 0 -33.5 6.5t-44 24t-41.5 17.5q-17 0 -38 -18q-9 -9 -19 0z" />
    <glyph glyph-name="Ograve" unicode="&#xd2;" horiz-adv-x="625" 
d="M70 255v164q0 65 18.5 116.5t52 85.5t78 51t94.5 17t94 -17t77.5 -51t52 -85.5t18.5 -116.5v-164q0 -65 -18.5 -116t-52 -84.5t-77.5 -50.5t-94 -17t-94.5 17t-78 50.5t-52 84.5t-18.5 116zM138 258q0 -38 8.5 -75.5t29.5 -67t55 -47.5t82 -18q58 0 96.5 27t58 72
t19.5 109v158q0 65 -19.5 110.5t-58 72.5t-96.5 27q-38 0 -70 -13t-55.5 -39t-36.5 -66t-13 -92v-158zM385 744l-165 59q-6 2 -8.5 7.5t0.5 11.5l14 34q6 14 20 8l158 -69q5 -2 8 -8t1 -11l-9 -24q-2 -6 -7.5 -8t-11.5 0z" />
    <glyph glyph-name="Oacute" unicode="&#xd3;" horiz-adv-x="625" 
d="M70 255v164q0 65 18.5 116.5t52 85.5t78 51t94.5 17t94 -17t77.5 -51t52 -85.5t18.5 -116.5v-164q0 -65 -18.5 -116t-52 -84.5t-77.5 -50.5t-94 -17t-94.5 17t-78 50.5t-52 84.5t-18.5 116zM138 258q0 -38 8.5 -75.5t29.5 -67t55 -47.5t82 -18q58 0 96.5 27t58 72
t19.5 109v158q0 65 -19.5 110.5t-58 72.5t-96.5 27q-38 0 -70 -13t-55.5 -39t-36.5 -66t-13 -92v-158zM239 744q-14 -5 -19 8l-9 24q-2 6 0.5 11t8.5 8l154 67q18 8 25 -9l12 -29q2 -5 -0.5 -12t-9.5 -10z" />
    <glyph glyph-name="Ocircumflex" unicode="&#xd4;" horiz-adv-x="625" 
d="M70 255v164q0 65 18.5 116.5t52 85.5t78 51t94.5 17t94 -17t77.5 -51t52 -85.5t18.5 -116.5v-164q0 -65 -18.5 -116t-52 -84.5t-77.5 -50.5t-94 -17t-94.5 17t-78 50.5t-52 84.5t-18.5 116zM138 258q0 -38 8.5 -75.5t29.5 -67t55 -47.5t82 -18q58 0 96.5 27t58 72
t19.5 109v158q0 65 -19.5 110.5t-58 72.5t-96.5 27q-38 0 -70 -13t-55.5 -39t-36.5 -66t-13 -92v-158zM206 751l-16 27q-8 13 4 20l105 64q13 8 26 0l104 -63q6 -4 7.5 -9.5t-2.5 -11.5l-15 -26q-4 -6 -9.5 -7.5t-10.5 2.5l-87 60l-86 -59q-5 -4 -11 -3t-9 6z" />
    <glyph glyph-name="Otilde" unicode="&#xd5;" horiz-adv-x="625" 
d="M70 255v164q0 65 18.5 116.5t52 85.5t78 51t94.5 17t94 -17t77.5 -51t52 -85.5t18.5 -116.5v-164q0 -65 -18.5 -116t-52 -84.5t-77.5 -50.5t-94 -17t-94.5 17t-78 50.5t-52 84.5t-18.5 116zM138 258q0 -38 8.5 -75.5t29.5 -67t55 -47.5t82 -18q58 0 96.5 27t58 72
t19.5 109v158q0 65 -19.5 110.5t-58 72.5t-96.5 27q-38 0 -70 -13t-55.5 -39t-36.5 -66t-13 -92v-158zM196 781l-12 13q-11 11 -4 21q29 44 73 44q17 0 33 -6.5t44 -24.5t42 -18q18 0 35 17q5 5 11 5.5t10 -4.5l13 -13q9 -9 1 -23q-29 -41 -70 -41q-17 0 -33.5 6.5t-44 24
t-41.5 17.5q-17 0 -38 -18q-9 -9 -19 0z" />
    <glyph glyph-name="Odieresis" unicode="&#xd6;" horiz-adv-x="625" 
d="M70 255v164q0 65 18.5 116.5t52 85.5t78 51t94.5 17t94 -17t77.5 -51t52 -85.5t18.5 -116.5v-164q0 -65 -18.5 -116t-52 -84.5t-77.5 -50.5t-94 -17t-94.5 17t-78 50.5t-52 84.5t-18.5 116zM138 258q0 -38 8.5 -75.5t29.5 -67t55 -47.5t82 -18q58 0 96.5 27t58 72
t19.5 109v158q0 65 -19.5 110.5t-58 72.5t-96.5 27q-38 0 -70 -13t-55.5 -39t-36.5 -66t-13 -92v-158zM404 759q-18 0 -32 13.5t-14 31.5q0 19 14 33t32 14q19 0 33 -14t14 -33q0 -18 -14 -31.5t-33 -13.5zM222 759q-18 0 -32 13.5t-14 31.5q0 19 13.5 33t32.5 14t32.5 -14
t13.5 -33q0 -18 -14 -31.5t-32 -13.5z" />
    <glyph glyph-name="multiply" unicode="&#xd7;" horiz-adv-x="484" 
d="M107 123l-21 21q-11 11 0 22l114 113l-113 114q-11 11 0 22l20 20q11 11 22 0l113 -114l113 115q11 11 22 0l21 -21q11 -11 0 -22l-114 -114l113 -113q11 -11 0 -22l-20 -20q-11 -11 -22 0l-113 113l-113 -114q-11 -11 -22 0z" />
    <glyph glyph-name="Oslash" unicode="&#xd8;" horiz-adv-x="625" 
d="M70 255v164q0 65 18.5 116.5t52 85.5t78 51t94.5 17q30 0 62 -8t57 -21l29 59q3 6 9.5 8.5t12.5 -0.5l27 -13q13 -6 6 -20l-34 -70q34 -34 53.5 -86.5t19.5 -118.5v-164q0 -65 -18.5 -116t-52 -84.5t-77.5 -50.5t-94 -17q-32 0 -66.5 8.5t-60.5 22.5l-30 -62
q-3 -6 -8.5 -8.5t-11.5 0.5l-29 14q-12 6 -6 20l36 75q-31 34 -49 84.5t-18 113.5zM487 416q0 88 -37 143l-235 -482q18 -13 44.5 -20t53.5 -7q58 0 96.5 27t58 72t19.5 109v158zM138 258q0 -81 32 -134l234 478q-39 24 -91 24q-38 0 -70 -13t-55.5 -39t-36.5 -66t-13 -92
v-158z" />
    <glyph glyph-name="Ugrave" unicode="&#xd9;" horiz-adv-x="627" 
d="M85 213v448q0 6 4.5 10.5t10.5 4.5h38q6 0 10.5 -4.5t4.5 -10.5v-445q0 -26 8 -54.5t27.5 -53t51.5 -41.5t75 -17q70 0 115 47t45 119v445q0 6 4.5 10.5t10.5 4.5h37q6 0 10.5 -4.5t4.5 -10.5v-448q0 -48 -17.5 -90.5t-49 -72.5t-73 -46.5t-87.5 -16.5q-47 0 -89 16.5
t-73.5 46.5t-49.5 72.5t-18 90.5zM386 744l-165 59q-6 2 -8.5 7.5t0.5 11.5l14 34q6 14 20 8l158 -69q5 -2 8 -8t1 -11l-9 -24q-2 -6 -7.5 -8t-11.5 0z" />
    <glyph glyph-name="Uacute" unicode="&#xda;" horiz-adv-x="627" 
d="M85 213v448q0 6 4.5 10.5t10.5 4.5h38q6 0 10.5 -4.5t4.5 -10.5v-445q0 -26 8 -54.5t27.5 -53t51.5 -41.5t75 -17q70 0 115 47t45 119v445q0 6 4.5 10.5t10.5 4.5h37q6 0 10.5 -4.5t4.5 -10.5v-448q0 -48 -17.5 -90.5t-49 -72.5t-73 -46.5t-87.5 -16.5q-47 0 -89 16.5
t-73.5 46.5t-49.5 72.5t-18 90.5zM240 744q-14 -5 -19 8l-9 24q-2 6 0.5 11t8.5 8l154 67q18 8 25 -9l12 -29q2 -5 -0.5 -12t-9.5 -10z" />
    <glyph glyph-name="Ucircumflex" unicode="&#xdb;" horiz-adv-x="627" 
d="M85 213v448q0 6 4.5 10.5t10.5 4.5h38q6 0 10.5 -4.5t4.5 -10.5v-445q0 -26 8 -54.5t27.5 -53t51.5 -41.5t75 -17q70 0 115 47t45 119v445q0 6 4.5 10.5t10.5 4.5h37q6 0 10.5 -4.5t4.5 -10.5v-448q0 -48 -17.5 -90.5t-49 -72.5t-73 -46.5t-87.5 -16.5q-47 0 -89 16.5
t-73.5 46.5t-49.5 72.5t-18 90.5zM207 751l-16 27q-8 13 4 20l105 64q13 8 26 0l104 -63q6 -4 7.5 -9.5t-2.5 -11.5l-15 -26q-4 -6 -9.5 -7.5t-10.5 2.5l-87 60l-86 -59q-5 -4 -11 -3t-9 6z" />
    <glyph glyph-name="Udieresis" unicode="&#xdc;" horiz-adv-x="627" 
d="M85 213v448q0 6 4.5 10.5t10.5 4.5h38q6 0 10.5 -4.5t4.5 -10.5v-445q0 -26 8 -54.5t27.5 -53t51.5 -41.5t75 -17q70 0 115 47t45 119v445q0 6 4.5 10.5t10.5 4.5h37q6 0 10.5 -4.5t4.5 -10.5v-448q0 -48 -17.5 -90.5t-49 -72.5t-73 -46.5t-87.5 -16.5q-47 0 -89 16.5
t-73.5 46.5t-49.5 72.5t-18 90.5zM405 759q-18 0 -32 13.5t-14 31.5q0 19 14 33t32 14q19 0 33 -14t14 -33q0 -18 -14 -31.5t-33 -13.5zM223 759q-18 0 -32 13.5t-14 31.5q0 19 13.5 33t32.5 14t32.5 -14t13.5 -33q0 -18 -14 -31.5t-32 -13.5z" />
    <glyph glyph-name="Yacute" unicode="&#xdd;" horiz-adv-x="552" 
d="M242 15v245l-203 398q-3 7 0 12.5t9 5.5h39q7 0 13 -5t9 -11l167 -332l167 332q8 16 22 16h38q8 0 11 -5t-1 -13l-203 -398v-245q0 -6 -4.5 -10.5t-10.5 -4.5h-38q-6 0 -10.5 4.5t-4.5 10.5zM203 744q-14 -5 -19 8l-9 24q-2 6 0.5 11t8.5 8l154 67q18 8 25 -9l12 -29
q2 -5 -0.5 -12t-9.5 -10z" />
    <glyph glyph-name="Thorn" unicode="&#xde;" horiz-adv-x="547" 
d="M90 15v646q0 6 4.5 10.5t10.5 4.5h38q6 0 10.5 -4.5t4.5 -10.5v-118h149q42 0 74 -13.5t57 -35.5t44.5 -61t19.5 -90q0 -40 -14 -76.5t-40 -64t-62.5 -43.5t-78.5 -16h-149v-128q0 -6 -4.5 -10.5t-10.5 -4.5h-38q-6 0 -10.5 4.5t-4.5 10.5zM158 206h149q29 0 58 12.5
t48 46.5t19 78t-19 78t-48 46.5t-58 12.5h-149v-274z" />
    <glyph glyph-name="germandbls" unicode="&#xdf;" horiz-adv-x="585" 
d="M97 15v444h-53q-6 0 -10.5 4.5t-4.5 10.5v22q0 6 4.5 10.5t10.5 4.5h53v71q0 30 9.5 60t34 56t58 36.5t60.5 10.5t57 -9.5t54 -29t38 -50t14 -68.5q0 -18 -5.5 -36t-18.5 -37t-55.5 -60.5t-42.5 -73.5q0 -16 6.5 -30.5t23.5 -28t72 -35.5t74.5 -36.5t31 -28t20 -35.5
t8.5 -54q0 -34 -18.5 -69.5t-59.5 -56t-93 -20.5q-69 0 -126 19q-15 5 -12 20l6 30q1 7 7 9.5t14 0.5q67 -18 111 -18q46 0 74.5 23.5t28.5 59.5q0 17 -7 35t-28 33.5t-71.5 36t-75 38t-38.5 43.5t-14 64q0 29 12 55.5t44 56.5t43 41.5t17 25.5t6 27q0 47 -30 72t-67 25
t-66.5 -25.5t-29.5 -76.5v-567q0 -6 -4.5 -10.5t-10.5 -4.5h-36q-6 0 -10.5 4.5t-4.5 10.5z" />
    <glyph glyph-name="agrave" unicode="&#xe0;" horiz-adv-x="478" 
d="M50 147q0 72 49 113t130 41h118v35q0 60 -30 93.5t-86 33.5q-49 0 -117 -18q-14 -4 -18 13l-6 24q-2 9 0.5 14t11.5 8q64 20 129 20q84 0 133 -49.5t49 -138.5v-189q0 -24 -9.5 -51t-34.5 -54t-62.5 -41t-73.5 -14q-77 0 -130 47t-53 113zM118 149q0 -30 18.5 -55.5
t45.5 -35.5t51 -10q49 0 81.5 28.5t32.5 70.5v96h-118q-26 0 -53 -9t-42.5 -32t-15.5 -53zM304 594l-165 59q-6 2 -8.5 7.5t0.5 11.5l14 34q6 14 20 8l158 -69q5 -2 8 -8t1 -11l-9 -24q-2 -6 -7.5 -8t-11.5 0z" />
    <glyph glyph-name="aacute" unicode="&#xe1;" horiz-adv-x="478" 
d="M50 147q0 72 49 113t130 41h118v35q0 60 -30 93.5t-86 33.5q-49 0 -117 -18q-14 -4 -18 13l-6 24q-2 9 0.5 14t11.5 8q64 20 129 20q84 0 133 -49.5t49 -138.5v-189q0 -24 -9.5 -51t-34.5 -54t-62.5 -41t-73.5 -14q-77 0 -130 47t-53 113zM118 149q0 -30 18.5 -55.5
t45.5 -35.5t51 -10q49 0 81.5 28.5t32.5 70.5v96h-118q-26 0 -53 -9t-42.5 -32t-15.5 -53zM151 594q-14 -5 -19 8l-9 24q-2 6 0.5 11t8.5 8l154 67q18 8 25 -9l12 -29q2 -5 -0.5 -12t-9.5 -10z" />
    <glyph glyph-name="acircumflex" unicode="&#xe2;" horiz-adv-x="478" 
d="M50 147q0 72 49 113t130 41h118v35q0 60 -30 93.5t-86 33.5q-49 0 -117 -18q-14 -4 -18 13l-6 24q-2 9 0.5 14t11.5 8q64 20 129 20q84 0 133 -49.5t49 -138.5v-189q0 -24 -9.5 -51t-34.5 -54t-62.5 -41t-73.5 -14q-77 0 -130 47t-53 113zM118 149q0 -30 18.5 -55.5
t45.5 -35.5t51 -10q49 0 81.5 28.5t32.5 70.5v96h-118q-26 0 -53 -9t-42.5 -32t-15.5 -53zM122 601l-16 27q-8 13 4 20l105 64q13 8 26 0l104 -63q6 -4 7.5 -9.5t-2.5 -11.5l-15 -26q-4 -6 -9.5 -7.5t-10.5 2.5l-87 60l-86 -59q-5 -4 -11 -3t-9 6z" />
    <glyph glyph-name="atilde" unicode="&#xe3;" horiz-adv-x="478" 
d="M50 147q0 72 49 113t130 41h118v35q0 60 -30 93.5t-86 33.5q-49 0 -117 -18q-14 -4 -18 13l-6 24q-2 9 0.5 14t11.5 8q64 20 129 20q84 0 133 -49.5t49 -138.5v-189q0 -24 -9.5 -51t-34.5 -54t-62.5 -41t-73.5 -14q-77 0 -130 47t-53 113zM118 149q0 -30 18.5 -55.5
t45.5 -35.5t51 -10q49 0 81.5 28.5t32.5 70.5v96h-118q-26 0 -53 -9t-42.5 -32t-15.5 -53zM112 631l-12 13q-11 11 -4 21q29 44 73 44q17 0 33 -6.5t44 -24.5t42 -18q18 0 35 17q5 5 11 5.5t10 -4.5l13 -13q9 -9 1 -23q-29 -41 -70 -41q-17 0 -33.5 6.5t-44 24t-41.5 17.5
q-17 0 -38 -18q-9 -9 -19 0z" />
    <glyph glyph-name="adieresis" unicode="&#xe4;" horiz-adv-x="478" 
d="M50 147q0 72 49 113t130 41h118v35q0 60 -30 93.5t-86 33.5q-49 0 -117 -18q-14 -4 -18 13l-6 24q-2 9 0.5 14t11.5 8q64 20 129 20q84 0 133 -49.5t49 -138.5v-189q0 -24 -9.5 -51t-34.5 -54t-62.5 -41t-73.5 -14q-77 0 -130 47t-53 113zM118 149q0 -30 18.5 -55.5
t45.5 -35.5t51 -10q49 0 81.5 28.5t32.5 70.5v96h-118q-26 0 -53 -9t-42.5 -32t-15.5 -53zM314 609q-18 0 -32 13.5t-14 31.5q0 19 14 33t32 14q19 0 33 -14t14 -33q0 -18 -14 -31.5t-33 -13.5zM132 609q-18 0 -32 13.5t-14 31.5q0 19 13.5 33t32.5 14t32.5 -14t13.5 -33
q0 -18 -14 -31.5t-32 -13.5z" />
    <glyph glyph-name="aring" unicode="&#xe5;" horiz-adv-x="478" 
d="M50 147q0 72 49 113t130 41h118v35q0 60 -30 93.5t-86 33.5q-49 0 -117 -18q-14 -4 -18 13l-6 24q-2 9 0.5 14t11.5 8q64 20 129 20q84 0 133 -49.5t49 -138.5v-189q0 -24 -9.5 -51t-34.5 -54t-62.5 -41t-73.5 -14q-77 0 -130 47t-53 113zM118 149q0 -30 18.5 -55.5
t45.5 -35.5t51 -10q49 0 81.5 28.5t32.5 70.5v96h-118q-26 0 -53 -9t-42.5 -32t-15.5 -53zM231 589q-35 0 -61 25.5t-26 60.5q0 34 26 59.5t61 25.5q34 0 59.5 -25.5t25.5 -59.5q0 -16 -8.5 -36t-30 -35t-46.5 -15zM231 639q15 0 25 11.5t10 24.5q0 15 -10.5 25.5
t-24.5 10.5q-15 0 -25 -10.5t-10 -25.5q0 -13 10 -24.5t25 -11.5z" />
    <glyph glyph-name="ae" unicode="&#xe6;" horiz-adv-x="785" 
d="M50 147q0 72 49 113t130 41h118v35q0 60 -30 93.5t-86 33.5q-48 0 -117 -18q-14 -3 -17 11l-7 28q-2 6 1.5 12t10.5 8q64 20 129 20q51 0 90 -20t61 -56q25 37 65 56.5t87 19.5q49 0 95 -23t71 -67.5t25 -94.5v-87q0 -6 -4.5 -10.5t-10.5 -4.5h-300v-42
q0 -74 35.5 -110.5t98.5 -36.5q52 0 122 19q6 2 11.5 -1.5t6.5 -9.5l7 -30q1 -6 -3 -12t-10 -8q-67 -19 -134 -19q-50 0 -90.5 18t-66.5 52q-26 -33 -65.5 -51.5t-88.5 -18.5q-77 0 -130 47t-53 113zM410 295h249v44q0 40 -20.5 70.5t-50 42t-54.5 11.5q-34 0 -61 -14
t-45 -45t-18 -84v-25zM118 149q0 -30 18.5 -55.5t45.5 -35.5t51 -10q34 0 65.5 12t60.5 52q-12 36 -12 83v48h-118q-26 0 -53 -9t-42.5 -32t-15.5 -53z" />
    <glyph glyph-name="ccedilla" unicode="&#xe7;" horiz-adv-x="469" 
d="M65 211v90q0 41 10 81.5t34.5 72t64.5 50.5t98 19t128 -19q14 -4 11 -20l-5 -27q-1 -7 -6.5 -10t-12.5 -2q-70 17 -114 17q-71 0 -106.5 -41.5t-35.5 -127.5v-76q0 -86 35.5 -128t106.5 -42q47 0 111 15q19 5 22 -11l5 -26q3 -16 -15 -21q-44 -12 -92 -16v-94
q0 -55 -33.5 -80.5t-80.5 -25.5q-27 0 -42 3q-3 1 -8.5 4.5t-4.5 12.5l4 28q2 15 18 12l28 -2q57 0 57 55v87q-83 9 -130 64.5t-47 157.5z" />
    <glyph glyph-name="egrave" unicode="&#xe8;" horiz-adv-x="506" 
d="M65 195v125q0 60 22.5 104.5t65.5 72t102 27.5q49 0 95 -23t71 -67.5t25 -94.5v-87q0 -6 -4.5 -10.5t-10.5 -4.5h-300v-42q0 -74 35.5 -110.5t98.5 -36.5q49 0 119 18q8 2 14 -0.5t7 -8.5l7 -32q3 -14 -14 -19q-67 -19 -133 -19q-90 0 -145 54.5t-55 153.5zM131 295h249
v44q0 40 -20.5 70.5t-50 42t-54.5 11.5q-34 0 -61 -14t-45 -45t-18 -84v-25zM326 594l-165 59q-6 2 -8.5 7.5t0.5 11.5l14 34q6 14 20 8l158 -69q5 -2 8 -8t1 -11l-9 -24q-2 -6 -7.5 -8t-11.5 0z" />
    <glyph glyph-name="eacute" unicode="&#xe9;" horiz-adv-x="506" 
d="M65 195v125q0 60 22.5 104.5t65.5 72t102 27.5q49 0 95 -23t71 -67.5t25 -94.5v-87q0 -6 -4.5 -10.5t-10.5 -4.5h-300v-42q0 -74 35.5 -110.5t98.5 -36.5q49 0 119 18q8 2 14 -0.5t7 -8.5l7 -32q3 -14 -14 -19q-67 -19 -133 -19q-90 0 -145 54.5t-55 153.5zM131 295h249
v44q0 40 -20.5 70.5t-50 42t-54.5 11.5q-34 0 -61 -14t-45 -45t-18 -84v-25zM180 594q-14 -5 -19 8l-9 24q-2 6 0.5 11t8.5 8l154 67q18 8 25 -9l12 -29q2 -5 -0.5 -12t-9.5 -10z" />
    <glyph glyph-name="ecircumflex" unicode="&#xea;" horiz-adv-x="506" 
d="M65 195v125q0 60 22.5 104.5t65.5 72t102 27.5q49 0 95 -23t71 -67.5t25 -94.5v-87q0 -6 -4.5 -10.5t-10.5 -4.5h-300v-42q0 -74 35.5 -110.5t98.5 -36.5q49 0 119 18q8 2 14 -0.5t7 -8.5l7 -32q3 -14 -14 -19q-67 -19 -133 -19q-90 0 -145 54.5t-55 153.5zM131 295h249
v44q0 40 -20.5 70.5t-50 42t-54.5 11.5q-34 0 -61 -14t-45 -45t-18 -84v-25zM147 601l-16 27q-8 13 4 20l105 64q13 8 26 0l104 -63q6 -4 7.5 -9.5t-2.5 -11.5l-15 -26q-4 -6 -9.5 -7.5t-10.5 2.5l-87 60l-86 -59q-5 -4 -11 -3t-9 6z" />
    <glyph glyph-name="edieresis" unicode="&#xeb;" horiz-adv-x="506" 
d="M65 195v125q0 60 22.5 104.5t65.5 72t102 27.5q49 0 95 -23t71 -67.5t25 -94.5v-87q0 -6 -4.5 -10.5t-10.5 -4.5h-300v-42q0 -74 35.5 -110.5t98.5 -36.5q49 0 119 18q8 2 14 -0.5t7 -8.5l7 -32q3 -14 -14 -19q-67 -19 -133 -19q-90 0 -145 54.5t-55 153.5zM131 295h249
v44q0 40 -20.5 70.5t-50 42t-54.5 11.5q-34 0 -61 -14t-45 -45t-18 -84v-25zM343 609q-18 0 -32 13.5t-14 31.5q0 19 14 33t32 14q19 0 33 -14t14 -33q0 -18 -14 -31.5t-33 -13.5zM161 609q-18 0 -32 13.5t-14 31.5q0 19 13.5 33t32.5 14t32.5 -14t13.5 -33q0 -18 -14 -31.5
t-32 -13.5z" />
    <glyph glyph-name="igrave" unicode="&#xec;" horiz-adv-x="236" 
d="M85 15v481q0 6 4.5 10.5t10.5 4.5h36q6 0 10.5 -4.5t4.5 -10.5v-481q0 -6 -4.5 -10.5t-10.5 -4.5h-36q-6 0 -10.5 4.5t-4.5 10.5zM193 594l-165 59q-6 2 -8.5 7.5t0.5 11.5l14 34q6 14 20 8l158 -69q5 -2 8 -8t1 -11l-9 -24q-2 -6 -7.5 -8t-11.5 0z" />
    <glyph glyph-name="iacute" unicode="&#xed;" horiz-adv-x="236" 
d="M85 15v481q0 6 4.5 10.5t10.5 4.5h36q6 0 10.5 -4.5t4.5 -10.5v-481q0 -6 -4.5 -10.5t-10.5 -4.5h-36q-6 0 -10.5 4.5t-4.5 10.5zM49 594q-14 -5 -19 8l-9 24q-2 6 0.5 11t8.5 8l154 67q18 8 25 -9l12 -29q2 -5 -0.5 -12t-9.5 -10z" />
    <glyph glyph-name="icircumflex" unicode="&#xee;" horiz-adv-x="236" 
d="M85 15v481q0 6 4.5 10.5t10.5 4.5h36q6 0 10.5 -4.5t4.5 -10.5v-481q0 -6 -4.5 -10.5t-10.5 -4.5h-36q-6 0 -10.5 4.5t-4.5 10.5zM13 601l-16 27q-8 13 4 20l105 64q13 8 26 0l104 -63q6 -4 7.5 -9.5t-2.5 -11.5l-15 -26q-4 -6 -9.5 -7.5t-10.5 2.5l-87 60l-86 -59
q-5 -4 -11 -3t-9 6z" />
    <glyph glyph-name="idieresis" unicode="&#xef;" horiz-adv-x="236" 
d="M85 15v481q0 6 4.5 10.5t10.5 4.5h36q6 0 10.5 -4.5t4.5 -10.5v-481q0 -6 -4.5 -10.5t-10.5 -4.5h-36q-6 0 -10.5 4.5t-4.5 10.5zM209 609q-18 0 -32 13.5t-14 31.5q0 19 14 33t32 14q19 0 33 -14t14 -33q0 -18 -14 -31.5t-33 -13.5zM27 609q-18 0 -32 13.5t-14 31.5
q0 19 13.5 33t32.5 14t32.5 -14t13.5 -33q0 -18 -14 -31.5t-32 -13.5z" />
    <glyph glyph-name="eth" unicode="&#xf0;" horiz-adv-x="533" 
d="M65 212v61q0 42 10 83t34 72t63 50t94 19q77 0 139 -44v65q0 69 -26.5 112t-83.5 50l-34 -92q-2 -6 -7.5 -8.5t-12.5 0.5l-21 8q-6 2 -8 8t1 13l26 72q-45 -3 -94 -17q-7 -2 -13 0.5t-7 9.5l-5 25q-1 7 3 12.5t11 7.5q70 20 126 21l28 76q2 6 8 9.5t13 0.5l21 -8
q6 -2 8 -7.5t0 -11.5l-23 -63q72 -13 112.5 -66.5t40.5 -146.5v-311q0 -70 -23 -119t-67.5 -77.5t-111.5 -28.5q-43 0 -80 13.5t-64 41.5t-42 71t-15 99zM131 217q0 -169 135 -169q45 0 75 19t45.5 56t15.5 94v171q-26 20 -63.5 34t-72.5 14q-135 0 -135 -169v-50z" />
    <glyph glyph-name="ntilde" unicode="&#xf1;" horiz-adv-x="540" 
d="M80 15v306q0 35 10 71.5t34 65.5t61 47.5t86 18.5q82 0 135.5 -54t53.5 -149v-306q0 -6 -4.5 -10.5t-10.5 -4.5h-36q-6 0 -10.5 4.5t-4.5 10.5v301q0 44 -15.5 79.5t-45 51.5t-62.5 16q-10 0 -31 -4t-38 -15.5t-28.5 -27t-19.5 -40.5t-8 -60v-301q0 -6 -4.5 -10.5
t-10.5 -4.5h-36q-6 0 -10.5 4.5t-4.5 10.5zM154 631l-12 13q-11 11 -4 21q29 44 73 44q17 0 33 -6.5t44 -24.5t42 -18q18 0 35 17q5 5 11 5.5t10 -4.5l13 -13q9 -9 1 -23q-29 -41 -70 -41q-17 0 -33.5 6.5t-44 24t-41.5 17.5q-17 0 -38 -18q-9 -9 -19 0z" />
    <glyph glyph-name="ograve" unicode="&#xf2;" horiz-adv-x="533" 
d="M65 212v88q0 42 10 83t34 72t63 50t94 19q44 0 81 -13.5t64 -41.5t42 -71t15 -99v-87q0 -70 -23 -119t-67.5 -77.5t-111.5 -28.5q-43 0 -80 13.5t-64 41.5t-42 71t-15 99zM131 217q0 -169 135 -169q45 0 75 19t45.5 56t15.5 94v77q0 169 -136 169q-135 0 -135 -169v-77z
M339 594l-165 59q-6 2 -8.5 7.5t0.5 11.5l14 34q6 14 20 8l158 -69q5 -2 8 -8t1 -11l-9 -24q-2 -6 -7.5 -8t-11.5 0z" />
    <glyph glyph-name="oacute" unicode="&#xf3;" horiz-adv-x="533" 
d="M65 212v88q0 42 10 83t34 72t63 50t94 19q44 0 81 -13.5t64 -41.5t42 -71t15 -99v-87q0 -70 -23 -119t-67.5 -77.5t-111.5 -28.5q-43 0 -80 13.5t-64 41.5t-42 71t-15 99zM131 217q0 -169 135 -169q45 0 75 19t45.5 56t15.5 94v77q0 169 -136 169q-135 0 -135 -169v-77z
M193 594q-14 -5 -19 8l-9 24q-2 6 0.5 11t8.5 8l154 67q18 8 25 -9l12 -29q2 -5 -0.5 -12t-9.5 -10z" />
    <glyph glyph-name="ocircumflex" unicode="&#xf4;" horiz-adv-x="533" 
d="M65 212v88q0 42 10 83t34 72t63 50t94 19q44 0 81 -13.5t64 -41.5t42 -71t15 -99v-87q0 -70 -23 -119t-67.5 -77.5t-111.5 -28.5q-43 0 -80 13.5t-64 41.5t-42 71t-15 99zM131 217q0 -169 135 -169q45 0 75 19t45.5 56t15.5 94v77q0 169 -136 169q-135 0 -135 -169v-77z
M160 601l-16 27q-8 13 4 20l105 64q13 8 26 0l104 -63q6 -4 7.5 -9.5t-2.5 -11.5l-15 -26q-4 -6 -9.5 -7.5t-10.5 2.5l-87 60l-86 -59q-5 -4 -11 -3t-9 6z" />
    <glyph glyph-name="otilde" unicode="&#xf5;" horiz-adv-x="533" 
d="M65 212v88q0 42 10 83t34 72t63 50t94 19q44 0 81 -13.5t64 -41.5t42 -71t15 -99v-87q0 -70 -23 -119t-67.5 -77.5t-111.5 -28.5q-43 0 -80 13.5t-64 41.5t-42 71t-15 99zM131 217q0 -169 135 -169q45 0 75 19t45.5 56t15.5 94v77q0 169 -136 169q-135 0 -135 -169v-77z
M150 631l-12 13q-11 11 -4 21q29 44 73 44q17 0 33 -6.5t44 -24.5t42 -18q18 0 35 17q5 5 11 5.5t10 -4.5l13 -13q9 -9 1 -23q-29 -41 -70 -41q-17 0 -33.5 6.5t-44 24t-41.5 17.5q-17 0 -38 -18q-9 -9 -19 0z" />
    <glyph glyph-name="odieresis" unicode="&#xf6;" horiz-adv-x="533" 
d="M65 212v88q0 42 10 83t34 72t63 50t94 19q44 0 81 -13.5t64 -41.5t42 -71t15 -99v-87q0 -70 -23 -119t-67.5 -77.5t-111.5 -28.5q-43 0 -80 13.5t-64 41.5t-42 71t-15 99zM131 217q0 -169 135 -169q45 0 75 19t45.5 56t15.5 94v77q0 169 -136 169q-135 0 -135 -169v-77z
M357 609q-18 0 -32 13.5t-14 31.5q0 19 14 33t32 14q19 0 33 -14t14 -33q0 -18 -14 -31.5t-33 -13.5zM175 609q-18 0 -32 13.5t-14 31.5q0 19 13.5 33t32.5 14t32.5 -14t13.5 -33q0 -18 -14 -31.5t-32 -13.5z" />
    <glyph glyph-name="oslash" unicode="&#xf8;" horiz-adv-x="534" 
d="M65 212v88q0 42 10 83t34 72t63 50t94 19q51 0 91 -18l27 55q6 12 21 7l25 -12q11 -6 5 -20l-30 -61q63 -60 63 -176v-87q0 -70 -23 -119t-67.5 -77.5t-111.5 -28.5q-48 0 -90 17l-26 -54q-3 -6 -9 -8.5t-11 0.5l-24 12q-6 2 -8 8t1 13l29 60q-63 60 -63 177zM131 217
q0 -79 28 -119l171 353q-28 12 -64 12q-135 0 -135 -169v-77zM402 294q0 75 -27 118l-171 -352q24 -12 62 -12q45 0 75 19t45.5 56t15.5 94v77z" />
    <glyph glyph-name="ugrave" unicode="&#xf9;" horiz-adv-x="540" 
d="M80 190v306q0 6 4.5 10.5t10.5 4.5h36q6 0 10.5 -4.5t4.5 -10.5v-301q0 -26 7 -56t26 -51.5t43 -30.5t48 -9q33 0 60 14.5t45.5 47t18.5 85.5v301q0 6 4.5 10.5t10.5 4.5h36q6 0 10.5 -4.5t4.5 -10.5v-306q0 -35 -10 -71.5t-33.5 -65.5t-60.5 -47.5t-86 -18.5
q-82 0 -136 54t-54 149zM343 594l-165 59q-6 2 -8.5 7.5t0.5 11.5l14 34q6 14 20 8l158 -69q5 -2 8 -8t1 -11l-9 -24q-2 -6 -7.5 -8t-11.5 0z" />
    <glyph glyph-name="uacute" unicode="&#xfa;" horiz-adv-x="540" 
d="M80 190v306q0 6 4.5 10.5t10.5 4.5h36q6 0 10.5 -4.5t4.5 -10.5v-301q0 -26 7 -56t26 -51.5t43 -30.5t48 -9q33 0 60 14.5t45.5 47t18.5 85.5v301q0 6 4.5 10.5t10.5 4.5h36q6 0 10.5 -4.5t4.5 -10.5v-306q0 -35 -10 -71.5t-33.5 -65.5t-60.5 -47.5t-86 -18.5
q-82 0 -136 54t-54 149zM197 594q-14 -5 -19 8l-9 24q-2 6 0.5 11t8.5 8l154 67q18 8 25 -9l12 -29q2 -5 -0.5 -12t-9.5 -10z" />
    <glyph glyph-name="ucircumflex" unicode="&#xfb;" horiz-adv-x="540" 
d="M80 190v306q0 6 4.5 10.5t10.5 4.5h36q6 0 10.5 -4.5t4.5 -10.5v-301q0 -26 7 -56t26 -51.5t43 -30.5t48 -9q33 0 60 14.5t45.5 47t18.5 85.5v301q0 6 4.5 10.5t10.5 4.5h36q6 0 10.5 -4.5t4.5 -10.5v-306q0 -35 -10 -71.5t-33.5 -65.5t-60.5 -47.5t-86 -18.5
q-82 0 -136 54t-54 149zM164 601l-16 27q-8 13 4 20l105 64q13 8 26 0l104 -63q6 -4 7.5 -9.5t-2.5 -11.5l-15 -26q-4 -6 -9.5 -7.5t-10.5 2.5l-87 60l-86 -59q-5 -4 -11 -3t-9 6z" />
    <glyph glyph-name="udieresis" unicode="&#xfc;" horiz-adv-x="540" 
d="M80 190v306q0 6 4.5 10.5t10.5 4.5h36q6 0 10.5 -4.5t4.5 -10.5v-301q0 -26 7 -56t26 -51.5t43 -30.5t48 -9q33 0 60 14.5t45.5 47t18.5 85.5v301q0 6 4.5 10.5t10.5 4.5h36q6 0 10.5 -4.5t4.5 -10.5v-306q0 -35 -10 -71.5t-33.5 -65.5t-60.5 -47.5t-86 -18.5
q-82 0 -136 54t-54 149zM360 609q-18 0 -32 13.5t-14 31.5q0 19 14 33t32 14q19 0 33 -14t14 -33q0 -18 -14 -31.5t-33 -13.5zM178 609q-18 0 -32 13.5t-14 31.5q0 19 13.5 33t32.5 14t32.5 -14t13.5 -33q0 -18 -14 -31.5t-32 -13.5z" />
    <glyph glyph-name="yacute" unicode="&#xfd;" horiz-adv-x="479" 
d="M81 176l-44 320q-1 6 3 10.5t10 4.5h37q6 0 11 -4.5t6 -10.5l43 -311q6 -43 21 -71.5t39 -40t51 -11.5h64l54 433q1 6 6 11t11 5h36q6 0 10 -5t3 -11l-87 -691q-1 -6 -6 -10.5t-11 -4.5h-36q-6 0 -10 4.5t-3 10.5l25 196h-57q-152 0 -176 176zM166 594q-14 -5 -19 8
l-9 24q-2 6 0.5 11t8.5 8l154 67q18 8 25 -9l12 -29q2 -5 -0.5 -12t-9.5 -10z" />
    <glyph glyph-name="thorn" unicode="&#xfe;" horiz-adv-x="541" 
d="M151 29v-225q0 -6 -4.5 -10.5t-10.5 -4.5h-36q-6 0 -10.5 4.5t-4.5 10.5v913q0 6 4.5 10.5t10.5 4.5h36q6 0 10.5 -4.5t4.5 -10.5v-240q53 47 129 47q39 0 75 -14t63 -41t42.5 -67.5t15.5 -90.5v-110q0 -66 -23 -113t-66 -74t-103 -27q-36 0 -71 12.5t-62 29.5zM151 92
q68 -44 128 -44q25 0 46 7t39 21.5t32 46t14 83.5v100q0 48 -17 85.5t-48 54.5t-65 17q-33 0 -64 -16t-48 -51.5t-17 -81.5v-222z" />
    <glyph glyph-name="ydieresis" unicode="&#xff;" horiz-adv-x="479" 
d="M81 176l-44 320q-1 6 3 10.5t10 4.5h37q6 0 11 -4.5t6 -10.5l43 -311q6 -43 21 -71.5t39 -40t51 -11.5h64l54 433q1 6 6 11t11 5h36q6 0 10 -5t3 -11l-87 -691q-1 -6 -6 -10.5t-11 -4.5h-36q-6 0 -10 4.5t-3 10.5l25 196h-57q-152 0 -176 176zM330 609q-18 0 -32 13.5
t-14 31.5q0 19 14 33t32 14q19 0 33 -14t14 -33q0 -18 -14 -31.5t-33 -13.5zM148 609q-18 0 -32 13.5t-14 31.5q0 19 13.5 33t32.5 14t32.5 -14t13.5 -33q0 -18 -14 -31.5t-32 -13.5z" />
    <glyph glyph-name="Amacron" unicode="&#x100;" horiz-adv-x="590" 
d="M41 18l210 643q2 6 8 10.5t12 4.5h48q6 0 12 -4.5t8 -10.5l210 -642q2 -6 -2 -12.5t-10 -6.5h-37q-15 0 -20 15l-57 177h-257l-56 -176q-1 -3 -5.5 -9.5t-14.5 -6.5h-38q-6 0 -9.5 6t-1.5 12zM185 252h219l-79 249q-7 20 -30 104q-12 -48 -30 -104zM183 778
q-6 0 -10.5 4.5t-4.5 10.5v32q0 6 4.5 10.5t10.5 4.5h223q6 0 10.5 -4.5t4.5 -10.5v-32q0 -6 -4.5 -10.5t-10.5 -4.5h-223z" />
    <glyph glyph-name="amacron" unicode="&#x101;" horiz-adv-x="478" 
d="M50 147q0 72 49 113t130 41h118v35q0 60 -30 93.5t-86 33.5q-49 0 -117 -18q-14 -4 -18 13l-6 24q-2 9 0.5 14t11.5 8q64 20 129 20q84 0 133 -49.5t49 -138.5v-189q0 -24 -9.5 -51t-34.5 -54t-62.5 -41t-73.5 -14q-77 0 -130 47t-53 113zM118 149q0 -30 18.5 -55.5
t45.5 -35.5t51 -10q49 0 81.5 28.5t32.5 70.5v96h-118q-26 0 -53 -9t-42.5 -32t-15.5 -53zM115 628q-6 0 -10.5 4.5t-4.5 10.5v32q0 6 4.5 10.5t10.5 4.5h223q6 0 10.5 -4.5t4.5 -10.5v-32q0 -6 -4.5 -10.5t-10.5 -4.5h-223z" />
    <glyph glyph-name="Abreve" unicode="&#x102;" horiz-adv-x="590" 
d="M41 18l210 643q2 6 8 10.5t12 4.5h48q6 0 12 -4.5t8 -10.5l210 -642q2 -6 -2 -12.5t-10 -6.5h-37q-15 0 -20 15l-57 177h-257l-56 -176q-1 -3 -5.5 -9.5t-14.5 -6.5h-38q-6 0 -9.5 6t-1.5 12zM185 252h219l-79 249q-7 20 -30 104q-12 -48 -30 -104zM295 748
q-34 0 -60.5 17t-38 41.5t-13.5 46.5q0 10 15 10h28q15 0 16 -11q3 -20 17 -34.5t36 -14.5q20 0 34.5 14.5t17.5 34.5q1 11 16 11h28q15 0 14 -11q-2 -31 -20 -57t-43 -36.5t-47 -10.5z" />
    <glyph glyph-name="abreve" unicode="&#x103;" horiz-adv-x="478" 
d="M50 147q0 72 49 113t130 41h118v35q0 60 -30 93.5t-86 33.5q-49 0 -117 -18q-14 -4 -18 13l-6 24q-2 9 0.5 14t11.5 8q64 20 129 20q84 0 133 -49.5t49 -138.5v-189q0 -24 -9.5 -51t-34.5 -54t-62.5 -41t-73.5 -14q-77 0 -130 47t-53 113zM118 149q0 -30 18.5 -55.5
t45.5 -35.5t51 -10q49 0 81.5 28.5t32.5 70.5v96h-118q-26 0 -53 -9t-42.5 -32t-15.5 -53zM223 598q-34 0 -60.5 17t-38 41.5t-13.5 46.5q0 10 15 10h28q15 0 16 -11q3 -20 17 -34.5t36 -14.5q20 0 34.5 14.5t17.5 34.5q1 11 16 11h28q15 0 14 -11q-2 -31 -20 -57t-43 -36.5
t-47 -10.5z" />
    <glyph glyph-name="Aogonek" unicode="&#x104;" horiz-adv-x="590" 
d="M41 18l210 643q2 6 8 10.5t12 4.5h48q6 0 12 -4.5t8 -10.5l211 -646q5 -15 -8 -25q-45 -37 -61.5 -64t-16.5 -54q0 -20 12 -31t30 -11q5 0 21.5 2t19.5 -11l5 -20q1 -8 -5 -15t-40 -9q-32 0 -56 14.5t-33 36t-9 40.5q0 38 21.5 71.5t54.5 60.5l-62 192h-257l-56 -176
q-1 -3 -5.5 -9.5t-14.5 -6.5h-38q-6 0 -9.5 6t-1.5 12zM185 252h219l-79 249q-7 20 -30 104q-12 -48 -30 -104z" />
    <glyph glyph-name="aogonek" unicode="&#x105;" horiz-adv-x="478" 
d="M50 147q0 72 49 113t130 41h118v35q0 60 -30 93.5t-86 33.5q-49 0 -117 -18q-14 -4 -18 13l-6 24q-2 9 0.5 14t11.5 8q64 20 129 20q84 0 133 -49.5t49 -138.5v-189q0 -38 -20 -72.5t-49 -53.5t-54 -26q-50 -39 -67 -68t-17 -55q0 -20 12 -31t30 -11q5 0 21.5 2t19.5 -11
l5 -20q1 -8 -5 -15t-40 -9q-32 0 -56 14.5t-33 36t-9 40.5q0 25 14.5 56.5t51.5 63.5q-44 3 -84.5 25t-61.5 59t-21 75zM118 149q0 -30 18.5 -55.5t45.5 -35.5t51 -10q49 0 81.5 28.5t32.5 70.5v96h-118q-26 0 -53 -9t-42.5 -32t-15.5 -53z" />
    <glyph glyph-name="Cacute" unicode="&#x106;" horiz-adv-x="560" 
d="M70 255v166q0 65 19 116.5t53 85t80.5 50t101.5 16.5q83 0 174 -27q17 -5 14 -19l-7 -33q-1 -3 -4.5 -7.5t-15.5 -1.5q-56 15 -90.5 20t-69.5 5q-41 0 -75.5 -13t-59.5 -38.5t-38.5 -65.5t-13.5 -91v-161q0 -66 20.5 -111t61.5 -70.5t105 -25.5q24 0 59 3.5t97 19.5
q7 2 14.5 1t9.5 -10l6 -28q2 -10 -1.5 -16t-15.5 -9q-90 -24 -170 -24q-55 0 -101.5 16.5t-80.5 50t-53 85t-19 116.5zM237 744q-14 -5 -19 8l-9 24q-2 6 0.5 11t8.5 8l154 67q18 8 25 -9l12 -29q2 -5 -0.5 -12t-9.5 -10z" />
    <glyph glyph-name="cacute" unicode="&#x107;" horiz-adv-x="469" 
d="M65 211v90q0 41 10 81.5t34.5 72t64.5 50.5t98 19t128 -19q14 -4 11 -20l-5 -27q-1 -7 -6.5 -10t-12.5 -2q-70 17 -114 17q-71 0 -106.5 -41.5t-35.5 -127.5v-76q0 -86 35.5 -128t106.5 -42q47 0 111 15q19 5 22 -11l5 -26q3 -16 -15 -21q-66 -18 -124 -18
q-46 0 -84 13.5t-65.5 41.5t-42.5 71t-15 98zM176 594q-14 -5 -19 8l-9 24q-2 6 0.5 11t8.5 8l154 67q18 8 25 -9l12 -29q2 -5 -0.5 -12t-9.5 -10z" />
    <glyph glyph-name="Ccircumflex" unicode="&#x108;" horiz-adv-x="560" 
d="M70 255v166q0 65 19 116.5t53 85t80.5 50t101.5 16.5q83 0 174 -27q17 -5 14 -19l-7 -33q-1 -3 -4.5 -7.5t-15.5 -1.5q-56 15 -90.5 20t-69.5 5q-41 0 -75.5 -13t-59.5 -38.5t-38.5 -65.5t-13.5 -91v-161q0 -66 20.5 -111t61.5 -70.5t105 -25.5q24 0 59 3.5t97 19.5
q7 2 14.5 1t9.5 -10l6 -28q2 -10 -1.5 -16t-15.5 -9q-90 -24 -170 -24q-55 0 -101.5 16.5t-80.5 50t-53 85t-19 116.5zM208 751l-16 27q-8 13 4 20l105 64q13 8 26 0l104 -63q6 -4 7.5 -9.5t-2.5 -11.5l-15 -26q-4 -6 -9.5 -7.5t-10.5 2.5l-87 60l-86 -59q-5 -4 -11 -3t-9 6
z" />
    <glyph glyph-name="ccircumflex" unicode="&#x109;" horiz-adv-x="469" 
d="M65 211v90q0 41 10 81.5t34.5 72t64.5 50.5t98 19t128 -19q14 -4 11 -20l-5 -27q-1 -7 -6.5 -10t-12.5 -2q-70 17 -114 17q-71 0 -106.5 -41.5t-35.5 -127.5v-76q0 -86 35.5 -128t106.5 -42q47 0 111 15q19 5 22 -11l5 -26q3 -16 -15 -21q-66 -18 -124 -18
q-46 0 -84 13.5t-65.5 41.5t-42.5 71t-15 98zM146 601l-16 27q-8 13 4 20l105 64q13 8 26 0l104 -63q6 -4 7.5 -9.5t-2.5 -11.5l-15 -26q-4 -6 -9.5 -7.5t-10.5 2.5l-87 60l-86 -59q-5 -4 -11 -3t-9 6z" />
    <glyph glyph-name="Cdotaccent" unicode="&#x10a;" horiz-adv-x="560" 
d="M70 255v166q0 65 19 116.5t53 85t80.5 50t101.5 16.5q83 0 174 -27q17 -5 14 -19l-7 -33q-1 -3 -4.5 -7.5t-15.5 -1.5q-56 15 -90.5 20t-69.5 5q-41 0 -75.5 -13t-59.5 -38.5t-38.5 -65.5t-13.5 -91v-161q0 -66 20.5 -111t61.5 -70.5t105 -25.5q24 0 59 3.5t97 19.5
q7 2 14.5 1t9.5 -10l6 -28q2 -10 -1.5 -16t-15.5 -9q-90 -24 -170 -24q-55 0 -101.5 16.5t-80.5 50t-53 85t-19 116.5zM307 759q-18 0 -32 13.5t-14 31.5q0 19 14 33t32 14q19 0 33 -14t14 -33q0 -18 -14 -31.5t-33 -13.5z" />
    <glyph glyph-name="cdotaccent" unicode="&#x10b;" horiz-adv-x="469" 
d="M65 211v90q0 41 10 81.5t34.5 72t64.5 50.5t98 19t128 -19q14 -4 11 -20l-5 -27q-1 -7 -6.5 -10t-12.5 -2q-70 17 -114 17q-71 0 -106.5 -41.5t-35.5 -127.5v-76q0 -86 35.5 -128t106.5 -42q47 0 111 15q19 5 22 -11l5 -26q3 -16 -15 -21q-66 -18 -124 -18
q-46 0 -84 13.5t-65.5 41.5t-42.5 71t-15 98zM252 609q-18 0 -32 13.5t-14 31.5q0 19 14 33t32 14q19 0 33 -14t14 -33q0 -18 -14 -31.5t-33 -13.5z" />
    <glyph glyph-name="Ccaron" unicode="&#x10c;" horiz-adv-x="560" 
d="M70 255v166q0 65 19 116.5t53 85t80.5 50t101.5 16.5q83 0 174 -27q17 -5 14 -19l-7 -33q-1 -3 -4.5 -7.5t-15.5 -1.5q-56 15 -90.5 20t-69.5 5q-41 0 -75.5 -13t-59.5 -38.5t-38.5 -65.5t-13.5 -91v-161q0 -66 20.5 -111t61.5 -70.5t105 -25.5q24 0 59 3.5t97 19.5
q7 2 14.5 1t9.5 -10l6 -28q2 -10 -1.5 -16t-15.5 -9q-90 -24 -170 -24q-55 0 -101.5 16.5t-80.5 50t-53 85t-19 116.5zM300 747l-104 63q-6 4 -7.5 9.5t2.5 11.5l15 26q4 6 9.5 7.5t10.5 -2.5l87 -60l86 59q5 4 11 3t9 -6l16 -27q8 -13 -4 -20l-105 -64q-13 -8 -26 0z" />
    <glyph glyph-name="ccaron" unicode="&#x10d;" horiz-adv-x="469" 
d="M65 211v90q0 41 10 81.5t34.5 72t64.5 50.5t98 19t128 -19q14 -4 11 -20l-5 -27q-1 -7 -6.5 -10t-12.5 -2q-70 17 -114 17q-71 0 -106.5 -41.5t-35.5 -127.5v-76q0 -86 35.5 -128t106.5 -42q47 0 111 15q19 5 22 -11l5 -26q3 -16 -15 -21q-66 -18 -124 -18
q-46 0 -84 13.5t-65.5 41.5t-42.5 71t-15 98zM241 597l-104 63q-6 4 -7.5 9.5t2.5 11.5l15 26q4 6 9.5 7.5t10.5 -2.5l87 -60l86 59q5 4 11 3t9 -6l16 -27q8 -13 -4 -20l-105 -64q-13 -8 -26 0z" />
    <glyph glyph-name="Dcaron" unicode="&#x10e;" horiz-adv-x="621" 
d="M90 15v607q0 7 5 13.5t12 8.5q125 45 214 45q46 0 88.5 -16t74 -47.5t49.5 -77.5t18 -102v-209q0 -116 -59.5 -176.5t-170.5 -60.5h-216q-6 0 -10.5 4.5t-4.5 10.5zM158 63h163q81 0 121.5 43t40.5 134v202q0 87 -45 135.5t-118 48.5q-20 0 -63 -6t-99 -25v-532zM297 747
l-104 63q-6 4 -7.5 9.5t2.5 11.5l15 26q4 6 9.5 7.5t10.5 -2.5l87 -60l86 59q5 4 11 3t9 -6l16 -27q8 -13 -4 -20l-105 -64q-13 -8 -26 0z" />
    <glyph glyph-name="dcaron" unicode="&#x10f;" horiz-adv-x="520" 
d="M535 551q-6 0 -10.5 4.5t-4.5 10.5v151q0 6 4.5 11t10.5 6l42 6q6 1 10 -3.5t3 -11.5l-19 -159q-1 -6 -6 -10.5t-11 -4.5h-19zM65 200v110q0 66 23 113t66 74t103 27q36 0 71 -12.5t61 -29.5v235q0 6 4.5 10.5t10.5 4.5h36q6 0 10.5 -4.5t4.5 -10.5v-517q0 -37 -10.5 -75
t-34.5 -68.5t-62 -50t-87 -19.5q-39 0 -75 14t-63 41t-42.5 67.5t-15.5 90.5zM131 205q0 -77 36.5 -117t93.5 -40t92.5 40t35.5 117v214q-68 44 -127 44q-25 0 -49.5 -8t-43 -27t-28.5 -50t-10 -73v-100z" />
    <glyph glyph-name="Dcroat" unicode="&#x110;" horiz-adv-x="621" 
d="M42 317q-6 0 -10.5 4.5t-4.5 10.5v22q0 6 4.5 10.5t10.5 4.5h48v253q0 7 5 13.5t12 8.5q125 45 214 45q46 0 88.5 -16t74 -47.5t49.5 -77.5t18 -102v-209q0 -116 -59.5 -176.5t-170.5 -60.5h-216q-6 0 -10.5 4.5t-4.5 10.5v302h-48zM158 63h163q81 0 121.5 43t40.5 134
v202q0 87 -45 135.5t-118 48.5q-20 0 -63 -6t-99 -25v-226h145q6 0 10.5 -4.5t4.5 -10.5v-22q0 -6 -4.5 -10.5t-10.5 -4.5h-145v-254z" />
    <glyph glyph-name="dcroat" unicode="&#x111;" horiz-adv-x="520" 
d="M286 611q-6 0 -10.5 4.5t-4.5 10.5v22q0 6 4.5 10.5t10.5 4.5h103v54q0 6 4.5 10.5t10.5 4.5h36q6 0 10.5 -4.5t4.5 -10.5v-54h38q6 0 10.5 -4.5t4.5 -10.5v-22q0 -6 -4.5 -10.5t-10.5 -4.5h-38v-411q0 -37 -10.5 -75t-34.5 -68.5t-62 -50t-87 -19.5q-39 0 -75 14t-63 41
t-42.5 67.5t-15.5 90.5v110q0 66 23 113t66 74t103 27q36 0 71 -12.5t61 -29.5v129h-103zM131 205q0 -77 36.5 -117t93.5 -40t92.5 40t35.5 117v214q-68 44 -127 44q-25 0 -49.5 -8t-43 -27t-28.5 -50t-10 -73v-100z" />
    <glyph glyph-name="Emacron" unicode="&#x112;" horiz-adv-x="522" 
d="M90 15v646q0 6 4.5 10.5t10.5 4.5h323q6 0 10.5 -4.5t4.5 -10.5v-33q0 -6 -4.5 -10.5t-10.5 -4.5h-270v-242h229q6 0 10 -4.5t3 -10.5l-3 -31q-2 -15 -16 -15h-223v-247h279q6 0 10.5 -4.5t4.5 -10.5v-33q0 -6 -4.5 -10.5t-10.5 -4.5h-332q-6 0 -10.5 4.5t-4.5 10.5z
M154 778q-6 0 -10.5 4.5t-4.5 10.5v32q0 6 4.5 10.5t10.5 4.5h223q6 0 10.5 -4.5t4.5 -10.5v-32q0 -6 -4.5 -10.5t-10.5 -4.5h-223z" />
    <glyph glyph-name="emacron" unicode="&#x113;" horiz-adv-x="506" 
d="M65 195v125q0 60 22.5 104.5t65.5 72t102 27.5q49 0 95 -23t71 -67.5t25 -94.5v-87q0 -6 -4.5 -10.5t-10.5 -4.5h-300v-42q0 -74 35.5 -110.5t98.5 -36.5q49 0 119 18q8 2 14 -0.5t7 -8.5l7 -32q3 -14 -14 -19q-67 -19 -133 -19q-90 0 -145 54.5t-55 153.5zM131 295h249
v44q0 40 -20.5 70.5t-50 42t-54.5 11.5q-34 0 -61 -14t-45 -45t-18 -84v-25zM141 628q-6 0 -10.5 4.5t-4.5 10.5v32q0 6 4.5 10.5t10.5 4.5h223q6 0 10.5 -4.5t4.5 -10.5v-32q0 -6 -4.5 -10.5t-10.5 -4.5h-223z" />
    <glyph glyph-name="Ebreve" unicode="&#x114;" horiz-adv-x="522" 
d="M90 15v646q0 6 4.5 10.5t10.5 4.5h323q6 0 10.5 -4.5t4.5 -10.5v-33q0 -6 -4.5 -10.5t-10.5 -4.5h-270v-242h229q6 0 10 -4.5t3 -10.5l-3 -31q-2 -15 -16 -15h-223v-247h279q6 0 10.5 -4.5t4.5 -10.5v-33q0 -6 -4.5 -10.5t-10.5 -4.5h-332q-6 0 -10.5 4.5t-4.5 10.5z
M261 748q-34 0 -60.5 17t-38 41.5t-13.5 46.5q0 10 15 10h28q15 0 16 -11q3 -20 17 -34.5t36 -14.5q20 0 34.5 14.5t17.5 34.5q1 11 16 11h28q15 0 14 -11q-2 -31 -20 -57t-43 -36.5t-47 -10.5z" />
    <glyph glyph-name="ebreve" unicode="&#x115;" horiz-adv-x="506" 
d="M65 195v125q0 60 22.5 104.5t65.5 72t102 27.5q49 0 95 -23t71 -67.5t25 -94.5v-87q0 -6 -4.5 -10.5t-10.5 -4.5h-300v-42q0 -74 35.5 -110.5t98.5 -36.5q49 0 119 18q8 2 14 -0.5t7 -8.5l7 -32q3 -14 -14 -19q-67 -19 -133 -19q-90 0 -145 54.5t-55 153.5zM131 295h249
v44q0 40 -20.5 70.5t-50 42t-54.5 11.5q-34 0 -61 -14t-45 -45t-18 -84v-25zM253 598q-34 0 -60.5 17t-38 41.5t-13.5 46.5q0 10 15 10h28q15 0 16 -11q3 -20 17 -34.5t36 -14.5q20 0 34.5 14.5t17.5 34.5q1 11 16 11h28q15 0 14 -11q-2 -31 -20 -57t-43 -36.5t-47 -10.5z
" />
    <glyph glyph-name="Edotaccent" unicode="&#x116;" horiz-adv-x="522" 
d="M90 15v646q0 6 4.5 10.5t10.5 4.5h323q6 0 10.5 -4.5t4.5 -10.5v-33q0 -6 -4.5 -10.5t-10.5 -4.5h-270v-242h229q6 0 10 -4.5t3 -10.5l-3 -31q-2 -15 -16 -15h-223v-247h279q6 0 10.5 -4.5t4.5 -10.5v-33q0 -6 -4.5 -10.5t-10.5 -4.5h-332q-6 0 -10.5 4.5t-4.5 10.5z
M273 759q-18 0 -32 13.5t-14 31.5q0 19 14 33t32 14q19 0 33 -14t14 -33q0 -18 -14 -31.5t-33 -13.5z" />
    <glyph glyph-name="edotaccent" unicode="&#x117;" horiz-adv-x="506" 
d="M65 195v125q0 60 22.5 104.5t65.5 72t102 27.5q49 0 95 -23t71 -67.5t25 -94.5v-87q0 -6 -4.5 -10.5t-10.5 -4.5h-300v-42q0 -74 35.5 -110.5t98.5 -36.5q49 0 119 18q8 2 14 -0.5t7 -8.5l7 -32q3 -14 -14 -19q-67 -19 -133 -19q-90 0 -145 54.5t-55 153.5zM131 295h249
v44q0 40 -20.5 70.5t-50 42t-54.5 11.5q-34 0 -61 -14t-45 -45t-18 -84v-25zM252 609q-18 0 -32 13.5t-14 31.5q0 19 14 33t32 14q19 0 33 -14t14 -33q0 -18 -14 -31.5t-33 -13.5z" />
    <glyph glyph-name="Eogonek" unicode="&#x118;" horiz-adv-x="522" 
d="M105 0q-6 0 -10.5 4.5t-4.5 10.5v646q0 6 4.5 10.5t10.5 4.5h323q6 0 10.5 -4.5t4.5 -10.5v-33q0 -6 -4.5 -10.5t-10.5 -4.5h-270v-242h229q6 0 10 -4.5t3 -10.5l-3 -31q-2 -15 -16 -15h-223v-247h279q6 0 10.5 -4.5t4.5 -10.5v-33q0 -15 -13 -25q-45 -36 -61.5 -63.5
t-16.5 -54.5q0 -20 12 -31t30 -11q5 0 21.5 2t19.5 -11l5 -20q1 -8 -5 -15t-40 -9q-32 0 -56 14.5t-33 36t-9 40.5t8 43t27 48t42 41h-278z" />
    <glyph glyph-name="eogonek" unicode="&#x119;" horiz-adv-x="506" 
d="M65 195v125q0 60 22.5 104.5t65.5 72t102 27.5q49 0 95 -23t71 -67.5t25 -94.5v-87q0 -6 -4.5 -10.5t-10.5 -4.5h-300v-42q0 -74 35.5 -110.5t98.5 -36.5q49 0 119 18q8 2 14 -0.5t7 -8.5l6 -28q4 -19 -10 -30q-80 -65 -80 -127q0 -20 12 -31t30 -11q5 0 21.5 2t19.5 -11
l5 -20q1 -8 -5 -15t-40 -9q-32 0 -56 14.5t-33 36t-9 40.5q0 34 18.5 66.5t45.5 57.5q-35 -5 -65 -5q-90 0 -145 54.5t-55 153.5zM131 295h249v44q0 40 -20.5 70.5t-50 42t-54.5 11.5q-34 0 -61 -14t-45 -45t-18 -84v-25z" />
    <glyph glyph-name="Ecaron" unicode="&#x11a;" horiz-adv-x="522" 
d="M90 15v646q0 6 4.5 10.5t10.5 4.5h323q6 0 10.5 -4.5t4.5 -10.5v-33q0 -6 -4.5 -10.5t-10.5 -4.5h-270v-242h229q6 0 10 -4.5t3 -10.5l-3 -31q-2 -15 -16 -15h-223v-247h279q6 0 10.5 -4.5t4.5 -10.5v-33q0 -6 -4.5 -10.5t-10.5 -4.5h-332q-6 0 -10.5 4.5t-4.5 10.5z
M261 747l-104 63q-6 4 -7.5 9.5t2.5 11.5l15 26q4 6 9.5 7.5t10.5 -2.5l87 -60l86 59q5 4 11 3t9 -6l16 -27q8 -13 -4 -20l-105 -64q-13 -8 -26 0z" />
    <glyph glyph-name="ecaron" unicode="&#x11b;" horiz-adv-x="506" 
d="M65 195v125q0 60 22.5 104.5t65.5 72t102 27.5q49 0 95 -23t71 -67.5t25 -94.5v-87q0 -6 -4.5 -10.5t-10.5 -4.5h-300v-42q0 -74 35.5 -110.5t98.5 -36.5q49 0 119 18q8 2 14 -0.5t7 -8.5l7 -32q3 -14 -14 -19q-67 -19 -133 -19q-90 0 -145 54.5t-55 153.5zM131 295h249
v44q0 40 -20.5 70.5t-50 42t-54.5 11.5q-34 0 -61 -14t-45 -45t-18 -84v-25zM240 597l-104 63q-6 4 -7.5 9.5t2.5 11.5l15 26q4 6 9.5 7.5t10.5 -2.5l87 -60l86 59q5 4 11 3t9 -6l16 -27q8 -13 -4 -20l-105 -64q-13 -8 -26 0z" />
    <glyph glyph-name="Gcircumflex" unicode="&#x11c;" horiz-adv-x="602" 
d="M70 255v166q0 65 19 116.5t53 85t80.5 50t101.5 16.5q37 0 74 -5t96 -21q9 -3 12.5 -9t1.5 -12l-7 -28q-2 -6 -7.5 -10t-12.5 -2q-85 24 -156 24q-85 0 -136 -52.5t-51 -154.5v-162q0 -102 51 -154.5t136 -52.5q54 0 136 20v227h-61q-6 0 -10.5 4.5t-4.5 10.5v29
q0 6 4.5 10.5t10.5 4.5h112q6 0 10.5 -4.5t4.5 -10.5v-303q0 -6 -4.5 -12t-10.5 -8q-97 -31 -188 -31q-55 0 -101.5 16.5t-80.5 50t-53 85t-19 116.5zM206 751l-16 27q-8 13 4 20l105 64q13 8 26 0l104 -63q6 -4 7.5 -9.5t-2.5 -11.5l-15 -26q-4 -6 -9.5 -7.5t-10.5 2.5
l-87 60l-86 -59q-5 -4 -11 -3t-9 6z" />
    <glyph glyph-name="gcircumflex" unicode="&#x11d;" horiz-adv-x="469" 
d="M104 86q0 14 9 29.5t22 25.5q-38 21 -60.5 60t-22.5 88v63q0 76 49.5 124t126.5 48q37 0 71 -13l129 9q3 0 9.5 -1.5t5.5 -11.5l-2 -25q-1 -14 -16 -15l-61 -4q16 -20 27 -49t11 -62v-63q0 -76 -48.5 -123.5t-125.5 -47.5q-20 0 -40 3q-18 -15 -18 -28q0 -10 13 -18.5
t66.5 -20.5t74.5 -18.5t38 -14.5t33 -20t27 -32.5t11 -46.5q0 -44 -26.5 -77t-71 -51t-105.5 -18q-37 0 -84.5 9.5t-94.5 28.5q-7 3 -10 9.5t0 13.5l10 26q6 16 21 10q91 -36 158 -36q66 0 100.5 23.5t34.5 57.5q0 2 -0.5 7t-4.5 16t-24.5 24t-72 24t-66.5 14.5t-30.5 9.5
t-29 14t-23.5 22.5t-10 36.5zM228 179q54 0 81.5 30t27.5 80v63q0 50 -27.5 80.5t-81.5 30.5t-82.5 -31t-28.5 -80v-63q0 -50 28 -80t83 -30zM119 601l-16 27q-8 13 4 20l105 64q13 8 26 0l104 -63q6 -4 7.5 -9.5t-2.5 -11.5l-15 -26q-4 -6 -9.5 -7.5t-10.5 2.5l-87 60
l-86 -59q-5 -4 -11 -3t-9 6z" />
    <glyph glyph-name="Gbreve" unicode="&#x11e;" horiz-adv-x="602" 
d="M70 255v166q0 65 19 116.5t53 85t80.5 50t101.5 16.5q37 0 74 -5t96 -21q9 -3 12.5 -9t1.5 -12l-7 -28q-2 -6 -7.5 -10t-12.5 -2q-85 24 -156 24q-85 0 -136 -52.5t-51 -154.5v-162q0 -102 51 -154.5t136 -52.5q54 0 136 20v227h-61q-6 0 -10.5 4.5t-4.5 10.5v29
q0 6 4.5 10.5t10.5 4.5h112q6 0 10.5 -4.5t4.5 -10.5v-303q0 -6 -4.5 -12t-10.5 -8q-97 -31 -188 -31q-55 0 -101.5 16.5t-80.5 50t-53 85t-19 116.5zM313 748q-34 0 -60.5 17t-38 41.5t-13.5 46.5q0 10 15 10h28q15 0 16 -11q3 -20 17 -34.5t36 -14.5q20 0 34.5 14.5
t17.5 34.5q1 11 16 11h28q15 0 14 -11q-2 -31 -20 -57t-43 -36.5t-47 -10.5z" />
    <glyph glyph-name="gbreve" unicode="&#x11f;" horiz-adv-x="469" 
d="M104 86q0 14 9 29.5t22 25.5q-38 21 -60.5 60t-22.5 88v63q0 76 49.5 124t126.5 48q37 0 71 -13l129 9q3 0 9.5 -1.5t5.5 -11.5l-2 -25q-1 -14 -16 -15l-61 -4q16 -20 27 -49t11 -62v-63q0 -76 -48.5 -123.5t-125.5 -47.5q-20 0 -40 3q-18 -15 -18 -28q0 -10 13 -18.5
t66.5 -20.5t74.5 -18.5t38 -14.5t33 -20t27 -32.5t11 -46.5q0 -44 -26.5 -77t-71 -51t-105.5 -18q-37 0 -84.5 9.5t-94.5 28.5q-7 3 -10 9.5t0 13.5l10 26q6 16 21 10q91 -36 158 -36q66 0 100.5 23.5t34.5 57.5q0 2 -0.5 7t-4.5 16t-24.5 24t-72 24t-66.5 14.5t-30.5 9.5
t-29 14t-23.5 22.5t-10 36.5zM228 179q54 0 81.5 30t27.5 80v63q0 50 -27.5 80.5t-81.5 30.5t-82.5 -31t-28.5 -80v-63q0 -50 28 -80t83 -30zM223 598q-34 0 -60.5 17t-38 41.5t-13.5 46.5q0 10 15 10h28q15 0 16 -11q3 -20 17 -34.5t36 -14.5q20 0 34.5 14.5t17.5 34.5
q1 11 16 11h28q15 0 14 -11q-2 -31 -20 -57t-43 -36.5t-47 -10.5z" />
    <glyph glyph-name="Gdotaccent" unicode="&#x120;" horiz-adv-x="602" 
d="M70 255v166q0 65 19 116.5t53 85t80.5 50t101.5 16.5q37 0 74 -5t96 -21q9 -3 12.5 -9t1.5 -12l-7 -28q-2 -6 -7.5 -10t-12.5 -2q-85 24 -156 24q-85 0 -136 -52.5t-51 -154.5v-162q0 -102 51 -154.5t136 -52.5q54 0 136 20v227h-61q-6 0 -10.5 4.5t-4.5 10.5v29
q0 6 4.5 10.5t10.5 4.5h112q6 0 10.5 -4.5t4.5 -10.5v-303q0 -6 -4.5 -12t-10.5 -8q-97 -31 -188 -31q-55 0 -101.5 16.5t-80.5 50t-53 85t-19 116.5zM307 759q-18 0 -32 13.5t-14 31.5q0 19 14 33t32 14q19 0 33 -14t14 -33q0 -18 -14 -31.5t-33 -13.5z" />
    <glyph glyph-name="gdotaccent" unicode="&#x121;" horiz-adv-x="469" 
d="M104 86q0 14 9 29.5t22 25.5q-38 21 -60.5 60t-22.5 88v63q0 76 49.5 124t126.5 48q37 0 71 -13l129 9q3 0 9.5 -1.5t5.5 -11.5l-2 -25q-1 -14 -16 -15l-61 -4q16 -20 27 -49t11 -62v-63q0 -76 -48.5 -123.5t-125.5 -47.5q-20 0 -40 3q-18 -15 -18 -28q0 -10 13 -18.5
t66.5 -20.5t74.5 -18.5t38 -14.5t33 -20t27 -32.5t11 -46.5q0 -44 -26.5 -77t-71 -51t-105.5 -18q-37 0 -84.5 9.5t-94.5 28.5q-7 3 -10 9.5t0 13.5l10 26q6 16 21 10q91 -36 158 -36q66 0 100.5 23.5t34.5 57.5q0 2 -0.5 7t-4.5 16t-24.5 24t-72 24t-66.5 14.5t-30.5 9.5
t-29 14t-23.5 22.5t-10 36.5zM228 179q54 0 81.5 30t27.5 80v63q0 50 -27.5 80.5t-81.5 30.5t-82.5 -31t-28.5 -80v-63q0 -50 28 -80t83 -30zM219 609q-18 0 -32 13.5t-14 31.5q0 19 14 33t32 14q19 0 33 -14t14 -33q0 -18 -14 -31.5t-33 -13.5z" />
    <glyph glyph-name="Gcommaaccent" unicode="&#x122;" horiz-adv-x="602" 
d="M70 255v166q0 65 19 116.5t53 85t80.5 50t101.5 16.5q37 0 74 -5t96 -21q9 -3 12.5 -9t1.5 -12l-7 -28q-2 -6 -7.5 -10t-12.5 -2q-85 24 -156 24q-85 0 -136 -52.5t-51 -154.5v-162q0 -102 51 -154.5t136 -52.5q54 0 136 20v227h-61q-6 0 -10.5 4.5t-4.5 10.5v29
q0 6 4.5 10.5t10.5 4.5h112q6 0 10.5 -4.5t4.5 -10.5v-303q0 -6 -4.5 -12t-10.5 -8q-97 -31 -188 -31q-55 0 -101.5 16.5t-80.5 50t-53 85t-19 116.5zM284 -224h-20q-6 0 -9.5 4t-2.5 11l25 128q3 16 18 16h35q8 0 12 -5t1 -14l-41 -127q-4 -13 -18 -13z" />
    <glyph glyph-name="gcommaaccent" unicode="&#x123;" horiz-adv-x="469" 
d="M214 582q-6 0 -9.5 4.5t-2.5 10.5l25 129q1 6 6.5 10.5t11.5 4.5h39q6 0 9 -4t1 -10l-41 -131q-2 -6 -8 -10t-12 -4h-19zM104 86q0 14 9 29.5t22 25.5q-38 21 -60.5 60t-22.5 88v63q0 76 49.5 124t126.5 48q37 0 71 -13l129 9q3 0 9.5 -1.5t5.5 -11.5l-2 -25
q-1 -14 -16 -15l-61 -4q16 -20 27 -49t11 -62v-63q0 -76 -48.5 -123.5t-125.5 -47.5q-20 0 -40 3q-18 -15 -18 -28q0 -10 13 -18.5t66.5 -20.5t74.5 -18.5t38 -14.5t33 -20t27 -32.5t11 -46.5q0 -44 -26.5 -77t-71 -51t-105.5 -18q-37 0 -84.5 9.5t-94.5 28.5q-7 3 -10 9.5
t0 13.5l10 26q6 16 21 10q91 -36 158 -36q66 0 100.5 23.5t34.5 57.5q0 2 -0.5 7t-4.5 16t-24.5 24t-72 24t-66.5 14.5t-30.5 9.5t-29 14t-23.5 22.5t-10 36.5zM228 179q54 0 81.5 30t27.5 80v63q0 50 -27.5 80.5t-81.5 30.5t-82.5 -31t-28.5 -80v-63q0 -50 28 -80t83 -30z
" />
    <glyph glyph-name="Hcircumflex" unicode="&#x124;" horiz-adv-x="631" 
d="M90 15v646q0 6 4.5 10.5t10.5 4.5h38q6 0 10.5 -4.5t4.5 -10.5v-285h315v285q0 6 4.5 10.5t10.5 4.5h38q6 0 10.5 -4.5t4.5 -10.5v-646q0 -6 -4.5 -10.5t-10.5 -4.5h-38q-6 0 -10.5 4.5t-4.5 10.5v298h-315v-298q0 -6 -4.5 -10.5t-10.5 -4.5h-38q-6 0 -10.5 4.5
t-4.5 10.5zM209 751l-16 27q-8 13 4 20l105 64q13 8 26 0l104 -63q6 -4 7.5 -9.5t-2.5 -11.5l-15 -26q-4 -6 -9.5 -7.5t-10.5 2.5l-87 60l-86 -59q-5 -4 -11 -3t-9 6z" />
    <glyph glyph-name="hcircumflex" unicode="&#x125;" horiz-adv-x="546" 
d="M85 15v702q0 6 4.5 10.5t10.5 4.5h36q6 0 10.5 -4.5t4.5 -10.5v-235q26 17 61.5 29.5t71.5 12.5q61 0 100.5 -24t60.5 -68.5t21 -110.5v-306q0 -6 -4.5 -10.5t-10.5 -4.5h-36q-6 0 -10.5 4.5t-4.5 10.5v301q0 71 -28 109t-93 38q-61 0 -128 -44v-404q0 -6 -4.5 -10.5
t-10.5 -4.5h-36q-6 0 -10.5 4.5t-4.5 10.5zM10 744l-16 27q-8 13 4 20l105 64q13 8 26 0l104 -63q6 -4 7.5 -9.5t-2.5 -11.5l-15 -26q-4 -6 -9.5 -7.5t-10.5 2.5l-87 60l-86 -59q-5 -4 -11 -3t-9 6z" />
    <glyph glyph-name="Hbar" unicode="&#x126;" horiz-adv-x="631" 
d="M50 495q-6 0 -10.5 4.5t-4.5 10.5v22q0 6 4.5 10.5t10.5 4.5h40v114q0 6 4.5 10.5t10.5 4.5h38q6 0 10.5 -4.5t4.5 -10.5v-114h315v114q0 6 4.5 10.5t10.5 4.5h38q6 0 10.5 -4.5t4.5 -10.5v-114h40q6 0 10.5 -4.5t4.5 -10.5v-22q0 -6 -4.5 -10.5t-10.5 -4.5h-40v-480
q0 -6 -4.5 -10.5t-10.5 -4.5h-38q-6 0 -10.5 4.5t-4.5 10.5v298h-315v-298q0 -6 -4.5 -10.5t-10.5 -4.5h-38q-6 0 -10.5 4.5t-4.5 10.5v480h-40zM158 376h315v119h-315v-119z" />
    <glyph glyph-name="hbar" unicode="&#x127;" horiz-adv-x="546" 
d="M49 611q-6 0 -10.5 4.5t-4.5 10.5v22q0 6 4.5 10.5t10.5 4.5h36v54q0 6 4.5 10.5t10.5 4.5h36q6 0 10.5 -4.5t4.5 -10.5v-54h105q6 0 10.5 -4.5t4.5 -10.5v-22q0 -6 -4.5 -10.5t-10.5 -4.5h-105v-129q26 17 61.5 29.5t71.5 12.5q61 0 100.5 -24t60.5 -68.5t21 -110.5
v-306q0 -6 -4.5 -10.5t-10.5 -4.5h-36q-6 0 -10.5 4.5t-4.5 10.5v301q0 71 -28 109t-93 38q-61 0 -128 -44v-404q0 -6 -4.5 -10.5t-10.5 -4.5h-36q-6 0 -10.5 4.5t-4.5 10.5v596h-36z" />
    <glyph glyph-name="Itilde" unicode="&#x128;" horiz-adv-x="248" 
d="M90 15v646q0 6 4.5 10.5t10.5 4.5h38q6 0 10.5 -4.5t4.5 -10.5v-646q0 -6 -4.5 -10.5t-10.5 -4.5h-38q-6 0 -10.5 4.5t-4.5 10.5zM8 781l-12 13q-11 11 -4 21q29 44 73 44q17 0 33 -6.5t44 -24.5t42 -18q18 0 35 17q5 5 11 5.5t10 -4.5l13 -13q9 -9 1 -23
q-29 -41 -70 -41q-17 0 -33.5 6.5t-44 24t-41.5 17.5q-17 0 -38 -18q-9 -9 -19 0z" />
    <glyph glyph-name="itilde" unicode="&#x129;" horiz-adv-x="236" 
d="M85 15v481q0 6 4.5 10.5t10.5 4.5h36q6 0 10.5 -4.5t4.5 -10.5v-481q0 -6 -4.5 -10.5t-10.5 -4.5h-36q-6 0 -10.5 4.5t-4.5 10.5zM3 631l-12 13q-11 11 -4 21q29 44 73 44q17 0 33 -6.5t44 -24.5t42 -18q18 0 35 17q5 5 11 5.5t10 -4.5l13 -13q9 -9 1 -23
q-29 -41 -70 -41q-17 0 -33.5 6.5t-44 24t-41.5 17.5q-17 0 -38 -18q-9 -9 -19 0z" />
    <glyph glyph-name="Imacron" unicode="&#x12a;" horiz-adv-x="248" 
d="M90 15v646q0 6 4.5 10.5t10.5 4.5h38q6 0 10.5 -4.5t4.5 -10.5v-646q0 -6 -4.5 -10.5t-10.5 -4.5h-38q-6 0 -10.5 4.5t-4.5 10.5zM13 778q-6 0 -10.5 4.5t-4.5 10.5v32q0 6 4.5 10.5t10.5 4.5h223q6 0 10.5 -4.5t4.5 -10.5v-32q0 -6 -4.5 -10.5t-10.5 -4.5h-223z" />
    <glyph glyph-name="imacron" unicode="&#x12b;" horiz-adv-x="236" 
d="M85 15v481q0 6 4.5 10.5t10.5 4.5h36q6 0 10.5 -4.5t4.5 -10.5v-481q0 -6 -4.5 -10.5t-10.5 -4.5h-36q-6 0 -10.5 4.5t-4.5 10.5zM7 628q-6 0 -10.5 4.5t-4.5 10.5v32q0 6 4.5 10.5t10.5 4.5h223q6 0 10.5 -4.5t4.5 -10.5v-32q0 -6 -4.5 -10.5t-10.5 -4.5h-223z" />
    <glyph glyph-name="Ibreve" unicode="&#x12c;" horiz-adv-x="248" 
d="M90 15v646q0 6 4.5 10.5t10.5 4.5h38q6 0 10.5 -4.5t4.5 -10.5v-646q0 -6 -4.5 -10.5t-10.5 -4.5h-38q-6 0 -10.5 4.5t-4.5 10.5zM125 762q-34 0 -60.5 17t-38 41.5t-13.5 46.5q0 10 15 10h28q15 0 16 -11q3 -20 17 -34.5t36 -14.5q20 0 34.5 14.5t17.5 34.5q1 11 16 11
h28q15 0 14 -11q-2 -31 -20 -57t-43 -36.5t-47 -10.5z" />
    <glyph glyph-name="ibreve" unicode="&#x12d;" horiz-adv-x="236" 
d="M85 15v481q0 6 4.5 10.5t10.5 4.5h36q6 0 10.5 -4.5t4.5 -10.5v-481q0 -6 -4.5 -10.5t-10.5 -4.5h-36q-6 0 -10.5 4.5t-4.5 10.5zM119 598q-34 0 -60.5 17t-38 41.5t-13.5 46.5q0 10 15 10h28q15 0 16 -11q3 -20 17 -34.5t36 -14.5q20 0 34.5 14.5t17.5 34.5q1 11 16 11
h28q15 0 14 -11q-2 -31 -20 -57t-43 -36.5t-47 -10.5z" />
    <glyph glyph-name="Iogonek" unicode="&#x12e;" horiz-adv-x="248" 
d="M90 3v658q0 6 4.5 10.5t10.5 4.5h38q6 0 10.5 -4.5t4.5 -10.5v-646q0 -15 -9 -22q-83 -63 -83 -121q0 -20 12 -31t30 -11q5 0 21.5 2t19.5 -11l5 -20q1 -8 -5 -15t-40 -9q-32 0 -56 14.5t-33 36t-9 40.5q0 38 23 74.5t56 60.5z" />
    <glyph glyph-name="iogonek" unicode="&#x12f;" horiz-adv-x="236" 
d="M118 608q-19 0 -33 13.5t-14 32.5q0 18 14 31.5t33 13.5t33 -13.5t14 -31.5t-14 -32t-33 -14zM85 3v493q0 6 4.5 10.5t10.5 4.5h36q6 0 10.5 -4.5t4.5 -10.5v-481q0 -15 -10 -23q-46 -36 -63.5 -64.5t-17.5 -55.5q0 -20 12 -31t30 -11q5 0 21.5 2t19.5 -11l5 -20
q1 -8 -5 -15t-40 -9q-32 0 -56 14.5t-33 36t-9 40.5q0 30 18 65t62 70z" />
    <glyph glyph-name="Idotaccent" unicode="&#x130;" horiz-adv-x="248" 
d="M90 15v646q0 6 4.5 10.5t10.5 4.5h38q6 0 10.5 -4.5t4.5 -10.5v-646q0 -6 -4.5 -10.5t-10.5 -4.5h-38q-6 0 -10.5 4.5t-4.5 10.5zM124 759q-18 0 -32 13.5t-14 31.5q0 19 14 33t32 14q19 0 33 -14t14 -33q0 -18 -14 -31.5t-33 -13.5z" />
    <glyph glyph-name="dotlessi" unicode="&#x131;" horiz-adv-x="236" 
d="M85 15v481q0 6 4.5 10.5t10.5 4.5h36q6 0 10.5 -4.5t4.5 -10.5v-481q0 -6 -4.5 -10.5t-10.5 -4.5h-36q-6 0 -10.5 4.5t-4.5 10.5z" />
    <glyph glyph-name="IJ" unicode="&#x132;" horiz-adv-x="720" 
d="M90 15v646q0 6 4.5 10.5t10.5 4.5h38q6 0 10.5 -4.5t4.5 -10.5v-646q0 -6 -4.5 -10.5t-10.5 -4.5h-38q-6 0 -10.5 4.5t-4.5 10.5zM297 11q-14 5 -10 21l7 28q1 3 5 8.5t14 2.5q26 -8 59.5 -14.5t62.5 -6.5q35 0 61.5 12.5t43.5 35t24.5 54t7.5 63.5v448q0 6 4 10t10 3
l41 -4q13 -1 13 -16v-444q0 -104 -54.5 -164.5t-147.5 -60.5q-14 0 -53.5 4t-87.5 20z" />
    <glyph glyph-name="ij" unicode="&#x133;" horiz-adv-x="471" 
d="M118 608q-19 0 -33 13.5t-14 32.5q0 18 14 31.5t33 13.5t33 -13.5t14 -31.5t-14 -32t-33 -14zM85 15v481q0 6 4.5 10.5t10.5 4.5h36q6 0 10.5 -4.5t4.5 -10.5v-481q0 -6 -4.5 -10.5t-10.5 -4.5h-36q-6 0 -10.5 4.5t-4.5 10.5zM353 608q-20 0 -34 13.5t-14 32.5t14 32
t34 13q18 0 32.5 -13.5t14.5 -31.5t-14.5 -32t-32.5 -14zM320 -207v703q0 6 4.5 10.5t10.5 4.5h36q6 0 10.5 -4.5t4.5 -10.5v-685q0 -13 -10 -16l-42 -13q-6 -1 -10 2t-4 9z" />
    <glyph glyph-name="Jcircumflex" unicode="&#x134;" horiz-adv-x="472" 
d="M49 11q-14 5 -10 21l7 28q1 3 5 8.5t14 2.5q26 -8 59.5 -14.5t62.5 -6.5q35 0 61.5 12.5t43.5 35t24.5 54t7.5 63.5v448q0 6 4 10t10 3l41 -4q13 -1 13 -16v-444q0 -104 -54.5 -164.5t-147.5 -60.5q-14 0 -53.5 4t-87.5 20zM248 751l-16 27q-8 13 4 20l105 64q13 8 26 0
l104 -63q6 -4 7.5 -9.5t-2.5 -11.5l-15 -26q-4 -6 -9.5 -7.5t-10.5 2.5l-87 60l-86 -59q-5 -4 -11 -3t-9 6z" />
    <glyph glyph-name="jcircumflex" unicode="&#x135;" horiz-adv-x="236" 
d="M31 597q-5 -4 -10.5 -2.5t-9.5 7.5l-15 26q-4 6 -2.5 11.5t7.5 9.5l104 63q13 8 26 0l104 -63q6 -4 7.5 -9.5t-2.5 -11.5l-15 -26q-4 -6 -9.5 -7.5t-10.5 2.5l-87 60zM85 -207v703q0 6 4.5 10.5t10.5 4.5h36q6 0 10.5 -4.5t4.5 -10.5v-685q0 -13 -10 -16l-42 -13
q-6 -1 -10 2t-4 9z" />
    <glyph glyph-name="Kcommaaccent" unicode="&#x136;" horiz-adv-x="579" 
d="M90 15v646q0 6 4.5 10.5t10.5 4.5h38q6 0 10.5 -4.5t4.5 -10.5v-364l266 365q11 14 27 14h34q9 0 12 -6.5t-3 -14.5l-203 -285l238 -348q5 -7 2 -14.5t-11 -7.5h-38q-17 0 -28 16l-204 297l-92 -130v-168q0 -6 -4.5 -10.5t-10.5 -4.5h-38q-6 0 -10.5 4.5t-4.5 10.5z
M274 -224h-20q-6 0 -9.5 4t-2.5 11l25 128q3 16 18 16h35q8 0 12 -5t1 -14l-41 -127q-4 -13 -18 -13z" />
    <glyph glyph-name="kcommaaccent" unicode="&#x137;" horiz-adv-x="471" 
d="M85 15v702q0 6 4.5 10.5t10.5 4.5h36q6 0 10.5 -4.5t4.5 -10.5v-440l113 41q24 9 36.5 24t20.5 43l30 111q4 15 18 15h34q8 0 11.5 -5t1.5 -13l-32 -116q-12 -44 -29.5 -70.5t-52.5 -39.5l127 -244q5 -9 2 -16t-12 -7h-34q-13 0 -22 16l-119 230l-93 -35v-196
q0 -6 -4.5 -10.5t-10.5 -4.5h-36q-6 0 -10.5 4.5t-4.5 10.5zM219 -224h-20q-6 0 -9.5 4t-2.5 11l25 128q3 16 18 16h35q8 0 12 -5t1 -14l-41 -127q-4 -13 -18 -13z" />
    <glyph glyph-name="Lacute" unicode="&#x139;" horiz-adv-x="503" 
d="M90 15v646q0 6 4.5 10.5t10.5 4.5h38q6 0 10.5 -4.5t4.5 -10.5v-598h285q6 0 10.5 -4t3.5 -10l-4 -34q-1 -6 -6 -10.5t-11 -4.5h-331q-6 0 -10.5 4.5t-4.5 10.5zM53 744q-14 -5 -19 8l-9 24q-2 6 0.5 11t8.5 8l154 67q18 8 25 -9l12 -29q2 -5 -0.5 -12t-9.5 -10z" />
    <glyph glyph-name="lacute" unicode="&#x13a;" horiz-adv-x="236" 
d="M85 15v694q0 16 13 20l36 11q7 2 12 -1.5t5 -9.5v-714q0 -6 -4.5 -10.5t-10.5 -4.5h-36q-6 0 -10.5 4.5t-4.5 10.5zM44 754q-14 -5 -19 8l-9 24q-2 6 0.5 11t8.5 8l154 67q18 8 25 -9l12 -29q2 -5 -0.5 -12t-9.5 -10z" />
    <glyph glyph-name="Lcommaaccent" unicode="&#x13b;" horiz-adv-x="503" 
d="M90 15v646q0 6 4.5 10.5t10.5 4.5h38q6 0 10.5 -4.5t4.5 -10.5v-598h285q6 0 10.5 -4t3.5 -10l-4 -34q-1 -6 -6 -10.5t-11 -4.5h-331q-6 0 -10.5 4.5t-4.5 10.5zM249 -224h-20q-6 0 -9.5 4t-2.5 11l25 128q3 16 18 16h35q8 0 12 -5t1 -14l-41 -127q-4 -13 -18 -13z" />
    <glyph glyph-name="lcommaaccent" unicode="&#x13c;" horiz-adv-x="236" 
d="M85 15v694q0 16 13 20l36 11q7 2 12 -1.5t5 -9.5v-714q0 -6 -4.5 -10.5t-10.5 -4.5h-36q-6 0 -10.5 4.5t-4.5 10.5zM87 -224h-20q-6 0 -9.5 4t-2.5 11l25 128q3 16 18 16h35q8 0 12 -5t1 -14l-41 -127q-4 -13 -18 -13z" />
    <glyph glyph-name="Lcaron" unicode="&#x13d;" horiz-adv-x="503" 
d="M310 495q-6 0 -10.5 4.5t-4.5 10.5v151q0 6 4.5 11t10.5 6l42 6q6 1 10 -3.5t3 -11.5l-19 -159q-1 -6 -6 -10.5t-11 -4.5h-19zM90 15v646q0 6 4.5 10.5t10.5 4.5h38q6 0 10.5 -4.5t4.5 -10.5v-598h285q6 0 10.5 -4t3.5 -10l-4 -34q-1 -6 -6 -10.5t-11 -4.5h-331
q-6 0 -10.5 4.5t-4.5 10.5z" />
    <glyph glyph-name="lcaron" unicode="&#x13e;" horiz-adv-x="236" 
d="M231 551q-6 0 -10.5 4.5t-4.5 10.5v151q0 6 4.5 11t10.5 6l42 6q6 1 10 -3.5t3 -11.5l-19 -159q-1 -6 -6 -10.5t-11 -4.5h-19zM85 15v694q0 16 13 20l36 11q7 2 12 -1.5t5 -9.5v-714q0 -6 -4.5 -10.5t-10.5 -4.5h-36q-6 0 -10.5 4.5t-4.5 10.5z" />
    <glyph glyph-name="Ldot" unicode="&#x13f;" horiz-adv-x="503" 
d="M90 15v646q0 6 4.5 10.5t10.5 4.5h38q6 0 10.5 -4.5t4.5 -10.5v-598h285q6 0 10.5 -4t3.5 -10l-4 -34q-1 -6 -6 -10.5t-11 -4.5h-331q-6 0 -10.5 4.5t-4.5 10.5zM315 233q-18 0 -32 13.5t-14 31.5q0 20 14 34t32 14q20 0 34 -14t14 -34q0 -18 -14 -31.5t-34 -13.5z" />
    <glyph glyph-name="ldot" unicode="&#x140;" horiz-adv-x="289" 
d="M85 15v694q0 16 13 20l36 11q7 2 12 -1.5t5 -9.5v-714q0 -6 -4.5 -10.5t-10.5 -4.5h-36q-6 0 -10.5 4.5t-4.5 10.5zM257 233q-18 0 -32 13.5t-14 31.5q0 20 14 34t32 14q20 0 34 -14t14 -34q0 -18 -14 -31.5t-34 -13.5z" />
    <glyph glyph-name="Lslash" unicode="&#x141;" horiz-adv-x="503" 
d="M30 270q-2 -1 -8.5 -0.5t-10.5 9.5l-10 28q-2 6 1 11.5t9 7.5l79 27v308q0 6 4.5 10.5t10.5 4.5h38q6 0 10.5 -4.5t4.5 -10.5v-284l134 46q2 1 8.5 0.5t10.5 -9.5l10 -28q2 -6 -1 -11.5t-9 -7.5l-153 -53v-251h285q6 0 10.5 -4t3.5 -10l-4 -34q-1 -6 -6 -10.5t-11 -4.5
h-331q-6 0 -10.5 4.5t-4.5 10.5v275z" />
    <glyph glyph-name="lslash" unicode="&#x142;" horiz-adv-x="236" 
d="M31 276q-6 -2 -12 0.5t-8 8.5l-10 30q-2 6 1 11.5t9 7.5l74 25v350q0 16 13 20l36 11q7 2 12 -1.5t5 -9.5v-347l54 19q6 2 12 -0.5t8 -8.5l10 -30q2 -6 -1 -11.5t-9 -7.5l-74 -26v-302q0 -6 -4.5 -10.5t-10.5 -4.5h-36q-6 0 -10.5 4.5t-4.5 10.5v279z" />
    <glyph glyph-name="Nacute" unicode="&#x143;" horiz-adv-x="624" 
d="M90 15v646q0 6 4.5 10.5t10.5 4.5h25q13 0 22 -15l316 -531q-2 35 -2 95v436q0 6 4.5 10.5t10.5 4.5h38q6 0 10.5 -4.5t4.5 -10.5v-646q0 -6 -4.5 -10.5t-10.5 -4.5h-30q-13 0 -22 15l-313 522q4 -47 4 -96v-426q0 -6 -4.5 -10.5t-10.5 -4.5h-38q-6 0 -10.5 4.5
t-4.5 10.5zM239 744q-14 -5 -19 8l-9 24q-2 6 0.5 11t8.5 8l154 67q18 8 25 -9l12 -29q2 -5 -0.5 -12t-9.5 -10z" />
    <glyph glyph-name="nacute" unicode="&#x144;" horiz-adv-x="540" 
d="M80 15v306q0 35 10 71.5t34 65.5t61 47.5t86 18.5q82 0 135.5 -54t53.5 -149v-306q0 -6 -4.5 -10.5t-10.5 -4.5h-36q-6 0 -10.5 4.5t-4.5 10.5v301q0 44 -15.5 79.5t-45 51.5t-62.5 16q-10 0 -31 -4t-38 -15.5t-28.5 -27t-19.5 -40.5t-8 -60v-301q0 -6 -4.5 -10.5
t-10.5 -4.5h-36q-6 0 -10.5 4.5t-4.5 10.5zM197 594q-14 -5 -19 8l-9 24q-2 6 0.5 11t8.5 8l154 67q18 8 25 -9l12 -29q2 -5 -0.5 -12t-9.5 -10z" />
    <glyph glyph-name="Ncommaaccent" unicode="&#x145;" horiz-adv-x="624" 
d="M90 15v646q0 6 4.5 10.5t10.5 4.5h25q13 0 22 -15l316 -531q-2 35 -2 95v436q0 6 4.5 10.5t10.5 4.5h38q6 0 10.5 -4.5t4.5 -10.5v-646q0 -6 -4.5 -10.5t-10.5 -4.5h-30q-13 0 -22 15l-313 522q4 -47 4 -96v-426q0 -6 -4.5 -10.5t-10.5 -4.5h-38q-6 0 -10.5 4.5
t-4.5 10.5zM295 -224h-20q-6 0 -9.5 4t-2.5 11l25 128q3 16 18 16h35q8 0 12 -5t1 -14l-41 -127q-4 -13 -18 -13z" />
    <glyph glyph-name="ncommaaccent" unicode="&#x146;" horiz-adv-x="540" 
d="M80 15v306q0 35 10 71.5t34 65.5t61 47.5t86 18.5q82 0 135.5 -54t53.5 -149v-306q0 -6 -4.5 -10.5t-10.5 -4.5h-36q-6 0 -10.5 4.5t-4.5 10.5v301q0 44 -15.5 79.5t-45 51.5t-62.5 16q-10 0 -31 -4t-38 -15.5t-28.5 -27t-19.5 -40.5t-8 -60v-301q0 -6 -4.5 -10.5
t-10.5 -4.5h-36q-6 0 -10.5 4.5t-4.5 10.5zM253 -224h-20q-6 0 -9.5 4t-2.5 11l25 128q3 16 18 16h35q8 0 12 -5t1 -14l-41 -127q-4 -13 -18 -13z" />
    <glyph glyph-name="Ncaron" unicode="&#x147;" horiz-adv-x="624" 
d="M90 15v646q0 6 4.5 10.5t10.5 4.5h25q13 0 22 -15l316 -531q-2 35 -2 95v436q0 6 4.5 10.5t10.5 4.5h38q6 0 10.5 -4.5t4.5 -10.5v-646q0 -6 -4.5 -10.5t-10.5 -4.5h-30q-13 0 -22 15l-313 522q4 -47 4 -96v-426q0 -6 -4.5 -10.5t-10.5 -4.5h-38q-6 0 -10.5 4.5
t-4.5 10.5zM299 747l-104 63q-6 4 -7.5 9.5t2.5 11.5l15 26q4 6 9.5 7.5t10.5 -2.5l87 -60l86 59q5 4 11 3t9 -6l16 -27q8 -13 -4 -20l-105 -64q-13 -8 -26 0z" />
    <glyph glyph-name="ncaron" unicode="&#x148;" horiz-adv-x="540" 
d="M80 15v306q0 35 10 71.5t34 65.5t61 47.5t86 18.5q82 0 135.5 -54t53.5 -149v-306q0 -6 -4.5 -10.5t-10.5 -4.5h-36q-6 0 -10.5 4.5t-4.5 10.5v301q0 44 -15.5 79.5t-45 51.5t-62.5 16q-10 0 -31 -4t-38 -15.5t-28.5 -27t-19.5 -40.5t-8 -60v-301q0 -6 -4.5 -10.5
t-10.5 -4.5h-36q-6 0 -10.5 4.5t-4.5 10.5zM257 597l-104 63q-6 4 -7.5 9.5t2.5 11.5l15 26q4 6 9.5 7.5t10.5 -2.5l87 -60l86 59q5 4 11 3t9 -6l16 -27q8 -13 -4 -20l-105 -64q-13 -8 -26 0z" />
    <glyph glyph-name="Eng" unicode="&#x14a;" horiz-adv-x="624" 
d="M90 15v646q0 6 4.5 10.5t10.5 4.5h25q13 0 22 -15l316 -531q-2 35 -2 95v436q0 6 4.5 10.5t10.5 4.5h38q6 0 10.5 -4.5t4.5 -10.5v-848q0 -15 -10 -18l-42 -13q-6 -1 -10 2t-4 9v220l-314 524q4 -47 4 -96v-426q0 -6 -4.5 -10.5t-10.5 -4.5h-38q-6 0 -10.5 4.5t-4.5 10.5
z" />
    <glyph glyph-name="eng" unicode="&#x14b;" horiz-adv-x="540" 
d="M80 15v304q0 35 10 71.5t34 65.5t61 47.5t86 18.5q82 0 135.5 -54t53.5 -149v-506q0 -15 -10 -18l-42 -13q-6 -1 -10 2t-4 9v521q0 44 -15.5 79.5t-45 51.5t-62.5 16q-10 0 -31 -4t-38 -15.5t-28.5 -27t-19.5 -40.5t-8 -60v-299q0 -6 -4.5 -10.5t-10.5 -4.5h-36
q-6 0 -10.5 4.5t-4.5 10.5z" />
    <glyph glyph-name="Omacron" unicode="&#x14c;" horiz-adv-x="625" 
d="M70 255v164q0 65 18.5 116.5t52 85.5t78 51t94.5 17t94 -17t77.5 -51t52 -85.5t18.5 -116.5v-164q0 -65 -18.5 -116t-52 -84.5t-77.5 -50.5t-94 -17t-94.5 17t-78 50.5t-52 84.5t-18.5 116zM138 258q0 -38 8.5 -75.5t29.5 -67t55 -47.5t82 -18q58 0 96.5 27t58 72
t19.5 109v158q0 65 -19.5 110.5t-58 72.5t-96.5 27q-38 0 -70 -13t-55.5 -39t-36.5 -66t-13 -92v-158zM201 778q-6 0 -10.5 4.5t-4.5 10.5v32q0 6 4.5 10.5t10.5 4.5h223q6 0 10.5 -4.5t4.5 -10.5v-32q0 -6 -4.5 -10.5t-10.5 -4.5h-223z" />
    <glyph glyph-name="omacron" unicode="&#x14d;" horiz-adv-x="533" 
d="M65 212v88q0 42 10 83t34 72t63 50t94 19q44 0 81 -13.5t64 -41.5t42 -71t15 -99v-87q0 -70 -23 -119t-67.5 -77.5t-111.5 -28.5q-43 0 -80 13.5t-64 41.5t-42 71t-15 99zM131 217q0 -169 135 -169q45 0 75 19t45.5 56t15.5 94v77q0 169 -136 169q-135 0 -135 -169v-77z
M155 628q-6 0 -10.5 4.5t-4.5 10.5v32q0 6 4.5 10.5t10.5 4.5h223q6 0 10.5 -4.5t4.5 -10.5v-32q0 -6 -4.5 -10.5t-10.5 -4.5h-223z" />
    <glyph glyph-name="Obreve" unicode="&#x14e;" horiz-adv-x="625" 
d="M70 255v164q0 65 18.5 116.5t52 85.5t78 51t94.5 17t94 -17t77.5 -51t52 -85.5t18.5 -116.5v-164q0 -65 -18.5 -116t-52 -84.5t-77.5 -50.5t-94 -17t-94.5 17t-78 50.5t-52 84.5t-18.5 116zM138 258q0 -38 8.5 -75.5t29.5 -67t55 -47.5t82 -18q58 0 96.5 27t58 72
t19.5 109v158q0 65 -19.5 110.5t-58 72.5t-96.5 27q-38 0 -70 -13t-55.5 -39t-36.5 -66t-13 -92v-158zM313 748q-34 0 -60.5 17t-38 41.5t-13.5 46.5q0 10 15 10h28q15 0 16 -11q3 -20 17 -34.5t36 -14.5q20 0 34.5 14.5t17.5 34.5q1 11 16 11h28q15 0 14 -11
q-2 -31 -20 -57t-43 -36.5t-47 -10.5z" />
    <glyph glyph-name="obreve" unicode="&#x14f;" horiz-adv-x="533" 
d="M65 212v88q0 42 10 83t34 72t63 50t94 19q44 0 81 -13.5t64 -41.5t42 -71t15 -99v-87q0 -70 -23 -119t-67.5 -77.5t-111.5 -28.5q-43 0 -80 13.5t-64 41.5t-42 71t-15 99zM131 217q0 -169 135 -169q45 0 75 19t45.5 56t15.5 94v77q0 169 -136 169q-135 0 -135 -169v-77z
M267 598q-34 0 -60.5 17t-38 41.5t-13.5 46.5q0 10 15 10h28q15 0 16 -11q3 -20 17 -34.5t36 -14.5q20 0 34.5 14.5t17.5 34.5q1 11 16 11h28q15 0 14 -11q-2 -31 -20 -57t-43 -36.5t-47 -10.5z" />
    <glyph glyph-name="Ohungarumlaut" unicode="&#x150;" horiz-adv-x="625" 
d="M70 255v164q0 65 18.5 116.5t52 85.5t78 51t94.5 17t94 -17t77.5 -51t52 -85.5t18.5 -116.5v-164q0 -65 -18.5 -116t-52 -84.5t-77.5 -50.5t-94 -17t-94.5 17t-78 50.5t-52 84.5t-18.5 116zM138 258q0 -38 8.5 -75.5t29.5 -67t55 -47.5t82 -18q58 0 96.5 27t58 72
t19.5 109v158q0 65 -19.5 110.5t-58 72.5t-96.5 27q-38 0 -70 -13t-55.5 -39t-36.5 -66t-13 -92v-158zM372 745l-12 20q-1 2 -2.5 8.5t6.5 12.5l132 87q2 1 8 2.5t12 -7.5l18 -31q4 -6 3 -11.5t-7 -8.5l-138 -78q-12 -7 -20 6zM197 739q-12 -7 -20 6l-12 20q-1 2 -2.5 8.5
t6.5 12.5l132 87q2 1 8 2.5t12 -7.5l18 -31q4 -6 3 -11.5t-7 -8.5z" />
    <glyph glyph-name="ohungarumlaut" unicode="&#x151;" horiz-adv-x="533" 
d="M65 212v88q0 42 10 83t34 72t63 50t94 19q44 0 81 -13.5t64 -41.5t42 -71t15 -99v-87q0 -70 -23 -119t-67.5 -77.5t-111.5 -28.5q-43 0 -80 13.5t-64 41.5t-42 71t-15 99zM131 217q0 -169 135 -169q45 0 75 19t45.5 56t15.5 94v77q0 169 -136 169q-135 0 -135 -169v-77z
M319 595l-12 20q-1 2 -2.5 8.5t6.5 12.5l132 87q2 1 8 2.5t12 -7.5l18 -31q4 -6 3 -11.5t-7 -8.5l-138 -78q-12 -7 -20 6zM144 589q-12 -7 -20 6l-12 20q-1 2 -2.5 8.5t6.5 12.5l132 87q2 1 8 2.5t12 -7.5l18 -31q4 -6 3 -11.5t-7 -8.5z" />
    <glyph glyph-name="OE" unicode="&#x152;" horiz-adv-x="890" 
d="M70 255v164q0 65 18.5 116.5t52 85.5t78 51t94.5 17q41 0 83 -13h400q6 0 10.5 -4.5t4.5 -10.5v-33q0 -6 -4.5 -10.5t-10.5 -4.5h-304q63 -73 63 -194v-48h200q6 0 10 -4.5t3 -10.5l-3 -31q0 -6 -5 -10.5t-11 -4.5h-194v-55q0 -120 -62 -192h312q6 0 10.5 -4.5t4.5 -10.5
v-33q0 -6 -4.5 -10.5t-10.5 -4.5h-409q-42 -13 -83 -13q-50 0 -94.5 17t-78 50.5t-52 84.5t-18.5 116zM138 258q0 -38 8.5 -75.5t29.5 -67t55 -47.5t82 -18q58 0 96.5 27t58 72t19.5 109v158q0 65 -19.5 110.5t-58 72.5t-96.5 27q-38 0 -70 -13t-55.5 -39t-36.5 -66t-13 -92
v-158z" />
    <glyph glyph-name="oe" unicode="&#x153;" horiz-adv-x="843" 
d="M65 212v88q0 42 10 83t34 72t63 50t94 19q54 0 97.5 -21.5t69.5 -62.5q25 40 67.5 62t91.5 22t95 -23t71 -67.5t25 -94.5v-87q0 -6 -4.5 -10.5t-10.5 -4.5h-300v-42q0 -74 35.5 -110.5t98.5 -36.5q49 0 119 18q8 2 14 -0.5t7 -8.5l7 -32q3 -14 -14 -19q-67 -19 -133 -19
q-55 0 -99.5 21.5t-69.5 62.5q-12 -20 -34.5 -40.5t-57.5 -32t-75 -11.5q-43 0 -80 13.5t-64 41.5t-42 71t-15 99zM468 295h249v44q0 40 -20.5 70.5t-50 42t-54.5 11.5q-34 0 -61 -14t-45 -45t-18 -84v-25zM131 217q0 -169 135 -169q45 0 75 19t45.5 56t15.5 94v86
q-4 160 -136 160q-135 0 -135 -169v-77z" />
    <glyph glyph-name="Racute" unicode="&#x154;" horiz-adv-x="552" 
d="M90 15v646q0 6 4.5 10.5t10.5 4.5h203q42 0 78.5 -15.5t62 -43t39.5 -64.5t14 -77q0 -49 -22 -92.5t-54 -65.5t-63 -30l127 -269q3 -8 -0.5 -13.5t-11.5 -5.5h-40q-15 0 -22 15l-122 266h-136v-266q0 -6 -4.5 -10.5t-10.5 -4.5h-38q-6 0 -10.5 4.5t-4.5 10.5zM158 339
h150q60 0 92.5 39.5t32.5 97.5q0 59 -32.5 98t-92.5 39h-150v-274zM203 744q-14 -5 -19 8l-9 24q-2 6 0.5 11t8.5 8l154 67q18 8 25 -9l12 -29q2 -5 -0.5 -12t-9.5 -10z" />
    <glyph glyph-name="racute" unicode="&#x155;" horiz-adv-x="347" 
d="M80 15v322q0 41 12.5 72t33 54.5t57 42t85.5 18.5l38 -3q21 -3 17 -23l-5 -25q-3 -15 -24 -12l-25 2q-25 0 -54 -11.5t-49 -42.5t-20 -72v-322q0 -6 -4.5 -10.5t-10.5 -4.5h-36q-6 0 -10.5 4.5t-4.5 10.5zM122 594q-14 -5 -19 8l-9 24q-2 6 0.5 11t8.5 8l154 67
q18 8 25 -9l12 -29q2 -5 -0.5 -12t-9.5 -10z" />
    <glyph glyph-name="Rcommaaccent" unicode="&#x156;" horiz-adv-x="552" 
d="M90 15v646q0 6 4.5 10.5t10.5 4.5h203q42 0 78.5 -15.5t62 -43t39.5 -64.5t14 -77q0 -49 -22 -92.5t-54 -65.5t-63 -30l127 -269q3 -8 -0.5 -13.5t-11.5 -5.5h-40q-15 0 -22 15l-122 266h-136v-266q0 -6 -4.5 -10.5t-10.5 -4.5h-38q-6 0 -10.5 4.5t-4.5 10.5zM158 339
h150q60 0 92.5 39.5t32.5 97.5q0 59 -32.5 98t-92.5 39h-150v-274zM259 -224h-20q-6 0 -9.5 4t-2.5 11l25 128q3 16 18 16h35q8 0 12 -5t1 -14l-41 -127q-4 -13 -18 -13z" />
    <glyph glyph-name="rcommaaccent" unicode="&#x157;" horiz-adv-x="347" 
d="M80 15v322q0 41 12.5 72t33 54.5t57 42t85.5 18.5l38 -3q21 -3 17 -23l-5 -25q-3 -15 -24 -12l-25 2q-25 0 -54 -11.5t-49 -42.5t-20 -72v-322q0 -6 -4.5 -10.5t-10.5 -4.5h-36q-6 0 -10.5 4.5t-4.5 10.5zM79 -224h-20q-6 0 -9.5 4t-2.5 11l25 128q3 16 18 16h35
q8 0 12 -5t1 -14l-41 -127q-4 -13 -18 -13z" />
    <glyph glyph-name="Rcaron" unicode="&#x158;" horiz-adv-x="552" 
d="M90 15v646q0 6 4.5 10.5t10.5 4.5h203q42 0 78.5 -15.5t62 -43t39.5 -64.5t14 -77q0 -49 -22 -92.5t-54 -65.5t-63 -30l127 -269q3 -8 -0.5 -13.5t-11.5 -5.5h-40q-15 0 -22 15l-122 266h-136v-266q0 -6 -4.5 -10.5t-10.5 -4.5h-38q-6 0 -10.5 4.5t-4.5 10.5zM158 339
h150q60 0 92.5 39.5t32.5 97.5q0 59 -32.5 98t-92.5 39h-150v-274zM263 747l-104 63q-6 4 -7.5 9.5t2.5 11.5l15 26q4 6 9.5 7.5t10.5 -2.5l87 -60l86 59q5 4 11 3t9 -6l16 -27q8 -13 -4 -20l-105 -64q-13 -8 -26 0z" />
    <glyph glyph-name="rcaron" unicode="&#x159;" horiz-adv-x="347" 
d="M80 15v322q0 41 12.5 72t33 54.5t57 42t85.5 18.5l38 -3q21 -3 17 -23l-5 -25q-3 -15 -24 -12l-25 2q-25 0 -54 -11.5t-49 -42.5t-20 -72v-322q0 -6 -4.5 -10.5t-10.5 -4.5h-36q-6 0 -10.5 4.5t-4.5 10.5zM175 597l-104 63q-6 4 -7.5 9.5t2.5 11.5l15 26q4 6 9.5 7.5
t10.5 -2.5l87 -60l86 59q5 4 11 3t9 -6l16 -27q8 -13 -4 -20l-105 -64q-13 -8 -26 0z" />
    <glyph glyph-name="Sacute" unicode="&#x15a;" horiz-adv-x="497" 
d="M53 36l6 31q3 16 22 10q86 -27 158 -27q25 0 54.5 9t49 28t27 40.5t7.5 43.5q0 24 -8.5 47.5t-33 46.5t-107 60t-111.5 64.5t-42 58t-13 70.5q0 76 56 123.5t145 47.5q75 0 153 -27q14 -5 10 -19l-9 -32q-4 -14 -20 -9q-79 24 -134 24q-60 0 -95.5 -28t-35.5 -78
q0 -23 8.5 -44.5t32 -42t96.5 -53.5t103 -55.5t45 -45t22.5 -49t7.5 -57.5q0 -21 -5.5 -47t-20 -50t-39.5 -44.5t-63 -32.5t-80 -12q-79 0 -174 29q-15 5 -12 20zM175 744q-14 -5 -19 8l-9 24q-2 6 0.5 11t8.5 8l154 67q18 8 25 -9l12 -29q2 -5 -0.5 -12t-9.5 -10z" />
    <glyph glyph-name="sacute" unicode="&#x15b;" horiz-adv-x="416" 
d="M52 26l6 30q1 7 7 9.5t15 0.5q69 -18 112 -18q47 0 77 23.5t30 59.5q0 17 -7.5 35.5t-28.5 34t-73 37t-77 39.5t-39.5 44.5t-14.5 64.5q0 60 43.5 99t118.5 39q55 0 113 -17q16 -5 12 -19l-9 -31q-4 -14 -21 -9q-51 15 -95 15q-45 0 -69.5 -21.5t-24.5 -55.5
q0 -21 8.5 -35t23 -25.5t80 -39t87 -49.5t31.5 -47t10 -57q0 -42 -22.5 -75.5t-60.5 -52t-92 -18.5q-69 0 -128 19q-6 2 -9.5 8t-2.5 12zM135 594q-14 -5 -19 8l-9 24q-2 6 0.5 11t8.5 8l154 67q18 8 25 -9l12 -29q2 -5 -0.5 -12t-9.5 -10z" />
    <glyph glyph-name="Scircumflex" unicode="&#x15c;" horiz-adv-x="497" 
d="M53 36l6 31q3 16 22 10q86 -27 158 -27q25 0 54.5 9t49 28t27 40.5t7.5 43.5q0 24 -8.5 47.5t-33 46.5t-107 60t-111.5 64.5t-42 58t-13 70.5q0 76 56 123.5t145 47.5q75 0 153 -27q14 -5 10 -19l-9 -32q-4 -14 -20 -9q-79 24 -134 24q-60 0 -95.5 -28t-35.5 -78
q0 -23 8.5 -44.5t32 -42t96.5 -53.5t103 -55.5t45 -45t22.5 -49t7.5 -57.5q0 -21 -5.5 -47t-20 -50t-39.5 -44.5t-63 -32.5t-80 -12q-79 0 -174 29q-15 5 -12 20zM142 751l-16 27q-8 13 4 20l105 64q13 8 26 0l104 -63q6 -4 7.5 -9.5t-2.5 -11.5l-15 -26q-4 -6 -9.5 -7.5
t-10.5 2.5l-87 60l-86 -59q-5 -4 -11 -3t-9 6z" />
    <glyph glyph-name="scircumflex" unicode="&#x15d;" horiz-adv-x="416" 
d="M52 26l6 30q1 7 7 9.5t15 0.5q69 -18 112 -18q47 0 77 23.5t30 59.5q0 17 -7.5 35.5t-28.5 34t-73 37t-77 39.5t-39.5 44.5t-14.5 64.5q0 60 43.5 99t118.5 39q55 0 113 -17q16 -5 12 -19l-9 -31q-4 -14 -21 -9q-51 15 -95 15q-45 0 -69.5 -21.5t-24.5 -55.5
q0 -21 8.5 -35t23 -25.5t80 -39t87 -49.5t31.5 -47t10 -57q0 -42 -22.5 -75.5t-60.5 -52t-92 -18.5q-69 0 -128 19q-6 2 -9.5 8t-2.5 12zM102 601l-16 27q-8 13 4 20l105 64q13 8 26 0l104 -63q6 -4 7.5 -9.5t-2.5 -11.5l-15 -26q-4 -6 -9.5 -7.5t-10.5 2.5l-87 60l-86 -59
q-5 -4 -11 -3t-9 6z" />
    <glyph glyph-name="Scedilla" unicode="&#x15e;" horiz-adv-x="497" 
d="M53 36l6 31q3 16 22 10q86 -27 158 -27q25 0 54.5 9t49 28t27 40.5t7.5 43.5q0 24 -8.5 47.5t-33 46.5t-107 60t-111.5 64.5t-42 58t-13 70.5q0 76 56 123.5t145 47.5q75 0 153 -27q14 -5 10 -19l-9 -32q-4 -14 -20 -9q-79 24 -134 24q-60 0 -95.5 -28t-35.5 -78
q0 -23 8.5 -44.5t32 -42t96.5 -53.5t103 -55.5t45 -45t22.5 -49t7.5 -57.5q0 -29 -8.5 -58.5t-29 -55t-52.5 -44t-77 -25.5v-95q0 -55 -33.5 -80.5t-80.5 -25.5q-27 0 -42 3q-3 1 -8.5 4.5t-4.5 12.5l4 28q2 15 18 12l28 -2q57 0 57 55v86q-74 3 -153 28q-15 5 -12 20z" />
    <glyph glyph-name="scedilla" unicode="&#x15f;" horiz-adv-x="416" 
d="M52 26l6 30q1 7 7 9.5t15 0.5q69 -18 112 -18q47 0 77 23.5t30 59.5q0 17 -7.5 35.5t-28.5 34t-73 37t-77 39.5t-39.5 44.5t-14.5 64.5q0 60 43.5 99t118.5 39q55 0 113 -17q16 -5 12 -19l-9 -31q-4 -14 -21 -9q-51 15 -95 15q-45 0 -69.5 -21.5t-24.5 -55.5
q0 -21 8.5 -35t23 -25.5t80 -39t87 -49.5t31.5 -47t10 -57q0 -48 -31.5 -87.5t-89.5 -52.5v-98q0 -55 -33.5 -80.5t-80.5 -25.5q-27 0 -42 3q-3 1 -8.5 4.5t-4.5 12.5l4 28q2 15 18 12l28 -2q57 0 57 55v85q-13 0 -47 3.5t-73 15.5q-6 2 -9.5 8t-2.5 12z" />
    <glyph glyph-name="Scaron" unicode="&#x160;" horiz-adv-x="497" 
d="M53 36l6 31q3 16 22 10q86 -27 158 -27q25 0 54.5 9t49 28t27 40.5t7.5 43.5q0 24 -8.5 47.5t-33 46.5t-107 60t-111.5 64.5t-42 58t-13 70.5q0 76 56 123.5t145 47.5q75 0 153 -27q14 -5 10 -19l-9 -32q-4 -14 -20 -9q-79 24 -134 24q-60 0 -95.5 -28t-35.5 -78
q0 -23 8.5 -44.5t32 -42t96.5 -53.5t103 -55.5t45 -45t22.5 -49t7.5 -57.5q0 -21 -5.5 -47t-20 -50t-39.5 -44.5t-63 -32.5t-80 -12q-79 0 -174 29q-15 5 -12 20zM235 747l-104 63q-6 4 -7.5 9.5t2.5 11.5l15 26q4 6 9.5 7.5t10.5 -2.5l87 -60l86 59q5 4 11 3t9 -6l16 -27
q8 -13 -4 -20l-105 -64q-13 -8 -26 0z" />
    <glyph glyph-name="scaron" unicode="&#x161;" horiz-adv-x="416" 
d="M52 26l6 30q1 7 7 9.5t15 0.5q69 -18 112 -18q47 0 77 23.5t30 59.5q0 17 -7.5 35.5t-28.5 34t-73 37t-77 39.5t-39.5 44.5t-14.5 64.5q0 60 43.5 99t118.5 39q55 0 113 -17q16 -5 12 -19l-9 -31q-4 -14 -21 -9q-51 15 -95 15q-45 0 -69.5 -21.5t-24.5 -55.5
q0 -21 8.5 -35t23 -25.5t80 -39t87 -49.5t31.5 -47t10 -57q0 -42 -22.5 -75.5t-60.5 -52t-92 -18.5q-69 0 -128 19q-6 2 -9.5 8t-2.5 12zM195 597l-104 63q-6 4 -7.5 9.5t2.5 11.5l15 26q4 6 9.5 7.5t10.5 -2.5l87 -60l86 59q5 4 11 3t9 -6l16 -27q8 -13 -4 -20l-105 -64
q-13 -8 -26 0z" />
    <glyph glyph-name="Tcommaaccent" unicode="&#x162;" horiz-adv-x="518" 
d="M225 15v598h-175q-6 0 -10.5 4.5t-4.5 10.5v33q0 6 4.5 10.5t10.5 4.5h418q6 0 10.5 -4.5t4.5 -10.5v-33q0 -6 -4.5 -10.5t-10.5 -4.5h-175v-598q0 -6 -4.5 -10.5t-10.5 -4.5h-38q-6 0 -10.5 4.5t-4.5 10.5zM228 -224h-20q-6 0 -9.5 4t-2.5 11l25 128q3 16 18 16h35
q8 0 12 -5t1 -14l-41 -127q-4 -13 -18 -13z" />
    <glyph glyph-name="tcommaaccent" unicode="&#x163;" horiz-adv-x="293" 
d="M100 15v443h-51q-15 0 -20 13l-10 24q-3 6 0 11t9 5h72v135q0 15 14 19l31 9q7 2 14 -0.5t7 -11.5v-151h94q6 0 10.5 -4.5t4.5 -10.5v-23q0 -6 -4.5 -10.5t-10.5 -4.5h-94v-443q0 -6 -4.5 -10.5t-10.5 -4.5h-36q-6 0 -10.5 4.5t-4.5 10.5zM101 -224h-20q-6 0 -9.5 4
t-2.5 11l25 128q3 16 18 16h35q8 0 12 -5t1 -14l-41 -127q-4 -13 -18 -13z" />
    <glyph glyph-name="Tcaron" unicode="&#x164;" horiz-adv-x="518" 
d="M225 15v598h-175q-6 0 -10.5 4.5t-4.5 10.5v33q0 6 4.5 10.5t10.5 4.5h418q6 0 10.5 -4.5t4.5 -10.5v-33q0 -6 -4.5 -10.5t-10.5 -4.5h-175v-598q0 -6 -4.5 -10.5t-10.5 -4.5h-38q-6 0 -10.5 4.5t-4.5 10.5zM246 747l-104 63q-6 4 -7.5 9.5t2.5 11.5l15 26q4 6 9.5 7.5
t10.5 -2.5l87 -60l86 59q5 4 11 3t9 -6l16 -27q8 -13 -4 -20l-105 -64q-13 -8 -26 0z" />
    <glyph glyph-name="tcaron" unicode="&#x165;" horiz-adv-x="293" 
d="M263 571q-6 0 -10.5 4.5t-4.5 10.5v151q0 6 4.5 11t10.5 6l42 6q6 1 10 -3t3 -10l-19 -161q-1 -6 -6 -10.5t-11 -4.5h-19zM100 15v443h-51q-15 0 -20 13l-10 24q-3 6 0 11t9 5h72v135q0 15 14 19l31 9q7 2 14 -0.5t7 -11.5v-151h94q6 0 10.5 -4.5t4.5 -10.5v-23
q0 -6 -4.5 -10.5t-10.5 -4.5h-94v-443q0 -6 -4.5 -10.5t-10.5 -4.5h-36q-6 0 -10.5 4.5t-4.5 10.5z" />
    <glyph glyph-name="Tbar" unicode="&#x166;" horiz-adv-x="518" 
d="M130 327q-6 0 -10.5 4.5t-4.5 10.5v22q0 6 4.5 10.5t10.5 4.5h95v234h-175q-6 0 -10.5 4.5t-4.5 10.5v33q0 6 4.5 10.5t10.5 4.5h418q6 0 10.5 -4.5t4.5 -10.5v-33q0 -6 -4.5 -10.5t-10.5 -4.5h-175v-234h101q6 0 10.5 -4.5t4.5 -10.5v-22q0 -6 -4.5 -10.5t-10.5 -4.5
h-101v-312q0 -6 -4.5 -10.5t-10.5 -4.5h-38q-6 0 -10.5 4.5t-4.5 10.5v312h-95z" />
    <glyph glyph-name="tbar" unicode="&#x167;" horiz-adv-x="293" 
d="M50 256q-6 0 -10.5 4.5t-4.5 10.5v22q0 6 4.5 10.5t10.5 4.5h50v150h-51q-15 0 -20 13l-10 24q-3 6 0 11t9 5h72v135q0 15 14 19l31 9q7 2 14 -0.5t7 -11.5v-151h94q6 0 10.5 -4.5t4.5 -10.5v-23q0 -6 -4.5 -10.5t-10.5 -4.5h-94v-150h92q6 0 10.5 -4.5t4.5 -10.5v-22
q0 -6 -4.5 -10.5t-10.5 -4.5h-92v-241q0 -6 -4.5 -10.5t-10.5 -4.5h-36q-6 0 -10.5 4.5t-4.5 10.5v241h-50z" />
    <glyph glyph-name="Utilde" unicode="&#x168;" horiz-adv-x="627" 
d="M85 213v448q0 6 4.5 10.5t10.5 4.5h38q6 0 10.5 -4.5t4.5 -10.5v-445q0 -26 8 -54.5t27.5 -53t51.5 -41.5t75 -17q70 0 115 47t45 119v445q0 6 4.5 10.5t10.5 4.5h37q6 0 10.5 -4.5t4.5 -10.5v-448q0 -48 -17.5 -90.5t-49 -72.5t-73 -46.5t-87.5 -16.5q-47 0 -89 16.5
t-73.5 46.5t-49.5 72.5t-18 90.5zM197 781l-12 13q-11 11 -4 21q29 44 73 44q17 0 33 -6.5t44 -24.5t42 -18q18 0 35 17q5 5 11 5.5t10 -4.5l13 -13q9 -9 1 -23q-29 -41 -70 -41q-17 0 -33.5 6.5t-44 24t-41.5 17.5q-17 0 -38 -18q-9 -9 -19 0z" />
    <glyph glyph-name="utilde" unicode="&#x169;" horiz-adv-x="540" 
d="M80 190v306q0 6 4.5 10.5t10.5 4.5h36q6 0 10.5 -4.5t4.5 -10.5v-301q0 -26 7 -56t26 -51.5t43 -30.5t48 -9q33 0 60 14.5t45.5 47t18.5 85.5v301q0 6 4.5 10.5t10.5 4.5h36q6 0 10.5 -4.5t4.5 -10.5v-306q0 -35 -10 -71.5t-33.5 -65.5t-60.5 -47.5t-86 -18.5
q-82 0 -136 54t-54 149zM154 631l-12 13q-11 11 -4 21q29 44 73 44q17 0 33 -6.5t44 -24.5t42 -18q18 0 35 17q5 5 11 5.5t10 -4.5l13 -13q9 -9 1 -23q-29 -41 -70 -41q-17 0 -33.5 6.5t-44 24t-41.5 17.5q-17 0 -38 -18q-9 -9 -19 0z" />
    <glyph glyph-name="Umacron" unicode="&#x16a;" horiz-adv-x="627" 
d="M85 213v448q0 6 4.5 10.5t10.5 4.5h38q6 0 10.5 -4.5t4.5 -10.5v-445q0 -26 8 -54.5t27.5 -53t51.5 -41.5t75 -17q70 0 115 47t45 119v445q0 6 4.5 10.5t10.5 4.5h37q6 0 10.5 -4.5t4.5 -10.5v-448q0 -48 -17.5 -90.5t-49 -72.5t-73 -46.5t-87.5 -16.5q-47 0 -89 16.5
t-73.5 46.5t-49.5 72.5t-18 90.5zM202 778q-6 0 -10.5 4.5t-4.5 10.5v32q0 6 4.5 10.5t10.5 4.5h223q6 0 10.5 -4.5t4.5 -10.5v-32q0 -6 -4.5 -10.5t-10.5 -4.5h-223z" />
    <glyph glyph-name="umacron" unicode="&#x16b;" horiz-adv-x="540" 
d="M80 190v306q0 6 4.5 10.5t10.5 4.5h36q6 0 10.5 -4.5t4.5 -10.5v-301q0 -26 7 -56t26 -51.5t43 -30.5t48 -9q33 0 60 14.5t45.5 47t18.5 85.5v301q0 6 4.5 10.5t10.5 4.5h36q6 0 10.5 -4.5t4.5 -10.5v-306q0 -35 -10 -71.5t-33.5 -65.5t-60.5 -47.5t-86 -18.5
q-82 0 -136 54t-54 149zM158 628q-6 0 -10.5 4.5t-4.5 10.5v32q0 6 4.5 10.5t10.5 4.5h223q6 0 10.5 -4.5t4.5 -10.5v-32q0 -6 -4.5 -10.5t-10.5 -4.5h-223z" />
    <glyph glyph-name="Ubreve" unicode="&#x16c;" horiz-adv-x="627" 
d="M85 213v448q0 6 4.5 10.5t10.5 4.5h38q6 0 10.5 -4.5t4.5 -10.5v-445q0 -26 8 -54.5t27.5 -53t51.5 -41.5t75 -17q70 0 115 47t45 119v445q0 6 4.5 10.5t10.5 4.5h37q6 0 10.5 -4.5t4.5 -10.5v-448q0 -48 -17.5 -90.5t-49 -72.5t-73 -46.5t-87.5 -16.5q-47 0 -89 16.5
t-73.5 46.5t-49.5 72.5t-18 90.5zM314 748q-34 0 -60.5 17t-38 41.5t-13.5 46.5q0 10 15 10h28q15 0 16 -11q3 -20 17 -34.5t36 -14.5q20 0 34.5 14.5t17.5 34.5q1 11 16 11h28q15 0 14 -11q-2 -31 -20 -57t-43 -36.5t-47 -10.5z" />
    <glyph glyph-name="ubreve" unicode="&#x16d;" horiz-adv-x="540" 
d="M80 190v306q0 6 4.5 10.5t10.5 4.5h36q6 0 10.5 -4.5t4.5 -10.5v-301q0 -26 7 -56t26 -51.5t43 -30.5t48 -9q33 0 60 14.5t45.5 47t18.5 85.5v301q0 6 4.5 10.5t10.5 4.5h36q6 0 10.5 -4.5t4.5 -10.5v-306q0 -35 -10 -71.5t-33.5 -65.5t-60.5 -47.5t-86 -18.5
q-82 0 -136 54t-54 149zM270 598q-34 0 -60.5 17t-38 41.5t-13.5 46.5q0 10 15 10h28q15 0 16 -11q3 -20 17 -34.5t36 -14.5q20 0 34.5 14.5t17.5 34.5q1 11 16 11h28q15 0 14 -11q-2 -31 -20 -57t-43 -36.5t-47 -10.5z" />
    <glyph glyph-name="Uring" unicode="&#x16e;" horiz-adv-x="627" 
d="M85 213v448q0 6 4.5 10.5t10.5 4.5h38q6 0 10.5 -4.5t4.5 -10.5v-445q0 -26 8 -54.5t27.5 -53t51.5 -41.5t75 -17q70 0 115 47t45 119v445q0 6 4.5 10.5t10.5 4.5h37q6 0 10.5 -4.5t4.5 -10.5v-448q0 -48 -17.5 -90.5t-49 -72.5t-73 -46.5t-87.5 -16.5q-47 0 -89 16.5
t-73.5 46.5t-49.5 72.5t-18 90.5zM315 739q-35 0 -61 25.5t-26 60.5q0 34 26 59.5t61 25.5q34 0 59.5 -25.5t25.5 -59.5q0 -16 -8.5 -36t-30 -35t-46.5 -15zM315 789q15 0 25 11.5t10 24.5q0 15 -10.5 25.5t-24.5 10.5q-15 0 -25 -10.5t-10 -25.5q0 -13 10 -24.5t25 -11.5z
" />
    <glyph glyph-name="uring" unicode="&#x16f;" horiz-adv-x="540" 
d="M80 190v306q0 6 4.5 10.5t10.5 4.5h36q6 0 10.5 -4.5t4.5 -10.5v-301q0 -26 7 -56t26 -51.5t43 -30.5t48 -9q33 0 60 14.5t45.5 47t18.5 85.5v301q0 6 4.5 10.5t10.5 4.5h36q6 0 10.5 -4.5t4.5 -10.5v-306q0 -35 -10 -71.5t-33.5 -65.5t-60.5 -47.5t-86 -18.5
q-82 0 -136 54t-54 149zM271 589q-35 0 -61 25.5t-26 60.5q0 34 26 59.5t61 25.5q34 0 59.5 -25.5t25.5 -59.5q0 -16 -8.5 -36t-30 -35t-46.5 -15zM271 639q15 0 25 11.5t10 24.5q0 15 -10.5 25.5t-24.5 10.5q-15 0 -25 -10.5t-10 -25.5q0 -13 10 -24.5t25 -11.5z" />
    <glyph glyph-name="Uhungarumlaut" unicode="&#x170;" horiz-adv-x="627" 
d="M85 213v448q0 6 4.5 10.5t10.5 4.5h38q6 0 10.5 -4.5t4.5 -10.5v-445q0 -26 8 -54.5t27.5 -53t51.5 -41.5t75 -17q70 0 115 47t45 119v445q0 6 4.5 10.5t10.5 4.5h37q6 0 10.5 -4.5t4.5 -10.5v-448q0 -48 -17.5 -90.5t-49 -72.5t-73 -46.5t-87.5 -16.5q-47 0 -89 16.5
t-73.5 46.5t-49.5 72.5t-18 90.5zM390 745l-12 20q-1 2 -2.5 8.5t6.5 12.5l132 87q2 1 8 2.5t12 -7.5l18 -31q4 -6 3 -11.5t-7 -8.5l-138 -78q-12 -7 -20 6zM215 739q-12 -7 -20 6l-12 20q-1 2 -2.5 8.5t6.5 12.5l132 87q2 1 8 2.5t12 -7.5l18 -31q4 -6 3 -11.5t-7 -8.5z
" />
    <glyph glyph-name="uhungarumlaut" unicode="&#x171;" horiz-adv-x="540" 
d="M80 190v306q0 6 4.5 10.5t10.5 4.5h36q6 0 10.5 -4.5t4.5 -10.5v-301q0 -26 7 -56t26 -51.5t43 -30.5t48 -9q33 0 60 14.5t45.5 47t18.5 85.5v301q0 6 4.5 10.5t10.5 4.5h36q6 0 10.5 -4.5t4.5 -10.5v-306q0 -35 -10 -71.5t-33.5 -65.5t-60.5 -47.5t-86 -18.5
q-82 0 -136 54t-54 149zM341 595l-12 20q-1 2 -2.5 8.5t6.5 12.5l132 87q2 1 8 2.5t12 -7.5l18 -31q4 -6 3 -11.5t-7 -8.5l-138 -78q-12 -7 -20 6zM166 589q-12 -7 -20 6l-12 20q-1 2 -2.5 8.5t6.5 12.5l132 87q2 1 8 2.5t12 -7.5l18 -31q4 -6 3 -11.5t-7 -8.5z" />
    <glyph glyph-name="Uogonek" unicode="&#x172;" horiz-adv-x="627" 
d="M85 213v448q0 6 4.5 10.5t10.5 4.5h38q6 0 10.5 -4.5t4.5 -10.5v-445q0 -26 8 -54.5t27.5 -53t51.5 -41.5t75 -17q70 0 115 47t45 119v445q0 6 4.5 10.5t10.5 4.5h37q6 0 10.5 -4.5t4.5 -10.5v-448q0 -54 -24.5 -104.5t-70 -81t-95.5 -37.5q-36 -29 -56.5 -57.5
t-20.5 -60.5q0 -20 12 -31t30 -11q5 0 21.5 2t19.5 -11l5 -20q1 -8 -5 -15t-40 -9q-32 0 -56 14.5t-33 36t-9 40.5q0 25 15 57t52 64q-64 7 -109.5 40.5t-69 80.5t-23.5 103z" />
    <glyph glyph-name="uogonek" unicode="&#x173;" horiz-adv-x="540" 
d="M80 190v306q0 6 4.5 10.5t10.5 4.5h36q6 0 10.5 -4.5t4.5 -10.5v-301q0 -26 7 -56t26 -51.5t43 -30.5t48 -9q33 0 60 14.5t45.5 47t18.5 85.5v301q0 6 4.5 10.5t10.5 4.5h36q6 0 10.5 -4.5t4.5 -10.5v-306q0 -30 -7 -61.5t-24.5 -58.5t-45.5 -47.5t-66 -29.5
q-48 -38 -64.5 -67t-16.5 -54q0 -20 12 -31t30 -11q5 0 21.5 2t19.5 -11l5 -20q1 -8 -5 -15t-40 -9q-32 0 -56 14.5t-33 36t-9 40.5q0 33 19 64.5t47 55.5q-54 6 -91.5 34t-56.5 70t-19 98z" />
    <glyph glyph-name="Wcircumflex" unicode="&#x174;" horiz-adv-x="813" 
d="M166 16l-118 644q-3 16 12 16h38q15 0 18 -17l87 -494q6 -34 11 -93l26 93l121 394q4 13 19 13h53q15 0 19 -13l121 -394l25 -93q6 61 12 93l87 494q1 3 4.5 10t13.5 7h38q6 0 9.5 -4.5t2.5 -11.5l-118 -644q-1 -7 -6.5 -11.5t-11.5 -4.5h-51q-6 0 -12 4.5t-8 11.5
l-128 407q-16 52 -24 87q-9 -41 -23 -87l-128 -407q-1 -3 -5.5 -9.5t-14.5 -6.5h-51q-6 0 -11.5 4.5t-6.5 11.5zM300 751l-16 27q-8 13 4 20l105 64q13 8 26 0l104 -63q6 -4 7.5 -9.5t-2.5 -11.5l-15 -26q-4 -6 -9.5 -7.5t-10.5 2.5l-87 60l-86 -59q-5 -4 -11 -3t-9 6z" />
    <glyph glyph-name="wcircumflex" unicode="&#x175;" horiz-adv-x="772" 
d="M79 169l-23 327q-1 6 3.5 10.5t10.5 4.5h36q14 0 16 -15l21 -323q4 -55 32 -89.5t73 -34.5q46 0 75.5 35t29.5 91v283q0 6 4.5 10.5t10.5 4.5h35q6 0 10.5 -4.5t4.5 -10.5v-283q0 -56 29.5 -91t75.5 -35q22 0 46 11.5t40.5 42t19.5 70.5l21 323q2 15 16 15h36
q6 0 10.5 -4.5t3.5 -10.5l-23 -328q-6 -84 -51.5 -132.5t-118.5 -48.5q-41 0 -77.5 20t-59.5 55q-23 -35 -60 -55t-78 -20q-72 0 -117.5 49.5t-51.5 132.5zM280 601l-16 27q-8 13 4 20l105 64q13 8 26 0l104 -63q6 -4 7.5 -9.5t-2.5 -11.5l-15 -26q-4 -6 -9.5 -7.5
t-10.5 2.5l-87 60l-86 -59q-5 -4 -11 -3t-9 6z" />
    <glyph glyph-name="Ycircumflex" unicode="&#x176;" horiz-adv-x="552" 
d="M242 15v245l-203 398q-3 7 0 12.5t9 5.5h39q7 0 13 -5t9 -11l167 -332l167 332q8 16 22 16h38q8 0 11 -5t-1 -13l-203 -398v-245q0 -6 -4.5 -10.5t-10.5 -4.5h-38q-6 0 -10.5 4.5t-4.5 10.5zM170 751l-16 27q-8 13 4 20l105 64q13 8 26 0l104 -63q6 -4 7.5 -9.5
t-2.5 -11.5l-15 -26q-4 -6 -9.5 -7.5t-10.5 2.5l-87 60l-86 -59q-5 -4 -11 -3t-9 6z" />
    <glyph glyph-name="ycircumflex" unicode="&#x177;" horiz-adv-x="479" 
d="M81 176l-44 320q-1 6 3 10.5t10 4.5h37q6 0 11 -4.5t6 -10.5l43 -311q6 -43 21 -71.5t39 -40t51 -11.5h64l54 433q1 6 6 11t11 5h36q6 0 10 -5t3 -11l-87 -691q-1 -6 -6 -10.5t-11 -4.5h-36q-6 0 -10 4.5t-3 10.5l25 196h-57q-152 0 -176 176zM133 601l-16 27q-8 13 4 20
l105 64q13 8 26 0l104 -63q6 -4 7.5 -9.5t-2.5 -11.5l-15 -26q-4 -6 -9.5 -7.5t-10.5 2.5l-87 60l-86 -59q-5 -4 -11 -3t-9 6z" />
    <glyph glyph-name="Ydieresis" unicode="&#x178;" horiz-adv-x="552" 
d="M242 15v245l-203 398q-3 7 0 12.5t9 5.5h39q7 0 13 -5t9 -11l167 -332l167 332q8 16 22 16h38q8 0 11 -5t-1 -13l-203 -398v-245q0 -6 -4.5 -10.5t-10.5 -4.5h-38q-6 0 -10.5 4.5t-4.5 10.5zM366 759q-18 0 -32 13.5t-14 31.5q0 19 14 33t32 14q19 0 33 -14t14 -33
q0 -18 -14 -31.5t-33 -13.5zM184 759q-18 0 -32 13.5t-14 31.5q0 19 13.5 33t32.5 14t32.5 -14t13.5 -33q0 -18 -14 -31.5t-32 -13.5z" />
    <glyph glyph-name="Zacute" unicode="&#x179;" horiz-adv-x="542" 
d="M50 15v27q0 6 2.5 14.5t5.5 13.5l331 543h-319q-6 0 -10.5 4.5t-4.5 10.5v33q0 6 4.5 10.5t10.5 4.5h388q6 0 10.5 -4.5t4.5 -10.5v-24q0 -15 -8 -28l-332 -546h344q6 0 10 -4.5t3 -10.5l-5 -33q-1 -6 -6 -10.5t-11 -4.5h-403q-6 0 -10.5 4.5t-4.5 10.5zM193 744
q-14 -5 -19 8l-9 24q-2 6 0.5 11t8.5 8l154 67q18 8 25 -9l12 -29q2 -5 -0.5 -12t-9.5 -10z" />
    <glyph glyph-name="zacute" unicode="&#x17a;" horiz-adv-x="465" 
d="M60 15v30q0 15 8 27l253 379h-240q-6 0 -10.5 4.5t-4.5 10.5v30q0 6 4.5 10.5t10.5 4.5h299q6 0 10.5 -4.5t4.5 -10.5v-32q0 -12 -8 -25l-253 -379h256q6 0 9.5 -5t2.5 -11l-5 -29q-1 -6 -6 -10.5t-11 -4.5h-305q-6 0 -10.5 4.5t-4.5 10.5zM159 594q-14 -5 -19 8l-9 24
q-2 6 0.5 11t8.5 8l154 67q18 8 25 -9l12 -29q2 -5 -0.5 -12t-9.5 -10z" />
    <glyph glyph-name="Zdotaccent" unicode="&#x17b;" horiz-adv-x="542" 
d="M50 15v27q0 6 2.5 14.5t5.5 13.5l331 543h-319q-6 0 -10.5 4.5t-4.5 10.5v33q0 6 4.5 10.5t10.5 4.5h388q6 0 10.5 -4.5t4.5 -10.5v-24q0 -15 -8 -28l-332 -546h344q6 0 10 -4.5t3 -10.5l-5 -33q-1 -6 -6 -10.5t-11 -4.5h-403q-6 0 -10.5 4.5t-4.5 10.5zM270 759
q-18 0 -32 13.5t-14 31.5q0 19 14 33t32 14q19 0 33 -14t14 -33q0 -18 -14 -31.5t-33 -13.5z" />
    <glyph glyph-name="zdotaccent" unicode="&#x17c;" horiz-adv-x="465" 
d="M60 15v30q0 15 8 27l253 379h-240q-6 0 -10.5 4.5t-4.5 10.5v30q0 6 4.5 10.5t10.5 4.5h299q6 0 10.5 -4.5t4.5 -10.5v-32q0 -12 -8 -25l-253 -379h256q6 0 9.5 -5t2.5 -11l-5 -29q-1 -6 -6 -10.5t-11 -4.5h-305q-6 0 -10.5 4.5t-4.5 10.5zM232 609q-18 0 -32 13.5
t-14 31.5q0 19 14 33t32 14q19 0 33 -14t14 -33q0 -18 -14 -31.5t-33 -13.5z" />
    <glyph glyph-name="Zcaron" unicode="&#x17d;" horiz-adv-x="542" 
d="M50 15v27q0 6 2.5 14.5t5.5 13.5l331 543h-319q-6 0 -10.5 4.5t-4.5 10.5v33q0 6 4.5 10.5t10.5 4.5h388q6 0 10.5 -4.5t4.5 -10.5v-24q0 -15 -8 -28l-332 -546h344q6 0 10 -4.5t3 -10.5l-5 -33q-1 -6 -6 -10.5t-11 -4.5h-403q-6 0 -10.5 4.5t-4.5 10.5zM258 747l-104 63
q-6 4 -7.5 9.5t2.5 11.5l15 26q4 6 9.5 7.5t10.5 -2.5l87 -60l86 59q5 4 11 3t9 -6l16 -27q8 -13 -4 -20l-105 -64q-13 -8 -26 0z" />
    <glyph glyph-name="zcaron" unicode="&#x17e;" horiz-adv-x="465" 
d="M60 15v30q0 15 8 27l253 379h-240q-6 0 -10.5 4.5t-4.5 10.5v30q0 6 4.5 10.5t10.5 4.5h299q6 0 10.5 -4.5t4.5 -10.5v-32q0 -12 -8 -25l-253 -379h256q6 0 9.5 -5t2.5 -11l-5 -29q-1 -6 -6 -10.5t-11 -4.5h-305q-6 0 -10.5 4.5t-4.5 10.5zM219 597l-104 63
q-6 4 -7.5 9.5t2.5 11.5l15 26q4 6 9.5 7.5t10.5 -2.5l87 -60l86 59q5 4 11 3t9 -6l16 -27q8 -13 -4 -20l-105 -64q-13 -8 -26 0z" />
    <glyph glyph-name="florin" unicode="&#x192;" horiz-adv-x="464" 
d="M126 -73l65 468h-75q-6 0 -10.5 4.5t-4.5 10.5v22q0 6 4.5 10.5t10.5 4.5h83l21 149q8 52 34.5 86t60.5 46t61 12q29 0 56 -6q15 -4 11 -19l-8 -29q-2 -6 -6.5 -9.5t-11.5 -2.5q-20 4 -40 4q-34 0 -60.5 -21t-32.5 -63l-21 -147h115q7 0 10 -4.5t1 -10.5l-9 -24
q-5 -13 -18 -13h-106l-66 -470q-8 -52 -34.5 -86t-60.5 -46t-61 -12q-34 0 -56 6q-6 1 -9 7t-2 12l8 29q1 6 6 9.5t11 2.5q24 -4 41 -4q34 0 60.5 21t32.5 63z" />
    <glyph glyph-name="Scommaaccent" unicode="&#x218;" horiz-adv-x="497" 
d="M53 36l6 31q3 16 22 10q86 -27 158 -27q25 0 54.5 9t49 28t27 40.5t7.5 43.5q0 24 -8.5 47.5t-33 46.5t-107 60t-111.5 64.5t-42 58t-13 70.5q0 76 56 123.5t145 47.5q75 0 153 -27q14 -5 10 -19l-9 -32q-4 -14 -20 -9q-79 24 -134 24q-60 0 -95.5 -28t-35.5 -78
q0 -23 8.5 -44.5t32 -42t96.5 -53.5t103 -55.5t45 -45t22.5 -49t7.5 -57.5q0 -21 -5.5 -47t-20 -50t-39.5 -44.5t-63 -32.5t-80 -12q-79 0 -174 29q-15 5 -12 20zM226 -224h-20q-6 0 -9.5 4t-2.5 11l25 128q3 16 18 16h35q8 0 12 -5t1 -14l-41 -127q-4 -13 -18 -13z" />
    <glyph glyph-name="scommaaccent" unicode="&#x219;" horiz-adv-x="416" 
d="M52 26l6 30q1 7 7 9.5t15 0.5q69 -18 112 -18q47 0 77 23.5t30 59.5q0 17 -7.5 35.5t-28.5 34t-73 37t-77 39.5t-39.5 44.5t-14.5 64.5q0 60 43.5 99t118.5 39q55 0 113 -17q16 -5 12 -19l-9 -31q-4 -14 -21 -9q-51 15 -95 15q-45 0 -69.5 -21.5t-24.5 -55.5
q0 -21 8.5 -35t23 -25.5t80 -39t87 -49.5t31.5 -47t10 -57q0 -42 -22.5 -75.5t-60.5 -52t-92 -18.5q-69 0 -128 19q-6 2 -9.5 8t-2.5 12zM176 -224h-20q-6 0 -9.5 4t-2.5 11l25 128q3 16 18 16h35q8 0 12 -5t1 -14l-41 -127q-4 -13 -18 -13z" />
    <glyph glyph-name="circumflex" unicode="&#x2c6;" horiz-adv-x="460" 
d="M124 601l-16 27q-8 13 4 20l105 64q13 8 26 0l104 -63q6 -4 7.5 -9.5t-2.5 -11.5l-15 -26q-4 -6 -9.5 -7.5t-10.5 2.5l-87 60l-86 -59q-5 -4 -11 -3t-9 6z" />
    <glyph glyph-name="caron" unicode="&#x2c7;" horiz-adv-x="460" 
d="M217 597l-104 63q-6 4 -7.5 9.5t2.5 11.5l15 26q4 6 9.5 7.5t10.5 -2.5l87 -60l86 59q5 4 11 3t9 -6l16 -27q8 -13 -4 -20l-105 -64q-13 -8 -26 0z" />
    <glyph glyph-name="breve" unicode="&#x2d8;" horiz-adv-x="401" 
d="M201 598q-34 0 -60.5 17t-38 41.5t-13.5 46.5q0 10 15 10h28q15 0 16 -11q3 -20 17 -34.5t36 -14.5q20 0 34.5 14.5t17.5 34.5q1 11 16 11h28q15 0 14 -11q-2 -31 -20 -57t-43 -36.5t-47 -10.5z" />
    <glyph glyph-name="dotaccent" unicode="&#x2d9;" horiz-adv-x="263" 
d="M131 609q-18 0 -32 13.5t-14 31.5q0 19 14 33t32 14q19 0 33 -14t14 -33q0 -18 -14 -31.5t-33 -13.5z" />
    <glyph glyph-name="ring" unicode="&#x2da;" horiz-adv-x="342" 
d="M172 589q-35 0 -61 25.5t-26 60.5q0 34 26 59.5t61 25.5q34 0 59.5 -25.5t25.5 -59.5q0 -16 -8.5 -36t-30 -35t-46.5 -15zM172 639q15 0 25 11.5t10 24.5q0 15 -10.5 25.5t-24.5 10.5q-15 0 -25 -10.5t-10 -25.5q0 -13 10 -24.5t25 -11.5z" />
    <glyph glyph-name="ogonek" unicode="&#x2db;" horiz-adv-x="312" 
d="M80 -132q0 28 19 64t63 68h64q-54 -42 -72.5 -71.5t-18.5 -56.5q0 -20 12 -31t30 -11q5 0 21.5 2t19.5 -11l5 -20q1 -8 -5 -15t-40 -9q-32 0 -56 14.5t-33 36t-9 40.5z" />
    <glyph glyph-name="tilde" unicode="&#x2dc;" horiz-adv-x="446" 
d="M107 631l-12 13q-11 11 -4 21q29 44 73 44q17 0 33 -6.5t44 -24.5t42 -18q18 0 35 17q5 5 11 5.5t10 -4.5l13 -13q9 -9 1 -23q-29 -41 -70 -41q-17 0 -33.5 6.5t-44 24t-41.5 17.5q-17 0 -38 -18q-9 -9 -19 0z" />
    <glyph glyph-name="hungarumlaut" unicode="&#x2dd;" horiz-adv-x="556" 
d="M300 595l-12 20q-1 2 -2.5 8.5t6.5 12.5l132 87q2 1 8 2.5t12 -7.5l18 -31q4 -6 3 -11.5t-7 -8.5l-138 -78q-12 -7 -20 6zM125 589q-12 -7 -20 6l-12 20q-1 2 -2.5 8.5t6.5 12.5l132 87q2 1 8 2.5t12 -7.5l18 -31q4 -6 3 -11.5t-7 -8.5z" />
    <glyph glyph-name="Omega" unicode="&#x3a9;" horiz-adv-x="701" 
d="M65 15v31q0 6 4.5 10.5t10.5 4.5h131v77q-70 34 -108 97.5t-38 140.5v69q0 55 19.5 105.5t56.5 88t91 59t118 21.5q65 0 118.5 -22t91 -60.5t57 -88.5t19.5 -103v-69q0 -37 -12 -82.5t-45.5 -88t-87.5 -68.5v-76h130q6 0 10.5 -4.5t4.5 -10.5v-31q0 -6 -4.5 -10.5
t-10.5 -4.5h-180q-6 0 -10.5 4.5t-4.5 10.5v170q43 15 75 44t51 68.5t19 81.5v63q0 35 -13.5 73t-41 70.5t-70 52.5t-96.5 20q-41 0 -81 -13.5t-71 -43.5t-49.5 -72t-18.5 -87v-63q0 -26 12 -64.5t46.5 -76t86.5 -54.5v-169q0 -6 -4.5 -10.5t-10.5 -4.5h-180q-6 0 -10.5 4.5
t-4.5 10.5z" />
    <glyph glyph-name="pi" unicode="&#x3c0;" horiz-adv-x="734" 
d="M157 15v434h-67q-6 0 -10.5 4.5t-4.5 10.5v32q0 6 4.5 10.5t10.5 4.5h554q6 0 10.5 -4.5t4.5 -10.5v-32q0 -6 -4.5 -10.5t-10.5 -4.5h-67v-434q0 -6 -4.5 -10.5t-10.5 -4.5h-35q-6 0 -10.5 4.5t-4.5 10.5v434h-291v-434q0 -6 -4.5 -10.5t-10.5 -4.5h-34q-6 0 -10.5 4.5
t-4.5 10.5z" />
    <glyph glyph-name="Wgrave" unicode="&#x1e80;" horiz-adv-x="813" 
d="M166 16l-118 644q-3 16 12 16h38q15 0 18 -17l87 -494q6 -34 11 -93l26 93l121 394q4 13 19 13h53q15 0 19 -13l121 -394l25 -93q6 61 12 93l87 494q1 3 4.5 10t13.5 7h38q6 0 9.5 -4.5t2.5 -11.5l-118 -644q-1 -7 -6.5 -11.5t-11.5 -4.5h-51q-6 0 -12 4.5t-8 11.5
l-128 407q-16 52 -24 87q-9 -41 -23 -87l-128 -407q-1 -3 -5.5 -9.5t-14.5 -6.5h-51q-6 0 -11.5 4.5t-6.5 11.5zM479 744l-165 59q-6 2 -8.5 7.5t0.5 11.5l14 34q6 14 20 8l158 -69q5 -2 8 -8t1 -11l-9 -24q-2 -6 -7.5 -8t-11.5 0z" />
    <glyph glyph-name="wgrave" unicode="&#x1e81;" horiz-adv-x="772" 
d="M79 169l-23 327q-1 6 3.5 10.5t10.5 4.5h36q14 0 16 -15l21 -323q4 -55 32 -89.5t73 -34.5q46 0 75.5 35t29.5 91v283q0 6 4.5 10.5t10.5 4.5h35q6 0 10.5 -4.5t4.5 -10.5v-283q0 -56 29.5 -91t75.5 -35q22 0 46 11.5t40.5 42t19.5 70.5l21 323q2 15 16 15h36
q6 0 10.5 -4.5t3.5 -10.5l-23 -328q-6 -84 -51.5 -132.5t-118.5 -48.5q-41 0 -77.5 20t-59.5 55q-23 -35 -60 -55t-78 -20q-72 0 -117.5 49.5t-51.5 132.5zM459 594l-165 59q-6 2 -8.5 7.5t0.5 11.5l14 34q6 14 20 8l158 -69q5 -2 8 -8t1 -11l-9 -24q-2 -6 -7.5 -8t-11.5 0z
" />
    <glyph glyph-name="Wacute" unicode="&#x1e82;" horiz-adv-x="813" 
d="M166 16l-118 644q-3 16 12 16h38q15 0 18 -17l87 -494q6 -34 11 -93l26 93l121 394q4 13 19 13h53q15 0 19 -13l121 -394l25 -93q6 61 12 93l87 494q1 3 4.5 10t13.5 7h38q6 0 9.5 -4.5t2.5 -11.5l-118 -644q-1 -7 -6.5 -11.5t-11.5 -4.5h-51q-6 0 -12 4.5t-8 11.5
l-128 407q-16 52 -24 87q-9 -41 -23 -87l-128 -407q-1 -3 -5.5 -9.5t-14.5 -6.5h-51q-6 0 -11.5 4.5t-6.5 11.5zM333 744q-14 -5 -19 8l-9 24q-2 6 0.5 11t8.5 8l154 67q18 8 25 -9l12 -29q2 -5 -0.5 -12t-9.5 -10z" />
    <glyph glyph-name="wacute" unicode="&#x1e83;" horiz-adv-x="772" 
d="M79 169l-23 327q-1 6 3.5 10.5t10.5 4.5h36q14 0 16 -15l21 -323q4 -55 32 -89.5t73 -34.5q46 0 75.5 35t29.5 91v283q0 6 4.5 10.5t10.5 4.5h35q6 0 10.5 -4.5t4.5 -10.5v-283q0 -56 29.5 -91t75.5 -35q22 0 46 11.5t40.5 42t19.5 70.5l21 323q2 15 16 15h36
q6 0 10.5 -4.5t3.5 -10.5l-23 -328q-6 -84 -51.5 -132.5t-118.5 -48.5q-41 0 -77.5 20t-59.5 55q-23 -35 -60 -55t-78 -20q-72 0 -117.5 49.5t-51.5 132.5zM313 594q-14 -5 -19 8l-9 24q-2 6 0.5 11t8.5 8l154 67q18 8 25 -9l12 -29q2 -5 -0.5 -12t-9.5 -10z" />
    <glyph glyph-name="Wdieresis" unicode="&#x1e84;" horiz-adv-x="813" 
d="M166 16l-118 644q-3 16 12 16h38q15 0 18 -17l87 -494q6 -34 11 -93l26 93l121 394q4 13 19 13h53q15 0 19 -13l121 -394l25 -93q6 61 12 93l87 494q1 3 4.5 10t13.5 7h38q6 0 9.5 -4.5t2.5 -11.5l-118 -644q-1 -7 -6.5 -11.5t-11.5 -4.5h-51q-6 0 -12 4.5t-8 11.5
l-128 407q-16 52 -24 87q-9 -41 -23 -87l-128 -407q-1 -3 -5.5 -9.5t-14.5 -6.5h-51q-6 0 -11.5 4.5t-6.5 11.5zM497 759q-18 0 -32 13.5t-14 31.5q0 19 14 33t32 14q19 0 33 -14t14 -33q0 -18 -14 -31.5t-33 -13.5zM315 759q-18 0 -32 13.5t-14 31.5q0 19 13.5 33t32.5 14
t32.5 -14t13.5 -33q0 -18 -14 -31.5t-32 -13.5z" />
    <glyph glyph-name="wdieresis" unicode="&#x1e85;" horiz-adv-x="772" 
d="M79 169l-23 327q-1 6 3.5 10.5t10.5 4.5h36q14 0 16 -15l21 -323q4 -55 32 -89.5t73 -34.5q46 0 75.5 35t29.5 91v283q0 6 4.5 10.5t10.5 4.5h35q6 0 10.5 -4.5t4.5 -10.5v-283q0 -56 29.5 -91t75.5 -35q22 0 46 11.5t40.5 42t19.5 70.5l21 323q2 15 16 15h36
q6 0 10.5 -4.5t3.5 -10.5l-23 -328q-6 -84 -51.5 -132.5t-118.5 -48.5q-41 0 -77.5 20t-59.5 55q-23 -35 -60 -55t-78 -20q-72 0 -117.5 49.5t-51.5 132.5zM476 609q-18 0 -32 13.5t-14 31.5q0 19 14 33t32 14q19 0 33 -14t14 -33q0 -18 -14 -31.5t-33 -13.5zM294 609
q-18 0 -32 13.5t-14 31.5q0 19 13.5 33t32.5 14t32.5 -14t13.5 -33q0 -18 -14 -31.5t-32 -13.5z" />
    <glyph glyph-name="Ygrave" unicode="&#x1ef2;" horiz-adv-x="552" 
d="M242 15v245l-203 398q-3 7 0 12.5t9 5.5h39q7 0 13 -5t9 -11l167 -332l167 332q8 16 22 16h38q8 0 11 -5t-1 -13l-203 -398v-245q0 -6 -4.5 -10.5t-10.5 -4.5h-38q-6 0 -10.5 4.5t-4.5 10.5zM349 744l-165 59q-6 2 -8.5 7.5t0.5 11.5l14 34q6 14 20 8l158 -69q5 -2 8 -8
t1 -11l-9 -24q-2 -6 -7.5 -8t-11.5 0z" />
    <glyph glyph-name="ygrave" unicode="&#x1ef3;" horiz-adv-x="479" 
d="M81 176l-44 320q-1 6 3 10.5t10 4.5h37q6 0 11 -4.5t6 -10.5l43 -311q6 -43 21 -71.5t39 -40t51 -11.5h64l54 433q1 6 6 11t11 5h36q6 0 10 -5t3 -11l-87 -691q-1 -6 -6 -10.5t-11 -4.5h-36q-6 0 -10 4.5t-3 10.5l25 196h-57q-152 0 -176 176zM312 594l-165 59
q-6 2 -8.5 7.5t0.5 11.5l14 34q6 14 20 8l158 -69q5 -2 8 -8t1 -11l-9 -24q-2 -6 -7.5 -8t-11.5 0z" />
    <glyph glyph-name="endash" unicode="&#x2013;" horiz-adv-x="500" 
d="M15 249q-6 0 -10.5 4.5t-4.5 10.5v31q0 6 4.5 10.5t10.5 4.5h470q6 0 10.5 -4.5t4.5 -10.5v-31q0 -6 -4.5 -10.5t-10.5 -4.5h-470z" />
    <glyph glyph-name="emdash" unicode="&#x2014;" horiz-adv-x="1000" 
d="M15 249q-6 0 -10.5 4.5t-4.5 10.5v31q0 6 4.5 10.5t10.5 4.5h970q6 0 10.5 -4.5t4.5 -10.5v-31q0 -6 -4.5 -10.5t-10.5 -4.5h-970z" />
    <glyph glyph-name="quoteleft" unicode="&#x2018;" horiz-adv-x="228" 
d="M83 519q-6 0 -9.5 5t-1.5 12l53 184q1 5 6 9t10 3l24 -4q12 -2 9 -18l-33 -175q-3 -16 -18 -16h-40z" />
    <glyph glyph-name="quoteright" unicode="&#x2019;" horiz-adv-x="228" 
d="M81 523q-12 2 -9 18l33 175q3 16 18 16h39q6 0 10 -5t2 -12l-53 -184q-1 -5 -6.5 -9t-10.5 -3z" />
    <glyph glyph-name="quotesinglbase" unicode="&#x201a;" horiz-adv-x="248" 
d="M95 59q3 16 18 16h40q6 0 9.5 -5t1.5 -12l-53 -184q-1 -5 -6 -9t-10 -3l-24 4q-12 2 -9 18z" />
    <glyph glyph-name="quotedblleft" unicode="&#x201c;" horiz-adv-x="357" 
d="M215 519q-6 0 -9.5 5t-1.5 12l53 184q1 5 6 9t10 3l24 -4q12 -2 9 -18l-33 -175q-3 -16 -18 -16h-40zM86 519q-6 0 -9.5 5t-1.5 12l53 184q1 5 6 9t10 3l24 -4q12 -2 9 -18l-33 -175q-3 -16 -18 -16h-40z" />
    <glyph glyph-name="quotedblright" unicode="&#x201d;" horiz-adv-x="357" 
d="M209 523q-12 2 -9 18l33 175q3 16 18 16h40q6 0 9.5 -5t1.5 -12l-53 -184q-1 -5 -6 -9t-10 -3zM80 523q-12 2 -9 18l33 175q3 16 18 16h40q6 0 9.5 -5t1.5 -12l-53 -184q-1 -5 -6 -9t-10 -3z" />
    <glyph glyph-name="quotedblbase" unicode="&#x201e;" horiz-adv-x="377" 
d="M191 -116l33 175q3 16 18 16h40q6 0 9.5 -5t1.5 -12l-53 -184q-1 -5 -6 -9t-10 -3l-24 4q-12 2 -9 18zM95 59q3 16 18 16h40q6 0 9.5 -5t1.5 -12l-53 -184q-1 -5 -6 -9t-10 -3l-24 4q-12 2 -9 18z" />
    <glyph glyph-name="dagger" unicode="&#x2020;" horiz-adv-x="445" 
d="M190 15v413h-100q-6 0 -10.5 4.5t-4.5 10.5v26q0 6 4.5 10.5t10.5 4.5h100v157q0 6 4.5 10.5t10.5 4.5h35q6 0 10.5 -4.5t4.5 -10.5v-157h100q6 0 10.5 -4.5t4.5 -10.5v-26q0 -6 -4.5 -10.5t-10.5 -4.5h-100v-413q0 -6 -4.5 -10.5t-10.5 -4.5h-35q-6 0 -10.5 4.5
t-4.5 10.5z" />
    <glyph glyph-name="daggerdbl" unicode="&#x2021;" horiz-adv-x="445" 
d="M190 15v170h-100q-6 0 -10.5 4.5t-4.5 10.5v25q0 6 4.5 10.5t10.5 4.5h100v175h-100q-6 0 -10.5 4.5t-4.5 10.5v26q0 6 4.5 10.5t10.5 4.5h100v170q0 6 4.5 10.5t10.5 4.5h35q6 0 10.5 -4.5t4.5 -10.5v-170h100q6 0 10.5 -4.5t4.5 -10.5v-26q0 -6 -4.5 -10.5t-10.5 -4.5
h-100v-175h100q6 0 10.5 -4.5t4.5 -10.5v-25q0 -6 -4.5 -10.5t-10.5 -4.5h-100v-170q0 -6 -4.5 -10.5t-10.5 -4.5h-35q-6 0 -10.5 4.5t-4.5 10.5z" />
    <glyph glyph-name="bullet" unicode="&#x2022;" horiz-adv-x="495" 
d="M247 127q-38 0 -75 20t-57 57t-20 75q0 23 8 48.5t27 48.5t49 39.5t68 16.5q23 0 48.5 -8t48.5 -27t39.5 -49.5t16.5 -68.5q0 -23 -8 -48.5t-27 -48t-49.5 -39t-68.5 -16.5z" />
    <glyph glyph-name="ellipsis" unicode="&#x2026;" horiz-adv-x="802" 
d="M635 33q0 19 14 32t33 13q18 0 31.5 -13t13.5 -32q0 -18 -13.5 -32t-31.5 -14q-19 0 -33 13.5t-14 32.5zM354 33q0 19 14 32t33 13t32.5 -13t13.5 -32q0 -18 -14 -32t-32 -14q-19 0 -33 14t-14 32zM75 33q0 19 14 32t33 13q18 0 32 -13t14 -32q0 -18 -14 -32t-32 -14
q-19 0 -33 13.5t-14 32.5z" />
    <glyph glyph-name="perthousand" unicode="&#x2030;" horiz-adv-x="1234" 
d="M219 316q-39 0 -75 18t-54.5 54.5t-18.5 79.5v69q0 69 41.5 110.5t106.5 41.5q64 0 106.5 -41.5t42.5 -110.5v-69q0 -69 -42.5 -110.5t-106.5 -41.5zM244 19l307 642q7 15 22 15h32q7 0 10 -5t0 -12l-308 -644q-7 -15 -22 -15h-32q-7 0 -10 5.5t1 13.5zM219 369
q41 0 65.5 25.5t24.5 75.5v65q0 50 -24.5 75t-65.5 25t-65.5 -25t-24.5 -75v-65q0 -50 24.5 -75.5t65.5 -25.5zM866 140v68q0 43 17 76.5t50 55t81 21.5q64 0 106.5 -42t42.5 -111v-68q0 -69 -42.5 -111t-106.5 -42q-48 0 -81 21.5t-50 55t-17 76.5zM499 140v68
q0 43 17 76.5t50 55t81 21.5q64 0 106.5 -42t42.5 -111v-68q0 -69 -42.5 -111t-106.5 -42q-48 0 -81 21.5t-50 55t-17 76.5zM924 142q0 -51 24.5 -76t65.5 -25t65.5 25t24.5 76v64q0 51 -24.5 76t-65.5 25t-65.5 -25t-24.5 -76v-64zM557 142q0 -51 24.5 -76t65.5 -25
t65.5 25t24.5 76v64q0 51 -24.5 76t-65.5 25t-65.5 -25t-24.5 -76v-64z" />
    <glyph glyph-name="guilsinglleft" unicode="&#x2039;" horiz-adv-x="323" 
d="M195 125l-118 142q-4 5 -4 12t4 12l118 143q4 5 10.5 5.5t11.5 -3.5l24 -20q5 -4 5.5 -10.5t-3.5 -11.5l-96 -115l96 -115q4 -5 4 -11t-5 -10l-25 -20q-5 -4 -11.5 -3.5t-10.5 5.5z" />
    <glyph glyph-name="guilsinglright" unicode="&#x203a;" horiz-adv-x="326" 
d="M106 123l-25 20q-2 2 -5 7.5t4 13.5l96 115l-96 115q-4 5 -3.5 11.5t5.5 10.5l24 20q5 4 11.5 3.5t10.5 -5.5l118 -143q4 -5 4 -12t-4 -12l-118 -142q-4 -5 -10.5 -5.5t-11.5 3.5z" />
    <glyph glyph-name="Euro" unicode="&#x20ac;" horiz-adv-x="522" 
d="M52 228q-6 0 -10.5 4.5t-4.5 10.5v29q0 6 4.5 10.5t10.5 4.5h70v102h-70q-6 0 -10.5 4.5t-4.5 10.5v29q0 6 4.5 10.5t10.5 4.5h70q1 41 12 83.5t42 81.5t78 57.5t96 18.5q57 0 122 -13q6 -1 9.5 -6.5t2.5 -13.5l-5 -28q-3 -17 -17 -14q-58 12 -111 12q-45 0 -83 -21
t-57.5 -63.5t-20.5 -93.5h198q6 0 9.5 -4t2.5 -11l-6 -29q-3 -15 -18 -15h-186v-102h170q6 0 9.5 -4t2.5 -11l-6 -29q-3 -15 -18 -15h-158q1 -51 20.5 -93.5t57.5 -63.5t83 -21q55 0 111 12q6 1 11 -2.5t6 -10.5l5 -29q1 -7 -2.5 -13t-9.5 -7q-67 -13 -122 -13q-49 0 -91 16
t-72.5 47.5t-47 76.5t-17.5 101h-70z" />
    <glyph glyph-name="trademark" unicode="&#x2122;" horiz-adv-x="766" 
d="M355 377q-6 0 -10 4.5t-3 10.5l33 267q1 6 6 11t11 5h33q13 0 18 -13l65 -171l65 171q5 13 18 13h33q7 0 11.5 -4.5t5.5 -11.5l33 -267q1 -6 -3 -10.5t-10 -4.5h-21q-6 0 -11 4.5t-6 10.5l-24 196l-59 -154q-5 -13 -18 -13h-28q-13 0 -18 13l-59 154l-24 -194
q-1 -8 -5.5 -12.5t-11.5 -4.5h-21zM192 377q-6 0 -10.5 4.5t-4.5 10.5v235h-73q-14 0 -14 14v20q0 14 14 14h202q6 0 10 -4t3 -10l-3 -20q-2 -14 -16 -14h-68v-235q0 -6 -4.5 -10.5t-10.5 -4.5h-25z" />
    <glyph glyph-name="uni2206" unicode="&#x2206;" horiz-adv-x="751" 
d="M54 22l274 670q2 6 8 10.5t13 4.5h55q15 0 21 -15l272 -670q3 -7 -1.5 -14.5t-13.5 -7.5h-617q-7 0 -10.5 7t-0.5 15zM140 61h472l-236 577z" />
    <glyph glyph-name="product" unicode="&#x220f;" horiz-adv-x="790" 
d="M157 -117v731h-67q-6 0 -10.5 4.5t-4.5 10.5v31q0 6 4.5 10.5t10.5 4.5h610q6 0 10.5 -4.5t4.5 -10.5v-31q0 -6 -4.5 -10.5t-10.5 -4.5h-67v-731q0 -6 -4.5 -10.5t-10.5 -4.5h-35q-6 0 -10.5 4.5t-4.5 10.5v731h-346v-731q0 -6 -4.5 -10.5t-10.5 -4.5h-35q-6 0 -10.5 4.5
t-4.5 10.5z" />
    <glyph glyph-name="summation" unicode="&#x2211;" horiz-adv-x="688" 
d="M84 -56l267 328l-267 329q-9 11 -9 26v33q0 6 4.5 10.5t10.5 4.5h508q6 0 10.5 -4.5t4.5 -10.5v-31q0 -6 -4.5 -10.5t-10.5 -4.5h-441l265 -327q5 -6 5 -15t-5 -15l-265 -327h441q6 0 10.5 -4.5t4.5 -10.5v-31q0 -6 -4.5 -10.5t-10.5 -4.5h-508q-6 0 -10.5 4.5t-4.5 10.5
v34q0 15 9 26z" />
    <glyph glyph-name="radical" unicode="&#x221a;" horiz-adv-x="587" 
d="M243 18l-151 441h-48q-12 0 -16 10l-11 26q-3 7 0 11.5t10 4.5h101q6 0 12 -4.5t8 -10.5l115 -344l23 -76l24 76l193 565q2 6 8 10.5t12 4.5h35q8 0 11.5 -6t0.5 -14l-239 -695q-6 -17 -21 -17h-46q-15 0 -21 18z" />
    <glyph glyph-name="integral" unicode="&#x222b;" horiz-adv-x="389" 
d="M44 -154q15 -3 33 -3q26 0 47 11.5t30 31.5t9 40v669q0 26 8 51.5t29 48.5t52.5 34t58.5 11q21 0 48 -6q15 -4 12 -19l-6 -30q-1 -3 -4.5 -8t-14.5 -3q-18 4 -34 4q-35 0 -60 -21.5t-25 -61.5v-669q0 -26 -8 -52t-29 -48.5t-52.5 -33.5t-59.5 -11q-20 0 -45 5
q-7 2 -11.5 7t-3.5 12l6 30q1 6 7 9t13 2z" />
    <glyph glyph-name="approxequal" unicode="&#x2248;" horiz-adv-x="547" 
d="M105 378l-17 15q-5 4 -6 11.5t4 13.5q23 27 49.5 41t51.5 14q20 0 41.5 -8t49.5 -28l38.5 -27.5t22.5 -11.5t21 -4q14 0 27 6t31 25q4 5 11 6t11 -3l21 -17q11 -11 0 -24q-49 -55 -101 -55q-26 0 -49 10.5t-61.5 39.5t-62.5 29q-32 0 -58 -31q-4 -5 -11.5 -6t-12.5 4z
M105 158l-17 15q-5 4 -6 11.5t4 13.5q23 27 49.5 41t51.5 14q20 0 41.5 -8t49.5 -28l38.5 -27.5t22.5 -11.5t21 -4q14 0 27 6t31 25q4 5 11 6t11 -3l21 -17q11 -11 0 -24q-49 -55 -101 -55q-26 0 -49 10.5t-61.5 39.5t-62.5 29q-32 0 -58 -31q-4 -5 -11.5 -6t-12.5 4z" />
    <glyph glyph-name="notequal" unicode="&#x2260;" horiz-adv-x="560" 
d="M90 146q-6 0 -10.5 4.5t-4.5 10.5v30q0 6 4.5 10.5t10.5 4.5h136l53 146h-189q-6 0 -10.5 4.5t-4.5 10.5v30q0 6 4.5 10.5t10.5 4.5h211l33 90q6 17 23 11l21 -8q6 -2 8.5 -7.5t0.5 -11.5l-27 -74h110q6 0 10.5 -4.5t4.5 -10.5v-30q0 -6 -4.5 -10.5t-10.5 -4.5h-132
l-53 -146h185q6 0 10.5 -4.5t4.5 -10.5v-30q0 -6 -4.5 -10.5t-10.5 -4.5h-207l-36 -101q-2 -6 -7.5 -8.5t-11.5 -0.5l-25 9q-6 2 -8.5 7.5t-0.5 11.5l30 82h-114z" />
    <glyph glyph-name="lessequal" unicode="&#x2264;" horiz-adv-x="512" 
d="M88 247q-13 7 -13 22v20q0 6 3.5 12.5t9.5 9.5l305 168q7 4 13.5 3t9.5 -7l14 -25q3 -6 1.5 -11.5t-7.5 -8.5l-274 -151l274 -151q6 -3 7.5 -8.5t-1.5 -11.5l-14 -25q-3 -6 -8.5 -7.5t-11.5 1.5zM77 4q0 6 4.5 10.5t10.5 4.5h326q6 0 10.5 -4.5t4.5 -10.5v-27
q0 -6 -4.5 -10.5t-10.5 -4.5h-326q-6 0 -10.5 4.5t-4.5 10.5v27z" />
    <glyph glyph-name="greaterequal" unicode="&#x2265;" horiz-adv-x="512" 
d="M96 83l-14 25q-3 6 -1.5 11.5t7.5 8.5l274 151l-274 151q-6 3 -7.5 8.5t1.5 11.5l14 25q3 6 9.5 7t13.5 -3l305 -168q2 -1 7.5 -6.5t5.5 -15.5v-20q0 -15 -13 -22l-308 -170q-6 -3 -11.5 -1.5t-8.5 7.5zM79 4q0 6 4.5 10.5t10.5 4.5h326q6 0 10.5 -4.5t4.5 -10.5v-27
q0 -6 -4.5 -10.5t-10.5 -4.5h-326q-6 0 -10.5 4.5t-4.5 10.5v27z" />
    <glyph glyph-name="lozenge" unicode="&#x25ca;" horiz-adv-x="695" 
d="M56 313q-4 5 -4 12.5t4 11.5l276 303q5 5 11.5 5t10.5 -5l277 -304q10 -12 0 -24l-276 -302q-4 -5 -11 -5t-11 5zM132 325l212 -233l212 232l-213 234z" />
    <glyph glyph-name="uniF8FF" unicode="&#xf8ff;" horiz-adv-x="0" 
 />
    <glyph glyph-name="glyph356" horiz-adv-x="210" 
d="M92 -224h-20q-6 0 -9.5 4t-2.5 11l25 128q3 16 18 16h35q8 0 12 -5t1 -14l-41 -127q-4 -13 -18 -13z" />
    <glyph glyph-name="zero.oldstyle" 
d="M506 325v-88q0 -59 -17 -106.5t-47 -79.5t-70.5 -48t-85.5 -16q-21 0 -48.5 5t-56 20t-55 43t-44 75.5t-17.5 106.5v88q0 59 17 106.5t47 79t70.5 47.5t85.5 16t85.5 -16t71 -47.5t47.5 -79t17 -106.5zM440 237v88q0 90 -42.5 139t-112.5 49q-69 0 -111.5 -49t-42.5 -139
v-88q0 -91 42.5 -140t112.5 -49q69 0 111.5 49t42.5 140z" />
    <glyph glyph-name="one.oldstyle" horiz-adv-x="377" 
d="M216 15v484l-143 -29q-7 -1 -11 2.5t-4 9.5v33q0 15 16 18l192 36q7 1 11.5 -2.5t4.5 -9.5v-542q0 -6 -4.5 -10.5t-10.5 -4.5h-36q-6 0 -10.5 4.5t-4.5 10.5z" />
    <glyph glyph-name="two.oldstyle" horiz-adv-x="482" 
d="M395 0h-323q-6 0 -10.5 4.5t-4.5 10.5v22q0 73 33.5 122.5t110.5 95.5q8 5 28 16.5t32.5 19t26.5 18t27 24t21.5 32t8.5 42.5q0 32 -18 58.5t-46 37t-53 10.5q-59 0 -122 -27q-16 -6 -22 7l-11 25q-3 6 1 14t12 11q72 31 142 31q57 0 99 -23.5t64 -60t22 -83.5
q0 -54 -32 -94t-99.5 -82t-86.5 -57t-32.5 -30t-24 -35.5t-10.5 -48.5h275q6 0 10 -4.5t3 -10.5l-4 -30q-1 -7 -5.5 -11t-11.5 -4z" />
    <glyph glyph-name="three.oldstyle" horiz-adv-x="465" 
d="M25 -87l10 31q1 6 7 8.5t12 0.5q64 -20 124 -20q54 0 92.5 21t58.5 54.5t20 78.5q0 46 -20 76.5t-55 46.5t-87 16h-53q-14 0 -17 15l-6 30q-3 15 6 25l185 205h-254q-14 0 -16 15l-4 30q-1 6 3 10.5t10 4.5h318q7 0 12.5 -4.5t6.5 -12.5l5 -27q3 -16 -7 -27l-188 -204
q48 0 90 -13t73 -38t48.5 -63t17.5 -85q0 -36 -12.5 -73.5t-46 -72.5t-83 -52t-97.5 -17q-71 0 -143 22q-7 2 -9.5 7.5t-0.5 11.5z" />
    <glyph glyph-name="four.oldstyle" horiz-adv-x="544" 
d="M76 45q-6 0 -11.5 5t-6.5 13l-4 24q-3 18 1 31l132 427q5 16 20 16h32q7 0 11 -5.5t1 -14.5l-129 -434h207v210q0 6 4 11t10 6l38 6q6 1 10 -3t4 -12v-218h83q6 0 10.5 -4.5t4.5 -10.5v-32q0 -6 -4.5 -10.5t-10.5 -4.5h-83v-144q0 -6 -4.5 -11t-10.5 -6l-36 -6
q-6 -1 -10.5 3t-4.5 10v154h-253z" />
    <glyph glyph-name="five.oldstyle" horiz-adv-x="502" 
d="M41 -85l6 29q1 7 7 9.5t13 0.5q70 -21 143 -21q26 0 56 9t55 29t40 51.5t15 73.5q0 77 -43 109t-126 32h-118q-6 0 -10 4.5t-4 10.5l10 294q0 6 5 10.5t11 4.5h307q6 0 9 -4.5t1 -10.5l-11 -33q-3 -13 -16 -13h-242l-7 -203h76q109 0 167.5 -50.5t58.5 -148.5
q0 -40 -13.5 -81t-44.5 -73t-76 -52t-100 -20q-39 0 -82 7t-75 17q-7 2 -10.5 6.5t-1.5 12.5z" />
    <glyph glyph-name="six.oldstyle" horiz-adv-x="545" 
d="M65 206v237q0 50 14.5 95t42.5 79t70.5 53t96.5 19q58 0 125 -18q18 -5 14 -23l-6 -26q-1 -6 -7.5 -10t-13.5 -2q-63 18 -112 18t-83.5 -22t-54.5 -63t-20 -100v-41q73 40 148 40q55 0 106 -26t79 -80t28 -121q0 -26 -5.5 -57.5t-20.5 -61t-41 -54.5t-65 -40t-82 -15
t-82 14.5t-68.5 42.5t-46 69.5t-16.5 92.5zM131 205q0 -39 16.5 -77t51.5 -59t78 -21q44 0 76 20t51.5 57.5t19.5 89.5q0 74 -39.5 120.5t-107.5 46.5q-35 0 -73.5 -10.5t-72.5 -29.5v-137z" />
    <glyph glyph-name="seven.oldstyle" horiz-adv-x="475" 
d="M176 -99q0 172 47 320t153 280h-332q-15 0 -16 15l-2 30q-1 15 14 15h395q6 0 10.5 -4.5t4.5 -10.5v-28q0 -15 -11 -29q-84 -107 -122 -192.5t-54.5 -184.5t-17.5 -212q0 -6 -4.5 -10.5t-10.5 -4.5h-39q-15 0 -15 16z" />
    <glyph glyph-name="eight.oldstyle" horiz-adv-x="559" 
d="M59 167q0 60 35 103.5t114 81.5q-59 30 -93.5 70t-34.5 100q0 43 23.5 83t71 62t104.5 22q87 0 144.5 -47.5t57.5 -119.5q0 -31 -12 -61t-42.5 -56t-74.5 -48q79 -36 113.5 -81t34.5 -108q0 -30 -11.5 -61.5t-39 -58t-70.5 -44t-100 -17.5q-42 0 -82 12.5t-71 36
t-49 57.5t-18 74zM285 386q44 20 73.5 40.5t42 45t12.5 50.5q0 48 -37.5 77t-96.5 29q-58 0 -94.5 -29t-36.5 -77q0 -26 13 -50.5t44 -44.5t80 -41zM127 168q0 -27 14.5 -54.5t52.5 -46.5t85 -19q45 0 84 18.5t54 46t15 55.5q0 35 -19 61.5t-50.5 46.5t-88.5 45
q-88 -39 -117.5 -74.5t-29.5 -78.5z" />
    <glyph glyph-name="nine.oldstyle" horiz-adv-x="547" 
d="M118 -91l7 33q1 6 7 8.5t13 0.5q65 -18 113 -18q49 0 83.5 22t54.5 63t20 100v41q-73 -40 -148 -40q-44 0 -82.5 15t-68 44t-46 72t-16.5 96q0 54 16.5 97t46 72t68.5 44t83 15q43 0 82 -14.5t68.5 -42.5t46 -69.5t16.5 -92.5v-237q0 -50 -14.5 -95t-43 -79t-71 -53
t-95.5 -19q-61 0 -129 19q-14 4 -11 18zM270 179q35 0 73.5 10.5t72.5 29.5v137q0 39 -16.5 77t-51.5 59t-78 21q-44 0 -76 -20t-51.5 -57.5t-19.5 -89.5q0 -74 39.5 -120.5t107.5 -46.5z" />
    <glyph glyph-name="dollar.oldstyle" horiz-adv-x="498" 
d="M49 36l6 31q1 7 7.5 9.5t14.5 0.5q86 -27 158 -27q25 0 54.5 9t49 28t27 40.5t7.5 43.5q0 16 -4.5 34t-16 34.5t-34.5 32.5t-99.5 46t-105.5 55t-42 55t-13 70q0 69 46 114.5t121 54.5v98q0 6 4.5 10.5t10.5 4.5h33q6 0 10.5 -4.5t4.5 -10.5v-97q57 -4 124 -26
q14 -5 10 -19l-9 -32q-4 -14 -20 -9q-79 24 -134 24q-60 0 -95.5 -28t-35.5 -78q0 -37 23 -66.5t104.5 -61t107.5 -49t41.5 -35.5t27 -45.5t11.5 -69.5q0 -29 -8.5 -58.5t-29 -55t-52.5 -44t-77 -25.5v-99q0 -6 -4.5 -10.5t-10.5 -4.5h-33q-6 0 -10.5 4.5t-4.5 10.5v97
q-76 3 -149 27q-18 6 -15 21z" />
    <glyph glyph-name="cent.oldstyle" horiz-adv-x="479" 
d="M65 211v90q0 101 47.5 157t130.5 65v97q0 6 4.5 10.5t10.5 4.5h33q6 0 10.5 -4.5t4.5 -10.5v-98q41 -4 93 -17q15 -4 12 -20l-5 -27q-3 -16 -19 -12q-68 17 -114 17q-71 0 -106.5 -41.5t-35.5 -127.5v-76q0 -86 35.5 -128t106.5 -42q51 0 115 16q15 4 18 -11l5 -27
q3 -16 -12 -20q-52 -13 -93 -17v-98q0 -6 -4.5 -10.5t-10.5 -4.5h-33q-6 0 -10.5 4.5t-4.5 10.5v97q-83 9 -130.5 65t-47.5 158z" />
    <glyph glyph-name="sterling.oldstyle" horiz-adv-x="480" 
d="M67 15v44q36 46 53.5 94t17.5 92l-2 30h-60q-6 0 -10.5 4.5t-4.5 10.5v27q0 6 4.5 10.5t10.5 4.5h51q-3 13 -12 46.5t-14.5 62t-5.5 56.5q0 34 9.5 68.5t32 62t59.5 44.5t89 17q66 0 127 -22q7 -2 10 -8.5t0 -14.5l-9 -26q-2 -6 -8.5 -9t-14.5 0q-51 17 -100 17
q-63 0 -94 -36t-31 -99q0 -29 5 -57t13.5 -60t10.5 -42h173q6 0 10.5 -4.5t4.5 -10.5v-27q0 -6 -4.5 -10.5t-10.5 -4.5h-163l2 -30q0 -42 -15 -89t-48 -94h267q6 0 10.5 -4.5t4.5 -10.5v-32q0 -6 -4.5 -10.5t-10.5 -4.5h-328q-6 0 -10.5 4.5t-4.5 10.5z" />
    <glyph glyph-name="Euro.oldstyle" horiz-adv-x="522" 
d="M52 228q-6 0 -10.5 4.5t-4.5 10.5v29q0 6 4.5 10.5t10.5 4.5h70v102h-70q-6 0 -10.5 4.5t-4.5 10.5v29q0 6 4.5 10.5t10.5 4.5h70q1 41 12 83.5t42 81.5t78 57.5t96 18.5q57 0 122 -13q6 -1 9.5 -6.5t2.5 -13.5l-5 -28q-3 -17 -17 -14q-58 12 -111 12q-45 0 -83 -21
t-57.5 -63.5t-20.5 -93.5h198q6 0 9.5 -4t2.5 -11l-6 -29q-3 -15 -18 -15h-186v-102h170q6 0 9.5 -4t2.5 -11l-6 -29q-3 -15 -18 -15h-158q1 -51 20.5 -93.5t57.5 -63.5t83 -21q55 0 111 12q6 1 11 -2.5t6 -10.5l5 -29q1 -7 -2.5 -13t-9.5 -7q-67 -13 -122 -13q-49 0 -91 16
t-72.5 47.5t-47 76.5t-17.5 101h-70z" />
    <glyph glyph-name="yen.oldstyle" horiz-adv-x="502" 
d="M94 120q-6 0 -10.5 4.5t-4.5 10.5v27q0 6 4.5 10.5t10.5 4.5h124v72h-124q-6 0 -10.5 4.5t-4.5 10.5v27q0 6 4.5 10.5t10.5 4.5h101l-177 352q-3 7 0 12.5t10 5.5h45q13 0 19 -12l160 -335l157 332q7 15 20 15h45q8 0 11 -5.5t-1 -12.5l-176 -352h102q6 0 10.5 -4.5
t4.5 -10.5v-27q0 -6 -4.5 -10.5t-10.5 -4.5h-124v-72h124q6 0 10.5 -4.5t4.5 -10.5v-27q0 -6 -4.5 -10.5t-10.5 -4.5h-124v-105q0 -6 -4.5 -10.5t-10.5 -4.5h-38q-6 0 -10.5 4.5t-4.5 10.5v105h-124z" />
    <glyph glyph-name="numbersign.oldstyle" horiz-adv-x="544" 
d="M95 15l19 189h-56q-6 0 -10.5 4.5t-4.5 10.5v31q0 6 4.5 10.5t10.5 4.5h62l17 179h-55q-6 0 -10.5 4.5t-4.5 10.5v31q0 6 4.5 10.5t10.5 4.5h61l19 190q2 14 16 14h31q6 0 10.5 -4.5t3.5 -10.5l-19 -189h166l19 189q2 15 16 15h31q6 0 10.5 -4.5t3.5 -10.5l-19 -189h55
q6 0 10.5 -4.5t4.5 -10.5v-31q0 -6 -4.5 -10.5t-10.5 -4.5h-61l-17 -179h55q6 0 10.5 -4.5t4.5 -10.5v-31q0 -6 -4.5 -10.5t-10.5 -4.5h-61l-19 -189q-2 -15 -16 -15h-31q-6 0 -10.5 4.5t-3.5 10.5l19 189h-166l-19 -189q-2 -15 -16 -15h-31q-6 0 -10.5 4.5t-3.5 10.5z
M181 265h166l17 179h-166z" />
    <glyph glyph-name="zero.tnum" 
d="M61 257v163q0 68 17.5 120t48 84.5t71.5 48.5t88 16t87.5 -16t71 -48.5t48 -84.5t17.5 -120v-163q0 -85 -26.5 -144t-76.5 -92.5t-121 -33.5q-72 0 -122 33.5t-76.5 92.5t-26.5 144zM127 257q0 -68 17.5 -113.5t52.5 -70.5t89 -25t88.5 25t52 70.5t17.5 113.5v163
q0 68 -17.5 113t-52 70t-88.5 25t-88.5 -25t-52.5 -70t-18 -113v-163z" />
    <glyph glyph-name="one.tnum" 
d="M333 15v598l-142 -28q-9 -2 -14.5 1.5t-5.5 10.5v32q0 6 4.5 11.5t11.5 6.5l196 36q7 1 11.5 -2.5t4.5 -9.5v-656q0 -6 -4.5 -10.5t-10.5 -4.5h-36q-6 0 -10.5 4.5t-4.5 10.5z" />
    <glyph glyph-name="two.tnum" 
d="M91 15v41q0 47 16 94.5t55 90t107.5 89t92.5 69.5t35 43.5t13 35t2 20.5q0 38 -17.5 68t-46.5 46t-69 16q-33 0 -65.5 -7t-73.5 -25q-6 -3 -12 -1t-9 8l-11 26q-7 16 8 23q75 37 163 37q55 0 103 -22.5t73 -67.5t25 -98q0 -35 -13.5 -65.5t-41 -59.5t-105 -84t-107 -89
t-43 -68t-13.5 -74h307q6 0 10.5 -4.5t4.5 -10.5v-31q0 -6 -4.5 -10.5t-10.5 -4.5h-358q-6 0 -10.5 4.5t-4.5 10.5z" />
    <glyph glyph-name="three.tnum" 
d="M92 28l10 31q1 6 7 8.5t12 0.5q64 -20 124 -20q54 0 92.5 21t58.5 54.5t20 78.5q0 46 -20 76.5t-55 46.5t-87 16h-53q-14 0 -17 15l-6 30q-3 15 6 25l185 205h-254q-14 0 -16 15l-4 30q-1 6 3 10.5t10 4.5h318q7 0 12.5 -4.5t6.5 -12.5l5 -27q3 -16 -7 -27l-188 -204
q48 0 90 -13t73 -38t48.5 -63t17.5 -85q0 -36 -12.5 -73.5t-46 -72.5t-83 -52t-97.5 -17q-71 0 -143 22q-7 2 -9.5 7.5t-0.5 11.5z" />
    <glyph glyph-name="four.tnum" 
d="M89 160q-6 0 -11.5 5t-6.5 13l-4 24q-3 18 1 31l132 427q5 16 20 16h32q7 0 11 -5.5t1 -14.5l-129 -434h207v210q0 6 4 11t10 6l38 6q6 1 10 -3t4 -12v-218h83q6 0 10.5 -4.5t4.5 -10.5v-32q0 -6 -4.5 -10.5t-10.5 -4.5h-83v-144q0 -6 -4.5 -11t-10.5 -6l-36 -6
q-6 -1 -10.5 3t-4.5 10v154h-253z" />
    <glyph glyph-name="five.tnum" 
d="M85 30l6 29q1 7 7 9.5t13 0.5q70 -21 143 -21q26 0 56 9t55 29t40 51.5t15 73.5q0 77 -43 109t-126 32h-118q-6 0 -10 4.5t-4 10.5l10 294q0 6 5 10.5t11 4.5h307q6 0 9 -4.5t1 -10.5l-11 -33q-3 -13 -16 -13h-242l-7 -203h76q109 0 167.5 -50.5t58.5 -148.5
q0 -40 -13.5 -81t-44.5 -73t-76 -52t-100 -20q-39 0 -82 7t-75 17q-7 2 -10.5 6.5t-1.5 12.5z" />
    <glyph glyph-name="six.tnum" 
d="M80 206v237q0 50 14.5 95t42.5 79t70.5 53t96.5 19q58 0 125 -18q18 -5 14 -23l-6 -26q-1 -6 -7.5 -10t-13.5 -2q-63 18 -112 18t-83.5 -22t-54.5 -63t-20 -100v-41q73 40 148 40q55 0 106 -26t79 -80t28 -121q0 -26 -5.5 -57.5t-20.5 -61t-41 -54.5t-65 -40t-82 -15
t-82 14.5t-68.5 42.5t-46 69.5t-16.5 92.5zM146 205q0 -39 16.5 -77t51.5 -59t78 -21q44 0 76 20t51.5 57.5t19.5 89.5q0 74 -39.5 120.5t-107.5 46.5q-35 0 -73.5 -10.5t-72.5 -29.5v-137z" />
    <glyph glyph-name="seven.tnum" 
d="M224 16q0 172 47 320t153 280h-332q-15 0 -16 15l-2 30q-1 15 14 15h395q6 0 10.5 -4.5t4.5 -10.5v-28q0 -15 -11 -29q-84 -107 -122 -192.5t-54.5 -184.5t-17.5 -212q0 -6 -4.5 -10.5t-10.5 -4.5h-39q-15 0 -15 16z" />
    <glyph glyph-name="eight.tnum" 
d="M65 167q0 60 35 103.5t114 81.5q-59 30 -93.5 70t-34.5 100q0 43 23.5 83t71 62t104.5 22q87 0 144.5 -47.5t57.5 -119.5q0 -31 -12 -61t-42.5 -56t-74.5 -48q79 -36 113.5 -81t34.5 -108q0 -30 -11.5 -61.5t-39 -58t-70.5 -44t-100 -17.5q-42 0 -82 12.5t-71 36
t-49 57.5t-18 74zM291 386q44 20 73.5 40.5t42 45t12.5 50.5q0 48 -37.5 77t-96.5 29q-58 0 -94.5 -29t-36.5 -77q0 -26 13 -50.5t44 -44.5t80 -41zM133 168q0 -27 14.5 -54.5t52.5 -46.5t85 -19q45 0 84 18.5t54 46t15 55.5q0 35 -19 61.5t-50.5 46.5t-88.5 45
q-88 -39 -117.5 -74.5t-29.5 -78.5z" />
    <glyph glyph-name="nine.tnum" 
d="M135 24l7 33q1 6 7 8.5t13 0.5q65 -18 113 -18q49 0 83.5 22t54.5 63t20 100v41q-73 -40 -148 -40q-44 0 -82.5 15t-68 44t-46 72t-16.5 96q0 54 16.5 97t46 72t68.5 44t83 15q43 0 82 -14.5t68.5 -42.5t46 -69.5t16.5 -92.5v-237q0 -50 -14.5 -95t-43 -79t-71 -53
t-95.5 -19q-61 0 -129 19q-14 4 -11 18zM287 294q35 0 73.5 10.5t72.5 29.5v137q0 39 -16.5 77t-51.5 59t-78 21q-44 0 -76 -20t-51.5 -57.5t-19.5 -89.5q0 -74 39.5 -120.5t107.5 -46.5z" />
    <glyph glyph-name="dollar.tnum" 
d="M90 36l6 31q1 7 7.5 9.5t14.5 0.5q86 -27 158 -27q25 0 54.5 9t49 28t27 40.5t7.5 43.5q0 16 -4.5 34t-16 34.5t-34.5 32.5t-99.5 46t-105.5 55t-42 55t-13 70q0 69 46 114.5t121 54.5v98q0 6 4.5 10.5t10.5 4.5h33q6 0 10.5 -4.5t4.5 -10.5v-97q57 -4 124 -26
q14 -5 10 -19l-9 -32q-4 -14 -20 -9q-79 24 -134 24q-60 0 -95.5 -28t-35.5 -78q0 -37 23 -66.5t104.5 -61t107.5 -49t41.5 -35.5t27 -45.5t11.5 -69.5q0 -29 -8.5 -58.5t-29 -55t-52.5 -44t-77 -25.5v-99q0 -6 -4.5 -10.5t-10.5 -4.5h-33q-6 0 -10.5 4.5t-4.5 10.5v97
q-76 3 -149 27q-18 6 -15 21z" />
    <glyph glyph-name="cent.tnum" 
d="M111 211v90q0 101 47.5 157t130.5 65v97q0 6 4.5 10.5t10.5 4.5h33q6 0 10.5 -4.5t4.5 -10.5v-98q41 -4 93 -17q15 -4 12 -20l-5 -27q-3 -16 -19 -12q-68 17 -114 17q-71 0 -106.5 -41.5t-35.5 -127.5v-76q0 -86 35.5 -128t106.5 -42q51 0 115 16q15 4 18 -11l5 -27
q3 -16 -12 -20q-52 -13 -93 -17v-98q0 -6 -4.5 -10.5t-10.5 -4.5h-33q-6 0 -10.5 4.5t-4.5 10.5v97q-83 9 -130.5 65t-47.5 158z" />
    <glyph glyph-name="sterling.tnum" 
d="M108 15v44q36 46 53.5 94t17.5 92l-2 30h-60q-6 0 -10.5 4.5t-4.5 10.5v27q0 6 4.5 10.5t10.5 4.5h51q-3 13 -12 46.5t-14.5 62t-5.5 56.5q0 34 9.5 68.5t32 62t59.5 44.5t89 17q66 0 127 -22q7 -2 10 -8.5t0 -14.5l-9 -26q-2 -6 -8.5 -9t-14.5 0q-51 17 -100 17
q-63 0 -94 -36t-31 -99q0 -29 5 -57t13.5 -60t10.5 -42h173q6 0 10.5 -4.5t4.5 -10.5v-27q0 -6 -4.5 -10.5t-10.5 -4.5h-163l2 -30q0 -42 -15 -89t-48 -94h267q6 0 10.5 -4.5t4.5 -10.5v-32q0 -6 -4.5 -10.5t-10.5 -4.5h-328q-6 0 -10.5 4.5t-4.5 10.5z" />
    <glyph glyph-name="Euro.tnum" 
d="M75 228q-6 0 -10.5 4.5t-4.5 10.5v29q0 6 4.5 10.5t10.5 4.5h70v102h-70q-6 0 -10.5 4.5t-4.5 10.5v29q0 6 4.5 10.5t10.5 4.5h70q1 41 12 83.5t42 81.5t78 57.5t96 18.5q57 0 122 -13q6 -1 9.5 -6.5t2.5 -13.5l-5 -28q-3 -17 -17 -14q-58 12 -111 12q-45 0 -83 -21
t-57.5 -63.5t-20.5 -93.5h198q6 0 9.5 -4t2.5 -11l-6 -29q-3 -15 -18 -15h-186v-102h170q6 0 9.5 -4t2.5 -11l-6 -29q-3 -15 -18 -15h-158q1 -51 20.5 -93.5t57.5 -63.5t83 -21q55 0 111 12q6 1 11 -2.5t6 -10.5l5 -29q1 -7 -2.5 -13t-9.5 -7q-67 -13 -122 -13q-49 0 -91 16
t-72.5 47.5t-47 76.5t-17.5 101h-70z" />
    <glyph glyph-name="yen.tnum" 
d="M128 120q-6 0 -10.5 4.5t-4.5 10.5v27q0 6 4.5 10.5t10.5 4.5h124v72h-124q-6 0 -10.5 4.5t-4.5 10.5v27q0 6 4.5 10.5t10.5 4.5h101l-177 352q-3 7 0 12.5t10 5.5h45q13 0 19 -12l160 -335l157 332q7 15 20 15h45q8 0 11 -5.5t-1 -12.5l-176 -352h102q6 0 10.5 -4.5
t4.5 -10.5v-27q0 -6 -4.5 -10.5t-10.5 -4.5h-124v-72h124q6 0 10.5 -4.5t4.5 -10.5v-27q0 -6 -4.5 -10.5t-10.5 -4.5h-124v-105q0 -6 -4.5 -10.5t-10.5 -4.5h-38q-6 0 -10.5 4.5t-4.5 10.5v105h-124z" />
    <glyph glyph-name="numbersign.tnum" 
d="M108 15l19 189h-56q-6 0 -10.5 4.5t-4.5 10.5v31q0 6 4.5 10.5t10.5 4.5h62l17 179h-55q-6 0 -10.5 4.5t-4.5 10.5v31q0 6 4.5 10.5t10.5 4.5h61l19 190q2 14 16 14h31q6 0 10.5 -4.5t3.5 -10.5l-19 -189h166l19 189q2 15 16 15h31q6 0 10.5 -4.5t3.5 -10.5l-19 -189h55
q6 0 10.5 -4.5t4.5 -10.5v-31q0 -6 -4.5 -10.5t-10.5 -4.5h-61l-17 -179h55q6 0 10.5 -4.5t4.5 -10.5v-31q0 -6 -4.5 -10.5t-10.5 -4.5h-61l-19 -189q-2 -15 -16 -15h-31q-6 0 -10.5 4.5t-3.5 10.5l19 189h-166l-19 -189q-2 -15 -16 -15h-31q-6 0 -10.5 4.5t-3.5 10.5z
M194 265h166l17 179h-166z" />
    <glyph glyph-name="zero.tnum.oldstyle" 
d="M506 325v-88q0 -59 -17 -106.5t-47 -79.5t-70.5 -48t-85.5 -16q-21 0 -48.5 5t-56 20t-55 43t-44 75.5t-17.5 106.5v88q0 59 17 106.5t47 79t70.5 47.5t85.5 16t85.5 -16t71 -47.5t47.5 -79t17 -106.5zM440 237v88q0 90 -42.5 139t-112.5 49q-69 0 -111.5 -49t-42.5 -139
v-88q0 -91 42.5 -140t112.5 -49q69 0 111.5 49t42.5 140z" />
    <glyph glyph-name="one.tnum.oldstyle" 
d="M321 15v484l-143 -29q-7 -1 -11 2.5t-4 9.5v33q0 15 16 18l192 36q7 1 11.5 -2.5t4.5 -9.5v-542q0 -6 -4.5 -10.5t-10.5 -4.5h-36q-6 0 -10.5 4.5t-4.5 10.5z" />
    <glyph glyph-name="two.tnum.oldstyle" 
d="M443 0h-323q-6 0 -10.5 4.5t-4.5 10.5v22q0 73 33.5 122.5t110.5 95.5q8 5 28 16.5t32.5 19t26.5 18t27 24t21.5 32t8.5 42.5q0 32 -18 58.5t-46 37t-53 10.5q-59 0 -122 -27q-16 -6 -22 7l-11 25q-3 6 1 14t12 11q72 31 142 31q57 0 99 -23.5t64 -60t22 -83.5
q0 -54 -32 -94t-99.5 -82t-86.5 -57t-32.5 -30t-24 -35.5t-10.5 -48.5h275q6 0 10 -4.5t3 -10.5l-4 -30q-1 -7 -5.5 -11t-11.5 -4z" />
    <glyph glyph-name="three.tnum.oldstyle" 
d="M92 -87l10 31q1 6 7 8.5t12 0.5q64 -20 124 -20q54 0 92.5 21t58.5 54.5t20 78.5q0 46 -20 76.5t-55 46.5t-87 16h-53q-14 0 -17 15l-6 30q-3 15 6 25l185 205h-254q-14 0 -16 15l-4 30q-1 6 3 10.5t10 4.5h318q7 0 12.5 -4.5t6.5 -12.5l5 -27q3 -16 -7 -27l-188 -204
q48 0 90 -13t73 -38t48.5 -63t17.5 -85q0 -36 -12.5 -73.5t-46 -72.5t-83 -52t-97.5 -17q-71 0 -143 22q-7 2 -9.5 7.5t-0.5 11.5z" />
    <glyph glyph-name="four.tnum.oldstyle" 
d="M89 45q-6 0 -11.5 5t-6.5 13l-4 24q-3 18 1 31l132 427q5 16 20 16h32q7 0 11 -5.5t1 -14.5l-129 -434h207v210q0 6 4 11t10 6l38 6q6 1 10 -3t4 -12v-218h83q6 0 10.5 -4.5t4.5 -10.5v-32q0 -6 -4.5 -10.5t-10.5 -4.5h-83v-144q0 -6 -4.5 -11t-10.5 -6l-36 -6
q-6 -1 -10.5 3t-4.5 10v154h-253z" />
    <glyph glyph-name="five.tnum.oldstyle" 
d="M75 -85l6 29q1 7 7 9.5t13 0.5q70 -21 143 -21q26 0 56 9t55 29t40 51.5t15 73.5q0 77 -43 109t-126 32h-118q-6 0 -10 4.5t-4 10.5l10 294q0 6 5 10.5t11 4.5h307q6 0 9 -4.5t1 -10.5l-11 -33q-3 -13 -16 -13h-242l-7 -203h76q109 0 167.5 -50.5t58.5 -148.5
q0 -40 -13.5 -81t-44.5 -73t-76 -52t-100 -20q-39 0 -82 7t-75 17q-7 2 -10.5 6.5t-1.5 12.5z" />
    <glyph glyph-name="six.tnum.oldstyle" 
d="M72 206v237q0 50 14.5 95t42.5 79t70.5 53t96.5 19q58 0 125 -18q18 -5 14 -23l-6 -26q-1 -6 -7.5 -10t-13.5 -2q-63 18 -112 18t-83.5 -22t-54.5 -63t-20 -100v-41q73 40 148 40q55 0 106 -26t79 -80t28 -121q0 -26 -5.5 -57.5t-20.5 -61t-41 -54.5t-65 -40t-82 -15
t-82 14.5t-68.5 42.5t-46 69.5t-16.5 92.5zM138 205q0 -39 16.5 -77t51.5 -59t78 -21q44 0 76 20t51.5 57.5t19.5 89.5q0 74 -39.5 120.5t-107.5 46.5q-35 0 -73.5 -10.5t-72.5 -29.5v-137z" />
    <glyph glyph-name="seven.tnum.oldstyle" 
d="M224 -99q0 172 47 320t153 280h-332q-15 0 -16 15l-2 30q-1 15 14 15h395q6 0 10.5 -4.5t4.5 -10.5v-28q0 -15 -11 -29q-84 -107 -122 -192.5t-54.5 -184.5t-17.5 -212q0 -6 -4.5 -10.5t-10.5 -4.5h-39q-15 0 -15 16z" />
    <glyph glyph-name="eight.tnum.oldstyle" 
d="M65 167q0 60 35 103.5t114 81.5q-59 30 -93.5 70t-34.5 100q0 43 23.5 83t71 62t104.5 22q87 0 144.5 -47.5t57.5 -119.5q0 -31 -12 -61t-42.5 -56t-74.5 -48q79 -36 113.5 -81t34.5 -108q0 -30 -11.5 -61.5t-39 -58t-70.5 -44t-100 -17.5q-42 0 -82 12.5t-71 36
t-49 57.5t-18 74zM291 386q44 20 73.5 40.5t42 45t12.5 50.5q0 48 -37.5 77t-96.5 29q-58 0 -94.5 -29t-36.5 -77q0 -26 13 -50.5t44 -44.5t80 -41zM133 168q0 -27 14.5 -54.5t52.5 -46.5t85 -19q45 0 84 18.5t54 46t15 55.5q0 35 -19 61.5t-50.5 46.5t-88.5 45
q-88 -39 -117.5 -74.5t-29.5 -78.5z" />
    <glyph glyph-name="nine.tnum.oldstyle" 
d="M135 -91l7 33q1 6 7 8.5t13 0.5q65 -18 113 -18q49 0 83.5 22t54.5 63t20 100v41q-73 -40 -148 -40q-44 0 -82.5 15t-68 44t-46 72t-16.5 96q0 54 16.5 97t46 72t68.5 44t83 15q43 0 82 -14.5t68.5 -42.5t46 -69.5t16.5 -92.5v-237q0 -50 -14.5 -95t-43 -79t-71 -53
t-95.5 -19q-61 0 -129 19q-14 4 -11 18zM287 179q35 0 73.5 10.5t72.5 29.5v137q0 39 -16.5 77t-51.5 59t-78 21q-44 0 -76 -20t-51.5 -57.5t-19.5 -89.5q0 -74 39.5 -120.5t107.5 -46.5z" />
    <glyph glyph-name="dollar.tnum.oldstyle" 
d="M90 36l6 31q1 7 7.5 9.5t14.5 0.5q86 -27 158 -27q25 0 54.5 9t49 28t27 40.5t7.5 43.5q0 16 -4.5 34t-16 34.5t-34.5 32.5t-99.5 46t-105.5 55t-42 55t-13 70q0 69 46 114.5t121 54.5v98q0 6 4.5 10.5t10.5 4.5h33q6 0 10.5 -4.5t4.5 -10.5v-97q57 -4 124 -26
q14 -5 10 -19l-9 -32q-4 -14 -20 -9q-79 24 -134 24q-60 0 -95.5 -28t-35.5 -78q0 -37 23 -66.5t104.5 -61t107.5 -49t41.5 -35.5t27 -45.5t11.5 -69.5q0 -29 -8.5 -58.5t-29 -55t-52.5 -44t-77 -25.5v-99q0 -6 -4.5 -10.5t-10.5 -4.5h-33q-6 0 -10.5 4.5t-4.5 10.5v97
q-76 3 -149 27q-18 6 -15 21z" />
    <glyph glyph-name="cent.tnum.oldstyle" 
d="M111 211v90q0 101 47.5 157t130.5 65v97q0 6 4.5 10.5t10.5 4.5h33q6 0 10.5 -4.5t4.5 -10.5v-98q41 -4 93 -17q15 -4 12 -20l-5 -27q-3 -16 -19 -12q-68 17 -114 17q-71 0 -106.5 -41.5t-35.5 -127.5v-76q0 -86 35.5 -128t106.5 -42q51 0 115 16q15 4 18 -11l5 -27
q3 -16 -12 -20q-52 -13 -93 -17v-98q0 -6 -4.5 -10.5t-10.5 -4.5h-33q-6 0 -10.5 4.5t-4.5 10.5v97q-83 9 -130.5 65t-47.5 158z" />
    <glyph glyph-name="sterling.tnum.oldstyle" 
d="M108 15v44q36 46 53.5 94t17.5 92l-2 30h-60q-6 0 -10.5 4.5t-4.5 10.5v27q0 6 4.5 10.5t10.5 4.5h51q-3 13 -12 46.5t-14.5 62t-5.5 56.5q0 34 9.5 68.5t32 62t59.5 44.5t89 17q66 0 127 -22q7 -2 10 -8.5t0 -14.5l-9 -26q-2 -6 -8.5 -9t-14.5 0q-51 17 -100 17
q-63 0 -94 -36t-31 -99q0 -29 5 -57t13.5 -60t10.5 -42h173q6 0 10.5 -4.5t4.5 -10.5v-27q0 -6 -4.5 -10.5t-10.5 -4.5h-163l2 -30q0 -42 -15 -89t-48 -94h267q6 0 10.5 -4.5t4.5 -10.5v-32q0 -6 -4.5 -10.5t-10.5 -4.5h-328q-6 0 -10.5 4.5t-4.5 10.5z" />
    <glyph glyph-name="Euro.tnum.oldstyle" 
d="M75 228q-6 0 -10.5 4.5t-4.5 10.5v29q0 6 4.5 10.5t10.5 4.5h70v102h-70q-6 0 -10.5 4.5t-4.5 10.5v29q0 6 4.5 10.5t10.5 4.5h70q1 41 12 83.5t42 81.5t78 57.5t96 18.5q57 0 122 -13q6 -1 9.5 -6.5t2.5 -13.5l-5 -28q-3 -17 -17 -14q-58 12 -111 12q-45 0 -83 -21
t-57.5 -63.5t-20.5 -93.5h198q6 0 9.5 -4t2.5 -11l-6 -29q-3 -15 -18 -15h-186v-102h170q6 0 9.5 -4t2.5 -11l-6 -29q-3 -15 -18 -15h-158q1 -51 20.5 -93.5t57.5 -63.5t83 -21q55 0 111 12q6 1 11 -2.5t6 -10.5l5 -29q1 -7 -2.5 -13t-9.5 -7q-67 -13 -122 -13q-49 0 -91 16
t-72.5 47.5t-47 76.5t-17.5 101h-70z" />
    <glyph glyph-name="yen.tnum.oldstyle" 
d="M128 120q-6 0 -10.5 4.5t-4.5 10.5v27q0 6 4.5 10.5t10.5 4.5h124v72h-124q-6 0 -10.5 4.5t-4.5 10.5v27q0 6 4.5 10.5t10.5 4.5h101l-177 352q-3 7 0 12.5t10 5.5h45q13 0 19 -12l160 -335l157 332q7 15 20 15h45q8 0 11 -5.5t-1 -12.5l-176 -352h102q6 0 10.5 -4.5
t4.5 -10.5v-27q0 -6 -4.5 -10.5t-10.5 -4.5h-124v-72h124q6 0 10.5 -4.5t4.5 -10.5v-27q0 -6 -4.5 -10.5t-10.5 -4.5h-124v-105q0 -6 -4.5 -10.5t-10.5 -4.5h-38q-6 0 -10.5 4.5t-4.5 10.5v105h-124z" />
    <glyph glyph-name="numbersign.tnum.oldstyle" 
d="M108 15l19 189h-56q-6 0 -10.5 4.5t-4.5 10.5v31q0 6 4.5 10.5t10.5 4.5h62l17 179h-55q-6 0 -10.5 4.5t-4.5 10.5v31q0 6 4.5 10.5t10.5 4.5h61l19 190q2 14 16 14h31q6 0 10.5 -4.5t3.5 -10.5l-19 -189h166l19 189q2 15 16 15h31q6 0 10.5 -4.5t3.5 -10.5l-19 -189h55
q6 0 10.5 -4.5t4.5 -10.5v-31q0 -6 -4.5 -10.5t-10.5 -4.5h-61l-17 -179h55q6 0 10.5 -4.5t4.5 -10.5v-31q0 -6 -4.5 -10.5t-10.5 -4.5h-61l-19 -189q-2 -15 -16 -15h-31q-6 0 -10.5 4.5t-3.5 10.5l19 189h-166l-19 -189q-2 -15 -16 -15h-31q-6 0 -10.5 4.5t-3.5 10.5z
M194 265h166l17 179h-166z" />
    <glyph glyph-name="a.sc" horiz-adv-x="531" 
d="M43 18l180 528q5 15 21 15h43q16 0 21 -15l180 -528q2 -6 -1.5 -12t-10.5 -6h-35q-6 0 -12 4.5t-8 10.5l-47 141h-217l-47 -141q-2 -6 -8 -10.5t-12 -4.5h-36q-7 0 -10.5 5t-0.5 13zM176 213h179l-64 192q-12 34 -26 89q-15 -61 -25 -89z" />
    <glyph glyph-name="b.sc" horiz-adv-x="507" 
d="M85 15v531q0 6 4.5 10.5t10.5 4.5h160q51 0 90 -16.5t64 -49t25 -79.5q0 -37 -21 -69.5t-57 -51.5q50 -18 75 -55.5t25 -79.5q0 -45 -25 -81.5t-70.5 -57.5t-110.5 -21h-155q-6 0 -10.5 4.5t-4.5 10.5zM151 317h101q54 0 86.5 25.5t32.5 67.5t-29.5 66.5t-83.5 24.5h-107
v-184zM151 60h103q67 0 103 27.5t36 72.5q0 44 -31.5 72t-100.5 28h-110v-200z" />
    <glyph glyph-name="c.sc" horiz-adv-x="504" 
d="M67 212v137q0 69 25.5 118t75 78t122.5 29q70 0 153 -23q14 -4 11 -18l-7 -30q-1 -6 -6.5 -8.5t-11.5 -1.5q-63 15 -90.5 17.5t-47.5 2.5q-73 0 -115.5 -42t-42.5 -126v-130q0 -32 7.5 -62.5t26 -53.5t49 -37t75.5 -14q66 0 136 19q7 2 13 -0.5t7 -8.5l7 -32
q1 -6 -3 -11.5t-12 -7.5q-80 -20 -149 -20q-73 0 -122.5 29t-75 78t-25.5 118z" />
    <glyph glyph-name="d.sc" horiz-adv-x="557" 
d="M85 15v501q0 6 4.5 12t10.5 8q114 38 188 38q52 0 100.5 -23.5t75 -72.5t26.5 -108v-171q0 -98 -52.5 -148.5t-149.5 -50.5h-188q-6 0 -10.5 4.5t-4.5 10.5zM151 60h137q68 0 102 34t34 108v164q0 70 -37.5 108.5t-99.5 38.5q-17 0 -54 -4.5t-82 -19.5v-429z" />
    <glyph glyph-name="e.sc" horiz-adv-x="471" 
d="M389 0h-289q-6 0 -10.5 4.5t-4.5 10.5v531q0 6 4.5 10.5t10.5 4.5h281q6 0 10.5 -4.5t4.5 -10.5v-30q0 -6 -4.5 -10.5t-10.5 -4.5h-230v-190h194q6 0 10.5 -4.5t3.5 -10.5l-3 -29q-1 -13 -17 -13h-188v-194h238q6 0 10.5 -4.5t4.5 -10.5v-30q0 -6 -4.5 -10.5t-10.5 -4.5z
" />
    <glyph glyph-name="f.sc" horiz-adv-x="454" 
d="M136 0h-36q-6 0 -10.5 4.5t-4.5 10.5v531q0 6 4.5 10.5t10.5 4.5h280q6 0 10.5 -4.5t4.5 -10.5v-30q0 -6 -4.5 -10.5t-10.5 -4.5h-229v-190h188q6 0 10 -4.5t3 -10.5l-3 -27q-1 -6 -6 -10.5t-11 -4.5h-181v-239q0 -6 -4.5 -10.5t-10.5 -4.5z" />
    <glyph glyph-name="g.sc" horiz-adv-x="540" 
d="M67 212v137q0 69 25.5 118t75 78t122.5 29q21 0 52.5 -3t95.5 -19q18 -5 14 -22l-6 -24q-1 -7 -7.5 -10.5t-13.5 -1.5q-69 19 -134 19q-73 0 -115.5 -42t-42.5 -125v-131q0 -83 42.5 -125t115.5 -42q49 0 115 15v180h-51q-6 0 -10.5 4.5t-4.5 10.5v25q0 6 4.5 10.5
t10.5 4.5h99q6 0 10.5 -4.5t4.5 -10.5v-250q0 -6 -4.5 -12t-11.5 -8q-84 -26 -163 -26q-73 0 -122.5 29t-75 78t-25.5 118z" />
    <glyph glyph-name="h.sc" horiz-adv-x="566" 
d="M85 15v531q0 6 4.5 10.5t10.5 4.5h36q6 0 10.5 -4.5t4.5 -10.5v-231h264v231q0 6 4.5 10.5t10.5 4.5h36q6 0 10.5 -4.5t4.5 -10.5v-531q0 -6 -4.5 -10.5t-10.5 -4.5h-36q-6 0 -10.5 4.5t-4.5 10.5v241h-264v-241q0 -6 -4.5 -10.5t-10.5 -4.5h-36q-6 0 -10.5 4.5
t-4.5 10.5z" />
    <glyph glyph-name="i.sc" horiz-adv-x="236" 
d="M85 15v531q0 6 4.5 10.5t10.5 4.5h36q6 0 10.5 -4.5t4.5 -10.5v-531q0 -6 -4.5 -10.5t-10.5 -4.5h-36q-6 0 -10.5 4.5t-4.5 10.5z" />
    <glyph glyph-name="j.sc" horiz-adv-x="428" 
d="M41 28l7 26q4 15 22 10q19 -6 47 -11t54 -5q14 0 34 4t37.5 17.5t30.5 40.5t13 69v368q0 6 4.5 10.5t10.5 3.5l37 -3q14 -2 14 -16v-365q0 -88 -48 -139t-130 -51q-58 0 -122 20q-15 5 -11 21z" />
    <glyph glyph-name="k.sc" horiz-adv-x="523" 
d="M461 0h-36q-3 0 -11 2.5t-15 11.5l-173 240l-75 -100v-139q0 -6 -4.5 -10.5t-10.5 -4.5h-36q-6 0 -10.5 4.5t-4.5 10.5v531q0 6 4.5 10.5t10.5 4.5h36q6 0 10.5 -4.5t4.5 -10.5v-285l221 287q10 13 27 13h33q8 0 11 -6.5t-2 -13.5l-175 -233l205 -287q5 -7 2.5 -14
t-12.5 -7z" />
    <glyph glyph-name="l.sc" horiz-adv-x="454" 
d="M85 15v531q0 6 4.5 10.5t10.5 4.5h36q6 0 10.5 -4.5t4.5 -10.5v-486h243q6 0 10 -4.5t3 -10.5l-3 -30q-2 -15 -16 -15h-288q-6 0 -10.5 4.5t-4.5 10.5z" />
    <glyph glyph-name="m.sc" horiz-adv-x="721" 
d="M56 16l68 529q1 6 6 11t11 5h49q15 0 22 -17l124 -304q11 -27 24 -72q17 53 25 72l124 304q7 17 22 17h49q6 0 11 -5t6 -11l68 -529q1 -6 -3 -11t-10 -5h-35q-6 0 -11 4.5t-6 10.5l-50 392q-6 38 -6 74l-26 -74l-114 -282q-2 -6 -8.5 -10.5t-12.5 -4.5h-45
q-6 0 -12.5 4.5t-8.5 10.5l-113 282l-27 72l-5 -72l-51 -391q-1 -7 -6 -11.5t-11 -4.5h-35q-6 0 -10 5t-3 11z" />
    <glyph glyph-name="n.sc" horiz-adv-x="560" 
d="M85 15v531q0 6 4.5 10.5t10.5 4.5h22q7 0 13.5 -5t10.5 -11l265 -419q-2 30 -2 85v335q0 6 4.5 10.5t10.5 4.5h36q6 0 10.5 -4.5t4.5 -10.5v-531q0 -6 -4.5 -10.5t-10.5 -4.5h-27q-14 0 -23 14l-263 414q4 -29 4 -86v-327q0 -6 -4.5 -10.5t-10.5 -4.5h-36q-6 0 -10.5 4.5
t-4.5 10.5z" />
    <glyph glyph-name="o.sc" horiz-adv-x="561" 
d="M67 212v135q0 41 11 81.5t37.5 73t68 52.5t97.5 20q44 0 83 -14.5t68 -43t45.5 -71.5t16.5 -98v-135q0 -55 -16.5 -97.5t-45.5 -71t-68 -42.5t-83 -14t-83 14t-68.5 42.5t-46 71t-16.5 97.5zM133 216q0 -83 40.5 -125.5t107.5 -42.5t107 42.5t40 125.5v128
q0 84 -40 126.5t-107 42.5q-49 0 -82 -21.5t-49.5 -58.5t-16.5 -89v-128z" />
    <glyph glyph-name="p.sc" horiz-adv-x="492" 
d="M85 15v531q0 6 4.5 10.5t10.5 4.5h175q28 0 57.5 -9t55 -29.5t42.5 -53.5t17 -76q0 -24 -8 -52t-31 -56.5t-59.5 -43.5t-73.5 -15h-124v-211q0 -6 -4.5 -10.5t-10.5 -4.5h-36q-6 0 -10.5 4.5t-4.5 10.5zM151 285h124q23 0 48 10t41 36.5t16 61.5q0 34 -16 60.5t-41 36.5
t-48 10h-124v-215z" />
    <glyph glyph-name="q.sc" horiz-adv-x="561" 
d="M67 212v135q0 41 11 81.5t37.5 73t68 52.5t97.5 20q44 0 83 -14.5t68 -43t45.5 -71.5t16.5 -98v-135q0 -83 -36 -136.5t-96 -75.5l36 -88q7 -17 -6 -26l-27 -18q-6 -4 -12.5 -1.5t-9.5 9.5l-44 112l-18 -1q-44 0 -83 14t-68.5 42.5t-46 71t-16.5 97.5zM133 216
q0 -83 40.5 -125.5t107.5 -42.5t107 42.5t40 125.5v128q0 84 -40 126.5t-107 42.5q-49 0 -82 -21.5t-49.5 -58.5t-16.5 -89v-128z" />
    <glyph glyph-name="r.sc" horiz-adv-x="497" 
d="M85 15v531q0 6 4.5 10.5t10.5 4.5h176q47 0 88 -22t62 -62.5t21 -83.5q0 -52 -31.5 -96t-87.5 -60l107 -215q4 -9 0.5 -15.5t-13.5 -6.5h-34q-7 0 -14 5t-10 12l-103 213h-110v-215q0 -6 -4.5 -10.5t-10.5 -4.5h-36q-6 0 -10.5 4.5t-4.5 10.5zM151 285h125q23 0 47.5 10
t40.5 36.5t16 61.5q0 34 -16 60.5t-40.5 36.5t-47.5 10h-125v-215z" />
    <glyph glyph-name="s.sc" horiz-adv-x="450" 
d="M53 31l6 30q1 6 6.5 9t12.5 1q78 -23 139 -23q47 0 81 25.5t34 69.5q0 32 -20 59t-91.5 58t-99 51t-44 48.5t-16.5 69.5q0 65 49.5 105t127.5 40q62 0 130 -22q7 -2 11.5 -7t2.5 -12l-9 -30q-1 -6 -7 -8.5t-13 -0.5q-65 19 -115 19t-79.5 -22t-29.5 -60q0 -30 19.5 -54.5
t90 -55t96.5 -50t39 -38.5t19.5 -41t6.5 -48q0 -46 -22 -80.5t-63 -55.5t-98 -21q-71 0 -154 25q-13 4 -10 19z" />
    <glyph glyph-name="t.sc" horiz-adv-x="468" 
d="M201 15v485h-148q-6 0 -10.5 4.5t-4.5 10.5v31q0 6 4.5 10.5t10.5 4.5h362q6 0 10.5 -4.5t4.5 -10.5v-31q0 -6 -4.5 -10.5t-10.5 -4.5h-148v-485q0 -6 -4.5 -10.5t-10.5 -4.5h-36q-6 0 -10.5 4.5t-4.5 10.5z" />
    <glyph glyph-name="u.sc" horiz-adv-x="562" 
d="M80 177v369q0 6 4.5 10.5t10.5 4.5h36q6 0 10.5 -4.5t4.5 -10.5v-366q0 -57 38.5 -94.5t97.5 -37.5t97 37.5t38 94.5v366q0 6 4.5 10.5t10.5 4.5h35q6 0 10.5 -4.5t4.5 -10.5v-369q0 -30 -10.5 -63t-35.5 -61t-64 -47t-90 -19q-41 0 -78 14t-65 39t-43.5 60.5t-15.5 76.5
z" />
    <glyph glyph-name="v.sc" horiz-adv-x="531" 
d="M223 15l-180 528q-2 6 1.5 12t9.5 6h36q15 0 21 -18l129 -387q8 -23 25 -89q13 49 26 89l129 387q6 18 21 18h35q7 0 11 -5t1 -13l-180 -528q-5 -15 -21 -15h-43q-16 0 -21 15z" />
    <glyph glyph-name="w.sc" horiz-adv-x="726" 
d="M150 15l-101 530q-1 7 2.5 11.5t10.5 4.5h35q15 0 18 -16l72 -390q5 -31 9 -84l23 83l100 305q5 15 20 15h48q15 0 20 -15l100 -305q9 -29 22 -82q5 49 11 83l71 390q1 7 6.5 11.5t11.5 4.5h35q7 0 10.5 -4.5t2.5 -11.5l-101 -530q-1 -6 -6.5 -10.5t-11.5 -4.5h-47
q-6 0 -12 4.5t-8 10.5l-108 325l-20 73l-20 -73l-108 -325q-2 -6 -8 -10.5t-12 -4.5h-47q-15 0 -18 15z" />
    <glyph glyph-name="x.sc" horiz-adv-x="520" 
d="M49 19l173 276l-153 248q-4 7 -1 12.5t10 5.5h39q15 0 23 -13l121 -197l123 197q8 13 23 13h35q7 0 10 -5.5t-1 -12.5l-153 -245l172 -277q5 -8 2 -14.5t-11 -6.5h-38q-15 0 -23 13l-141 229l-143 -229q-8 -13 -23 -13h-34q-8 0 -11 6.5t1 12.5z" />
    <glyph glyph-name="y.sc" horiz-adv-x="499" 
d="M216 15v200l-173 327q-4 8 -1.5 13.5t10.5 5.5h38q13 0 21 -15l138 -266l138 266q8 15 21 15h39q8 0 10.5 -5.5t-1.5 -13.5l-174 -327v-200q0 -6 -4.5 -10.5t-10.5 -4.5h-36q-6 0 -10.5 4.5t-4.5 10.5z" />
    <glyph glyph-name="z.sc" horiz-adv-x="490" 
d="M51 15v22q0 15 8 27l285 436h-274q-6 0 -10.5 4.5t-4.5 10.5v31q0 6 4.5 10.5t10.5 4.5h337q6 0 10.5 -4.5t4.5 -10.5v-20q0 -15 -8 -27l-287 -439h297q6 0 10 -4.5t3 -10.5l-4 -30q-1 -6 -6 -10.5t-11 -4.5h-350q-6 0 -10.5 4.5t-4.5 10.5z" />
    <glyph glyph-name="ampersand.sc" horiz-adv-x="519" 
d="M63 150q0 27 10.5 57.5t31.5 52.5t44 33q-21 10 -40.5 29t-29 46.5t-9.5 52.5q0 66 48.5 109.5t129.5 43.5q49 0 106 -17q3 -1 8.5 -5.5t2.5 -14.5l-9 -28q-5 -15 -20 -10q-44 14 -86 14q-25 0 -51.5 -8.5t-43.5 -31t-17 -52.5q0 -44 28.5 -71t80.5 -27h27q6 0 10.5 -4.5
t4.5 -10.5v-28q0 -6 -4.5 -10.5t-10.5 -4.5h-31q-24 0 -51 -11.5t-44 -40t-17 -63.5q0 -33 18 -58t45 -34.5t52 -9.5t52.5 9.5t45.5 34.5t18 58v158q0 6 4.5 10.5t10.5 4.5h86q6 0 10.5 -4.5t4.5 -10.5v-28q0 -6 -4.5 -10.5t-10.5 -4.5h-38v-115q0 -25 -8 -52t-28.5 -51.5
t-56 -42t-87.5 -17.5t-92 19t-65 56t-25 88z" />
    <glyph glyph-name="question.sc" horiz-adv-x="403" 
d="M209 148l-31 8q-6 1 -11 7.5t-5 13.5v37q0 28 12.5 54t41.5 62t38 50.5t13.5 27.5t4.5 26q0 35 -22.5 57t-61.5 22q-21 0 -46.5 -8.5t-42.5 -18.5q-6 -4 -12 -2.5t-9 7.5l-13 25q-4 6 -2.5 12.5t7.5 10.5q59 35 118 35q28 0 64 -11t62 -42t26 -79q0 -18 -5.5 -37.5
t-18 -39t-50.5 -66t-38 -84.5v-51q0 -9 -5.5 -13.5t-13.5 -2.5zM195 -13q-18 0 -31 12.5t-13 29.5q0 18 13 30t31 12q17 0 30 -12.5t13 -29.5t-13 -29.5t-30 -12.5z" />
    <glyph glyph-name="exclam.sc" horiz-adv-x="229" 
d="M101 178q-6 0 -10.5 4.5t-4.5 10.5l-7 344q0 15 13 18l43 10q6 1 11.5 -2.5t5.5 -9.5l-7 -360q0 -6 -4.5 -10.5t-10.5 -4.5h-29zM71 30q0 18 13 30t31 12q17 0 30 -12.5t13 -29.5t-13 -30t-30 -13q-18 0 -31 13t-13 30z" />
    <glyph glyph-name="questiondown.sc" horiz-adv-x="403" 
d="M188 323l31 -8q6 -1 11 -7.5t5 -13.5v-37q0 -28 -12.5 -54t-41.5 -62t-38 -50.5t-13.5 -27.5t-4.5 -26q0 -35 22.5 -57t61.5 -22q21 0 46.5 8.5t42.5 18.5q6 4 12 2.5t9 -7.5l13 -25q4 -6 2.5 -12.5t-7.5 -10.5q-59 -35 -118 -35q-28 0 -64 11t-62 42t-26 79
q0 18 5.5 37.5t18 39t50.5 66t38 84.5v51q0 9 5.5 13.5t13.5 2.5zM202 400q-17 0 -30 12.5t-13 29.5t13 29.5t30 12.5q18 0 31 -12.5t13 -29.5q0 -18 -13 -30t-31 -12z" />
    <glyph glyph-name="exclamdown.sc" horiz-adv-x="229" 
d="M114 399q-17 0 -30 12.5t-13 29.5t13 30t30 13q18 0 31 -13t13 -30q0 -18 -13 -30t-31 -12zM77 -82l7 360q0 6 4.5 10.5t10.5 4.5h29q6 0 10.5 -4.5t4.5 -10.5l7 -344q0 -15 -13 -18l-43 -10q-6 -1 -11.5 2.5t-5.5 9.5z" />
    <glyph glyph-name="at.sc" horiz-adv-x="781" 
d="M69 154q0 74 25 142.5t72 120.5t114 81.5t146 29.5q64 0 118.5 -23t92.5 -64t58.5 -97t20.5 -118q0 -19 -4 -45h-187l-9 -65q-6 -48 -49 -82t-101 -34q-55 0 -90 29.5t-35 74.5q0 36 17.5 63.5t52 43.5t80.5 16h83l3 23q3 25 -6 46t-27.5 29.5t-37.5 8.5q-37 0 -85 -12
q-6 -1 -11 2.5t-6 9.5l-2 16q-2 16 12 20q54 15 99 15q63 0 95.5 -37t24.5 -98l-3 -23h131q0 50 -17 96t-48.5 81t-76 55t-97.5 20q-68 0 -125 -27t-96 -73t-59 -104t-20 -118q0 -51 16.5 -97t48 -79.5t77 -52.5t101.5 -19q34 0 82 12t94 41q13 9 19 -2l11 -19q7 -13 -5 -21
q-41 -28 -90.5 -44t-114.5 -16q-67 0 -122 22.5t-92.5 62.5t-57.5 94t-20 115zM299 111q0 -26 20 -43t53 -17q34 0 59 19.5t29 45.5l8 65h-82q-38 0 -62.5 -18t-24.5 -52z" />
    <glyph glyph-name="zero.sc.tnum" horiz-adv-x="498" 
d="M51 214v134q0 43 10 84t34.5 72.5t63 50.5t90.5 19q41 0 77 -13.5t63.5 -41t42.5 -71t15 -100.5v-134q0 -43 -10.5 -84.5t-35 -73t-62.5 -50.5t-90 -19q-41 0 -77 13.5t-63 41.5t-42.5 71.5t-15.5 100.5zM117 214q0 -43 12 -82.5t43.5 -61.5t76.5 -22q37 0 68.5 16.5
t47.5 56t16 93.5v134q0 85 -35.5 125t-96.5 40q-37 0 -68 -16.5t-47.5 -55.5t-16.5 -93v-134z" />
    <glyph glyph-name="one.sc.tnum" horiz-adv-x="498" 
d="M285 15v484l-123 -23q-7 -1 -11.5 2.5t-4.5 10.5v29q0 17 18 20l169 29q8 1 13 -3t5 -11v-538q0 -6 -4.5 -10.5t-10.5 -4.5h-36q-6 0 -10.5 4.5t-4.5 10.5z" />
    <glyph glyph-name="two.sc.tnum" horiz-adv-x="498" 
d="M76 15v35q0 59 24.5 101.5t57 70.5t82 60.5t73 53t32 40.5t8.5 37q0 30 -16 54.5t-41.5 35t-53.5 10.5q-60 0 -117 -25q-16 -6 -22 7l-11 25q-3 6 -0.5 13t8.5 10q42 18 74.5 24.5t68.5 6.5q79 0 128.5 -43.5t49.5 -115.5q0 -44 -27 -81t-103 -88.5t-100.5 -78.5
t-35.5 -52.5t-11 -55.5h261q6 0 10.5 -4.5t4.5 -10.5v-29q0 -6 -4.5 -10.5t-10.5 -4.5h-314q-6 0 -10.5 4.5t-4.5 10.5z" />
    <glyph glyph-name="three.sc.tnum" horiz-adv-x="498" 
d="M77 27l8 26q1 3 5.5 8.5t15.5 2.5q52 -16 107 -16q28 0 62 10.5t57.5 39t23.5 69.5q0 35 -16.5 59.5t-45.5 37t-72 12.5h-45q-6 0 -11.5 4t-6.5 10l-6 29q-3 14 6 23l157 161h-217q-14 0 -16 15l-4 29q-1 6 3 10t10 4h281q6 0 11 -3.5t6 -9.5l4 -26q3 -19 -7 -29
l-158 -160q51 0 98 -19.5t72 -59t25 -87.5q0 -50 -28 -93.5t-79 -65t-104 -21.5q-63 0 -125 19q-6 2 -9.5 8t-1.5 13z" />
    <glyph glyph-name="four.sc.tnum" horiz-adv-x="498" 
d="M78 129q-15 0 -18 19l-3 19q-3 18 2 34l112 348q4 12 19 12h32q7 0 10.5 -4.5t1.5 -11.5l-111 -357h171v169q0 6 5 11.5t12 6.5l31 5q8 1 12.5 -2.5t4.5 -10.5v-179h70q6 0 10.5 -4.5t4.5 -10.5v-29q0 -6 -4.5 -10.5t-10.5 -4.5h-70v-113q0 -15 -17 -17l-32 -4
q-6 -1 -11 3t-5 10v121h-216z" />
    <glyph glyph-name="five.sc.tnum" horiz-adv-x="498" 
d="M72 26l6 29q1 6 6 9t11 2q65 -18 126 -18q37 0 69.5 16t51 43.5t18.5 67.5q0 62 -37 88t-106 26h-102q-6 0 -10 4.5t-4 10.5l10 243q0 6 4.5 10t10.5 4h266q8 0 11.5 -4.5t1.5 -11.5l-9 -30q-4 -12 -19 -12h-204l-6 -156h60q96 0 148.5 -43.5t52.5 -126.5
q0 -57 -26.5 -98.5t-74 -66.5t-105.5 -25q-72 0 -137 20q-16 5 -13 19z" />
    <glyph glyph-name="six.sc.tnum" horiz-adv-x="498" 
d="M66 172v195q0 42 12.5 80t38 66.5t63 44.5t84.5 16q51 0 113 -16q15 -4 11 -20l-7 -27q-4 -16 -22 -11q-52 13 -95 13q-24 0 -47.5 -7.5t-44 -27t-30 -50.5t-9.5 -59v-31q59 33 125 33q38 0 72 -12.5t59.5 -37t40 -61t14.5 -81.5q0 -34 -10 -68t-33.5 -61.5t-60.5 -45
t-85 -17.5q-38 0 -72.5 12.5t-61 36t-41 58.5t-14.5 78zM132 171q0 -51 32.5 -87t89.5 -36q58 0 90 37.5t32 93.5q0 28 -9.5 57t-29 47t-41 24.5t-42.5 6.5q-30 0 -62 -8.5t-60 -24.5v-110z" />
    <glyph glyph-name="seven.sc.tnum" horiz-adv-x="498" 
d="M194 16q0 150 45 272.5t124 214.5h-282q-15 0 -16 15l-2 28q-1 15 14 15h344q6 0 10.5 -4.5t4.5 -10.5v-27q0 -15 -10 -27q-79 -100 -108 -168.5t-42.5 -142t-13.5 -165.5q0 -6 -4.5 -11t-10.5 -5h-38q-6 0 -10.5 5t-4.5 11z" />
    <glyph glyph-name="eight.sc.tnum" horiz-adv-x="498" 
d="M54 140q0 41 21 71.5t49.5 49t54.5 30.5q-56 29 -81 63t-25 77q0 36 20.5 70.5t63 53.5t92.5 19q76 0 127 -40.5t51 -102.5q0 -35 -22 -68.5t-86 -65.5q41 -19 68 -41t41.5 -50t14.5 -65q0 -43 -23.5 -77t-67.5 -55.5t-103 -21.5q-37 0 -72.5 10.5t-63 30.5t-43.5 48.5
t-16 63.5zM255 324q63 29 83.5 54.5t20.5 53.5q0 37 -31 60t-79 23t-78.5 -23t-30.5 -60q0 -29 22 -53.5t93 -54.5zM122 141q0 -20 12.5 -42.5t44 -37t70.5 -14.5q38 0 69 14t44.5 36t13.5 44q0 31 -22 54t-51 38t-61 29q-73 -33 -96.5 -61.5t-23.5 -59.5z" />
    <glyph glyph-name="nine.sc.tnum" horiz-adv-x="498" 
d="M116 21l7 32q1 6 7 8.5t14 0.5q56 -14 96 -14t69.5 17.5t46 50.5t16.5 76v31q-60 -33 -126 -33q-38 0 -72 12.5t-59.5 37t-40 61t-14.5 81.5q0 34 10 68t33.5 61.5t60.5 45t86 17.5q38 0 72.5 -12.5t60.5 -36t40.5 -58.5t14.5 -78v-195q0 -42 -13 -80t-38 -66.5
t-62.5 -44.5t-84.5 -16q-52 0 -112 16q-6 1 -9.5 6.5t-2.5 11.5zM250 247q30 0 62 8.5t60 24.5v110q0 50 -32.5 86.5t-89.5 36.5q-36 0 -62.5 -15.5t-43 -46t-16.5 -69.5q0 -43 18.5 -76.5t47 -46t56.5 -12.5z" />
    <glyph glyph-name="dollar.sc.tnum" horiz-adv-x="498" 
d="M76 33l6 29q1 5 6 8.5t13 1.5q78 -23 140 -23q47 0 81 25.5t34 69.5q0 31 -16.5 52t-41 33.5t-75 31.5t-75.5 35t-38 33t-19.5 37t-6.5 45t11.5 53t32 45.5t44.5 28.5t58 15v79q0 6 4.5 10.5t10.5 4.5h28q6 0 10.5 -4.5t4.5 -10.5v-78q47 -4 105 -21q16 -5 12 -19l-8 -29
q-4 -14 -17 -10q-67 21 -118 21t-80.5 -22t-29.5 -61q0 -18 8.5 -36t32 -33.5t82 -37t84.5 -39t39 -35.5t19.5 -39.5t6.5 -47.5q0 -60 -39 -102t-107 -51v-80q0 -6 -4.5 -10.5t-10.5 -4.5h-28q-6 0 -10.5 4.5t-4.5 10.5v78q-66 4 -131 23q-16 4 -13 20z" />
    <glyph glyph-name="cent.sc.tnum" horiz-adv-x="498" 
d="M89 174v77q0 80 39.5 128.5t114.5 55.5v78q0 6 4.5 10.5t10.5 4.5h28q6 0 10.5 -4.5t4.5 -10.5v-78q36 -3 78 -14q16 -4 13 -20l-5 -25q-1 -7 -7 -9.5t-15 -0.5q-54 13 -93 13q-60 0 -89.5 -32.5t-29.5 -100.5v-67q0 -68 29.5 -100.5t89.5 -32.5q41 0 97 14
q6 1 11.5 -2.5t6.5 -9.5l5 -25q1 -6 -3 -12t-10 -7q-42 -11 -78 -14v-78q0 -6 -4.5 -10.5t-10.5 -4.5h-28q-6 0 -10.5 4.5t-4.5 10.5v78q-75 7 -114.5 55t-39.5 129z" />
    <glyph glyph-name="sterling.sc.tnum" horiz-adv-x="498" 
d="M92 15v39q40 53 50 89t11 76h-51q-6 0 -10.5 4.5t-4.5 10.5v20q0 6 4.5 10.5t10.5 4.5h44q-2 9 -12.5 42t-14 57t-3.5 45q0 77 46.5 119t121.5 42q54 0 111 -19q16 -6 10 -23l-9 -25q-2 -6 -8 -8.5t-14 0.5q-15 5 -39 9.5t-46 4.5q-25 0 -50.5 -9.5t-40 -35t-14.5 -60.5
q0 -24 5 -49.5t13 -53t10 -36.5h142q6 0 10.5 -4.5t4.5 -10.5v-20q0 -6 -4.5 -10.5t-10.5 -4.5h-135q-1 -47 -12.5 -81.5t-41.5 -80.5h228q6 0 10.5 -4.5t4.5 -10.5v-27q0 -6 -4.5 -10.5t-10.5 -4.5h-286q-6 0 -10.5 4.5t-4.5 10.5z" />
    <glyph glyph-name="Euro.sc.tnum" horiz-adv-x="498" 
d="M66 189q-6 0 -10.5 4.5t-4.5 10.5v20q0 6 4.5 10.5t10.5 4.5h58v83h-58q-6 0 -10.5 4.5t-4.5 10.5v21q0 6 4.5 10.5t10.5 4.5h58q1 93 56.5 147t144.5 54q49 0 106 -11q15 -3 12 -19l-5 -26q-1 -7 -6.5 -10.5t-11.5 -2.5q-55 10 -95 10q-61 0 -97.5 -38.5t-37.5 -103.5
h165q7 0 11 -4t3 -11l-4 -21q-3 -15 -18 -15h-157v-83h141q17 0 13 -18l-4 -18q-1 -3 -4.5 -8.5t-13.5 -5.5h-132q1 -66 37.5 -104t97.5 -38q48 0 96 10q6 1 11 -2.5t6 -10.5l5 -27q3 -16 -13 -19q-57 -11 -105 -11q-89 0 -144.5 54t-56.5 148h-58z" />
    <glyph glyph-name="yen.sc.tnum" horiz-adv-x="498" 
d="M112 98q-6 0 -10.5 4.5t-4.5 10.5v20q0 6 4.5 10.5t10.5 4.5h104v56h-104q-6 0 -10.5 4.5t-4.5 10.5v21q0 6 4.5 10.5t10.5 4.5h84l-151 287q-4 7 -1.5 13t9.5 6h40q16 0 24 -16l132 -265l132 265q8 16 24 16h37q8 0 11 -5.5t-1 -13.5l-150 -287h85q6 0 10.5 -4.5
t4.5 -10.5v-21q0 -6 -4.5 -10.5t-10.5 -4.5h-105v-56h105q6 0 10.5 -4.5t4.5 -10.5v-20q0 -6 -4.5 -10.5t-10.5 -4.5h-105v-83q0 -6 -4.5 -10.5t-10.5 -4.5h-36q-6 0 -10.5 4.5t-4.5 10.5v83h-104z" />
    <glyph glyph-name="numbersign.sc.tnum" horiz-adv-x="498" 
d="M93 15l15 152h-46q-6 0 -10.5 4.5t-4.5 10.5v27q0 6 4.5 10.5t10.5 4.5h52l14 140h-46q-6 0 -10.5 4.5t-4.5 10.5v28q0 6 4.5 10.5t10.5 4.5h52l15 151q1 6 6 10.5t11 4.5h29q6 0 10 -4.5t3 -10.5l-15 -151h138l15 151q1 6 6 10.5t11 4.5h29q6 0 10 -4.5t3 -10.5
l-15 -151h45q6 0 10.5 -4.5t4.5 -10.5v-28q0 -6 -4.5 -10.5t-10.5 -4.5h-51l-14 -140h45q6 0 10.5 -4.5t4.5 -10.5v-27q0 -6 -4.5 -10.5t-10.5 -4.5h-51l-16 -152q-1 -6 -6 -10.5t-11 -4.5h-28q-6 0 -10 4.5t-3 10.5l15 152h-138l-15 -152q-1 -6 -6 -10.5t-11 -4.5h-29
q-6 0 -10 4.5t-3 10.5zM173 224h138l14 140h-138z" />
    <glyph glyph-name="zero.sc" horiz-adv-x="522" 
d="M63 214v134q0 43 10 84t34.5 72.5t63 50.5t90.5 19q41 0 77 -13.5t63.5 -41t42.5 -71t15 -100.5v-134q0 -43 -10.5 -84.5t-35 -73t-62.5 -50.5t-90 -19q-41 0 -77 13.5t-63 41.5t-42.5 71.5t-15.5 100.5zM129 214q0 -43 12 -82.5t43.5 -61.5t76.5 -22q37 0 68.5 16.5
t47.5 56t16 93.5v134q0 85 -35.5 125t-96.5 40q-37 0 -68 -16.5t-47.5 -55.5t-16.5 -93v-134z" />
    <glyph glyph-name="one.sc" horiz-adv-x="344" 
d="M190 15v484l-123 -23q-7 -1 -11.5 2.5t-4.5 10.5v29q0 17 18 20l169 29q8 1 13 -3t5 -11v-538q0 -6 -4.5 -10.5t-10.5 -4.5h-36q-6 0 -10.5 4.5t-4.5 10.5z" />
    <glyph glyph-name="two.sc" horiz-adv-x="475" 
d="M58 15v35q0 59 24.5 101.5t57 70.5t82 60.5t73 53t32 40.5t8.5 37q0 30 -16 54.5t-41.5 35t-53.5 10.5q-60 0 -117 -25q-16 -6 -22 7l-11 25q-3 6 -0.5 13t8.5 10q42 18 74.5 24.5t68.5 6.5q79 0 128.5 -43.5t49.5 -115.5q0 -44 -27 -81t-103 -88.5t-100.5 -78.5
t-35.5 -52.5t-11 -55.5h261q6 0 10.5 -4.5t4.5 -10.5v-29q0 -6 -4.5 -10.5t-10.5 -4.5h-314q-6 0 -10.5 4.5t-4.5 10.5z" />
    <glyph glyph-name="three.sc" horiz-adv-x="450" 
d="M47 27l8 26q1 3 5.5 8.5t15.5 2.5q52 -16 107 -16q28 0 62 10.5t57.5 39t23.5 69.5q0 35 -16.5 59.5t-45.5 37t-72 12.5h-45q-6 0 -11.5 4t-6.5 10l-6 29q-3 14 6 23l157 161h-217q-14 0 -16 15l-4 29q-1 6 3 10t10 4h281q6 0 11 -3.5t6 -9.5l4 -26q3 -19 -7 -29
l-158 -160q51 0 98 -19.5t72 -59t25 -87.5q0 -50 -28 -93.5t-79 -65t-104 -21.5q-63 0 -125 19q-6 2 -9.5 8t-1.5 13z" />
    <glyph glyph-name="four.sc" horiz-adv-x="491" 
d="M75 129q-15 0 -18 19l-3 19q-3 18 2 34l112 348q4 12 19 12h32q7 0 10.5 -4.5t1.5 -11.5l-111 -357h171v169q0 6 5 11.5t12 6.5l31 5q8 1 12.5 -2.5t4.5 -10.5v-179h70q6 0 10.5 -4.5t4.5 -10.5v-29q0 -6 -4.5 -10.5t-10.5 -4.5h-70v-113q0 -15 -17 -17l-32 -4
q-6 -1 -11 3t-5 10v121h-216z" />
    <glyph glyph-name="five.sc" horiz-adv-x="456" 
d="M43 26l6 29q1 6 6 9t11 2q65 -18 126 -18q37 0 69.5 16t51 43.5t18.5 67.5q0 62 -37 88t-106 26h-102q-6 0 -10 4.5t-4 10.5l10 243q0 6 4.5 10t10.5 4h266q8 0 11.5 -4.5t1.5 -11.5l-9 -30q-4 -12 -19 -12h-204l-6 -156h60q96 0 148.5 -43.5t52.5 -126.5
q0 -57 -26.5 -98.5t-74 -66.5t-105.5 -25q-72 0 -137 20q-16 5 -13 19z" />
    <glyph glyph-name="six.sc" horiz-adv-x="494" 
d="M63 172v195q0 42 12.5 80t38 66.5t63 44.5t84.5 16q51 0 113 -16q15 -4 11 -20l-7 -27q-4 -16 -22 -11q-52 13 -95 13q-24 0 -47.5 -7.5t-44 -27t-30 -50.5t-9.5 -59v-31q59 33 125 33q38 0 72 -12.5t59.5 -37t40 -61t14.5 -81.5q0 -34 -10 -68t-33.5 -61.5t-60.5 -45
t-85 -17.5q-38 0 -72.5 12.5t-61 36t-41 58.5t-14.5 78zM129 171q0 -51 32.5 -87t89.5 -36q58 0 90 37.5t32 93.5q0 28 -9.5 57t-29 47t-41 24.5t-42.5 6.5q-30 0 -62 -8.5t-60 -24.5v-110z" />
    <glyph glyph-name="seven.sc" horiz-adv-x="434" 
d="M161 16q0 150 45 272.5t124 214.5h-282q-15 0 -16 15l-2 28q-1 15 14 15h344q6 0 10.5 -4.5t4.5 -10.5v-27q0 -15 -10 -27q-79 -100 -108 -168.5t-42.5 -142t-13.5 -165.5q0 -6 -4.5 -11t-10.5 -5h-38q-6 0 -10.5 5t-4.5 11z" />
    <glyph glyph-name="eight.sc" horiz-adv-x="505" 
d="M58 140q0 41 21 71.5t49.5 49t54.5 30.5q-56 29 -81 63t-25 77q0 36 20.5 70.5t63 53.5t92.5 19q76 0 127 -40.5t51 -102.5q0 -35 -22 -68.5t-86 -65.5q41 -19 68 -41t41.5 -50t14.5 -65q0 -43 -23.5 -77t-67.5 -55.5t-103 -21.5q-37 0 -72.5 10.5t-63 30.5t-43.5 48.5
t-16 63.5zM259 324q63 29 83.5 54.5t20.5 53.5q0 37 -31 60t-79 23t-78.5 -23t-30.5 -60q0 -29 22 -53.5t93 -54.5zM126 141q0 -20 12.5 -42.5t44 -37t70.5 -14.5q38 0 69 14t44.5 36t13.5 44q0 31 -22 54t-51 38t-61 29q-73 -33 -96.5 -61.5t-23.5 -59.5z" />
    <glyph glyph-name="nine.sc" horiz-adv-x="487" 
d="M102 21l7 32q1 6 7 8.5t14 0.5q56 -14 96 -14t69.5 17.5t46 50.5t16.5 76v31q-60 -33 -126 -33q-38 0 -72 12.5t-59.5 37t-40 61t-14.5 81.5q0 34 10 68t33.5 61.5t60.5 45t86 17.5q38 0 72.5 -12.5t60.5 -36t40.5 -58.5t14.5 -78v-195q0 -42 -13 -80t-38 -66.5
t-62.5 -44.5t-84.5 -16q-52 0 -112 16q-6 1 -9.5 6.5t-2.5 11.5zM236 247q30 0 62 8.5t60 24.5v110q0 50 -32.5 86.5t-89.5 36.5q-36 0 -62.5 -15.5t-43 -46t-16.5 -69.5q0 -43 18.5 -76.5t47 -46t56.5 -12.5z" />
    <glyph glyph-name="dollar.sc" horiz-adv-x="452" 
d="M49 33l6 29q1 5 6 8.5t13 1.5q78 -23 140 -23q47 0 81 25.5t34 69.5q0 31 -16.5 52t-41 33.5t-75 31.5t-75.5 35t-38 33t-19.5 37t-6.5 45t11.5 53t32 45.5t44.5 28.5t58 15v79q0 6 4.5 10.5t10.5 4.5h28q6 0 10.5 -4.5t4.5 -10.5v-78q47 -4 105 -21q16 -5 12 -19l-8 -29
q-4 -14 -17 -10q-67 21 -118 21t-80.5 -22t-29.5 -61q0 -18 8.5 -36t32 -33.5t82 -37t84.5 -39t39 -35.5t19.5 -39.5t6.5 -47.5q0 -60 -39 -102t-107 -51v-80q0 -6 -4.5 -10.5t-10.5 -4.5h-28q-6 0 -10.5 4.5t-4.5 10.5v78q-66 4 -131 23q-16 4 -13 20z" />
    </font>
</defs>
</svg>
